<?xml version="1.0" encoding="UTF-8" standalone="no"?>
<!-- Created with Inkscape (http://www.inkscape.org/) -->

<svg
   xmlns:dc="http://purl.org/dc/elements/1.1/"
   xmlns:cc="http://creativecommons.org/ns#"
   xmlns:rdf="http://www.w3.org/1999/02/22-rdf-syntax-ns#"
   xmlns:svg="http://www.w3.org/2000/svg"
   xmlns="http://www.w3.org/2000/svg"
   xmlns:sodipodi="http://sodipodi.sourceforge.net/DTD/sodipodi-0.dtd"
   xmlns:inkscape="http://www.inkscape.org/namespaces/inkscape"
   width="86.526337mm"
   height="98.607361mm"
   viewBox="0 0 86.526337 98.607361"
   version="1.1"
   id="svg8"
   inkscape:version="0.92.5 (2060ec1f9f, 2020-04-08)"
   sodipodi:docname="cestaIcon.svg">
  <defs
     id="defs2" />
  <sodipodi:namedview
     id="base"
     pagecolor="#ffffff"
     bordercolor="#666666"
     borderopacity="1.0"
     inkscape:pageopacity="0.0"
     inkscape:pageshadow="2"
     inkscape:zoom="0.20223394"
     inkscape:cx="-322.32694"
     inkscape:cy="859.16034"
     inkscape:document-units="mm"
     inkscape:current-layer="layer1"
     showgrid="false"
     inkscape:window-width="1366"
     inkscape:window-height="704"
     inkscape:window-x="0"
     inkscape:window-y="27"
     inkscape:window-maximized="1"
     fit-margin-top="0"
     fit-margin-left="0"
     fit-margin-right="0"
     fit-margin-bottom="0" />
  <metadata
     id="metadata5">
    <rdf:RDF>
      <cc:Work
         rdf:about="">
        <dc:format>image/svg+xml</dc:format>
        <dc:type
           rdf:resource="http://purl.org/dc/dcmitype/StillImage" />
        <dc:title></dc:title>
      </cc:Work>
    </rdf:RDF>
  </metadata>
  <g
     inkscape:label="Camada 1"
     inkscape:groupmode="layer"
     id="layer1"
     transform="translate(-105.23683,-142.69632)">
    <path
       style="fill:#000000;stroke-width:0.30896375"
       d="m 115.32465,241.08914 c -4.74896,-0.81182 -8.85252,-4.94344 -9.77453,-9.84136 -0.19867,-1.05537 -0.31329,-13.06558 -0.31329,-32.8274 v -31.16317 h 10.76782 10.76782 l 0.17854,-3.47584 c 0.32223,-6.27306 2.1694,-10.53844 6.39276,-14.7618 4.41689,-4.41689 8.98376,-6.32325 15.14799,-6.32325 6.16422,0 10.73109,1.90636 15.14798,6.32325 4.22336,4.22336 6.07053,8.48874 6.39276,14.7618 l 0.17854,3.47584 h 10.77607 10.77606 l -0.0855,32.20946 c -0.0852,32.11786 -0.0873,32.21407 -0.74735,33.82202 -1.38648,3.37796 -4.11875,6.07047 -7.52567,7.41616 -1.29858,0.51294 -3.54139,0.55218 -33.98601,0.5948 -17.92762,0.0251 -33.26992,-0.0696 -34.094,-0.21051 z m 66.68967,-6.44387 c 1.49569,-0.6903 2.43698,-1.66841 3.0749,-3.19514 0.41986,-1.00487 0.47818,-4.61311 0.47818,-29.57906 v -28.43459 h -37.08033 -37.08033 l 0.082,28.86159 0.082,28.8616 0.93103,1.33962 c 0.54427,0.78312 1.50196,1.62838 2.30545,2.03477 l 1.37443,0.69517 32.29849,-0.007 c 30.74076,-0.007 32.35808,-0.0343 33.53433,-0.57718 z m -18.07437,-69.9437 c 0,-4.8035 -1.66182,-8.70569 -5.04715,-11.85147 -3.84587,-3.57372 -8.86549,-4.88427 -14.03728,-3.66491 -2.88879,0.68108 -4.93604,1.86009 -7.17974,4.1348 -3.30819,3.35389 -4.63221,6.60546 -4.63221,11.37594 v 2.56128 h 15.44819 15.44819 z"
       id="path1013"
       inkscape:connector-curvature="0" />
    <path
       style="fill:#000000;stroke-width:0.11638064"
       d="m 146.85962,222.65906 c -8.43507,-5.93275 -13.50774,-11.40505 -15.82909,-17.07608 -0.83041,-2.02868 -1.14149,-3.54357 -1.14919,-5.59634 -0.008,-2.07672 0.24562,-3.22946 1.08738,-4.94618 1.45503,-2.96745 3.99507,-4.97606 7.4533,-5.89391 1.37834,-0.36582 3.92374,-0.36353 5.29532,0.005 1.55518,0.4176 2.97394,1.17731 4.17809,2.23725 l 0.5408,0.47603 0.49188,-0.45274 c 3.47497,-3.19845 9.08724,-3.42165 13.367,-0.53159 0.89674,0.60555 2.2564,1.95154 2.85958,2.83083 1.39597,2.03498 2.09403,4.9479 1.80174,7.51838 -0.66563,5.85366 -4.97521,12.05962 -12.64846,18.21427 -1.30887,1.04984 -5.74934,4.28425 -5.87721,4.28094 -0.032,-8.8e-4 -0.73902,-0.48036 -1.57114,-1.06563 z"
       id="path1205"
       inkscape:connector-curvature="0" />
  </g>
</svg>
