<?xml version="1.0" standalone="no"?>
<!DOCTYPE svg PUBLIC "-//W3C//DTD SVG 20010904//EN"
 "http://www.w3.org/TR/2001/REC-SVG-20010904/DTD/svg10.dtd">
<svg version="1.0" xmlns="http://www.w3.org/2000/svg"
 width="1915.000000pt" height="1915.000000pt" viewBox="0 0 1915.000000 1915.000000"
 preserveAspectRatio="xMidYMid meet">
<metadata>
Created by potrace 1.11, written by Peter Selinger 2001-2013
</metadata>
<g transform="translate(0.000000,1915.000000) scale(0.100000,-0.100000)"
fill="#000000" stroke="none">
<path d="M13309 16442 c-8 -3 -36 -15 -64 -27 -97 -43 -118 -48 -170 -47 -35
0 -72 10 -108 26 -37 18 -71 26 -108 26 -142 0 -399 -114 -584 -259 -99 -78
-161 -119 -248 -164 -71 -37 -113 -56 -222 -96 -71 -27 -185 -86 -400 -206
-67 -38 -339 -204 -423 -259 -136 -89 -327 -199 -439 -254 -102 -50 -124 -57
-185 -59 -95 -4 -136 -27 -298 -162 -324 -271 -834 -769 -988 -963 -70 -89
-168 -177 -272 -246 -151 -101 -350 -288 -561 -528 -228 -260 -346 -389 -514
-558 -111 -112 -215 -243 -294 -370 -50 -79 -111 -204 -111 -225 0 -20 -41
-83 -69 -106 -31 -25 -99 -54 -130 -54 -20 -1 -22 3 -17 24 4 14 27 57 52 95
25 39 44 75 42 81 -5 15 -166 -109 -220 -170 -50 -55 -98 -142 -98 -175 0 -44
-35 -82 -86 -95 -145 -38 -154 -42 -196 -84 -90 -88 -126 -187 -122 -329 2
-102 -3 -107 -134 -113 -122 -6 -192 -29 -253 -86 -24 -22 -68 -63 -97 -90
-228 -211 -705 -547 -742 -524 -26 16 3 81 38 90 26 6 163 140 183 178 10 17
9 17 -13 6 -31 -16 -190 -134 -308 -227 -158 -126 -284 -226 -296 -237 -7 -5
-51 -41 -99 -80 -48 -38 -173 -141 -279 -229 -105 -87 -211 -175 -235 -195
-24 -20 -49 -41 -55 -46 -6 -6 -108 -91 -226 -189 -118 -99 -228 -192 -245
-207 -46 -41 -173 -150 -221 -189 -74 -60 -48 -53 49 14 108 75 193 123 237
136 27 8 32 6 39 -13 16 -43 -37 -148 -129 -257 -30 -36 -172 -182 -315 -325
-144 -143 -281 -283 -306 -310 -140 -158 -178 -204 -246 -292 -89 -115 -117
-167 -115 -208 3 -44 -9 -55 -64 -61 -27 -4 -65 -13 -84 -22 -54 -25 -216
-137 -261 -181 -9 -9 -38 -34 -65 -56 -87 -71 -258 -252 -292 -308 -28 -46
-32 -59 -22 -76 17 -34 87 -32 178 4 87 35 96 34 89 -12 -9 -51 -54 -141 -79
-154 -33 -18 -98 -19 -188 -3 -206 36 -297 29 -325 -26 -18 -35 -19 -67 -2
-73 6 -2 47 9 90 24 85 29 132 27 152 -8 23 -40 63 -69 100 -71 133 -9 337 94
376 190 22 56 59 109 82 117 59 23 81 -44 48 -152 -11 -38 -19 -72 -16 -75 6
-6 73 44 103 77 51 56 108 150 160 265 87 190 88 191 157 127 38 -35 48 -39
84 -37 24 2 54 13 73 28 47 34 101 58 135 58 64 0 123 -68 109 -126 -8 -29
-70 -62 -133 -69 -95 -12 -173 -39 -173 -60 0 -35 46 -44 104 -20 36 15 76 8
76 -14 0 -25 -144 -166 -305 -301 -252 -210 -323 -272 -389 -337 -98 -98 -117
-143 -60 -143 18 0 50 23 108 78 45 42 144 127 219 187 239 190 312 235 351
213 22 -12 20 -55 -4 -85 -24 -30 -26 -76 -5 -93 12 -10 18 -10 31 0 22 19 62
91 86 153 67 178 156 299 231 312 21 4 41 4 44 1 4 -4 2 -31 -4 -60 -33 -155
53 -125 136 47 112 233 164 461 130 561 -19 52 -41 66 -68 42 -25 -23 -26 -47
-5 -87 8 -16 12 -39 9 -50 -19 -59 -127 -111 -236 -112 -119 -2 -249 56 -249
110 0 42 33 56 147 63 145 8 148 11 188 123 21 59 61 100 121 123 59 23 95 12
108 -34 5 -17 15 -32 22 -32 7 0 32 33 55 73 98 168 205 297 248 297 84 0 -30
-280 -181 -447 -26 -29 -48 -63 -48 -74 0 -11 16 -35 35 -52 57 -50 46 -91
-53 -197 -29 -30 -52 -58 -52 -62 0 -5 26 -8 58 -9 31 0 80 -2 107 -4 129 -9
209 -16 212 -19 2 -1 -12 -14 -30 -27 -19 -13 -53 -40 -77 -59 -23 -19 -59
-48 -80 -65 -21 -16 -57 -46 -81 -65 -65 -52 -167 -155 -189 -192 -12 -19 -20
-51 -20 -76 0 -55 -19 -99 -60 -139 -70 -69 -112 -60 -154 30 -33 73 -46 82
-80 56 -44 -35 -79 -105 -79 -160 0 -27 5 -55 11 -61 48 -48 -32 -141 -348
-402 -182 -151 -310 -274 -310 -297 0 -63 162 -56 254 12 51 37 74 73 82 129
7 51 52 116 136 195 212 202 455 367 493 335 23 -19 18 -51 -16 -104 -16 -27
-28 -50 -26 -52 5 -6 108 77 158 126 47 46 99 119 99 139 0 8 -15 30 -32 49
-31 31 -33 37 -33 105 0 65 4 79 40 146 48 88 122 171 153 171 29 0 85 -51
108 -98 21 -43 22 -91 3 -103 -21 -13 -67 -11 -99 6 -41 21 -44 5 -11 -47 52
-81 117 -108 171 -71 64 44 89 94 85 164 -2 29 1 59 7 66 22 26 129 12 150
-20 9 -14 -12 -63 -67 -159 -25 -42 -45 -79 -45 -81 0 -5 197 0 280 7 104 9
145 18 200 43 72 32 108 35 160 11 52 -24 97 -25 141 -4 64 31 82 79 64 168
-8 42 -8 43 99 52 78 6 190 61 327 160 59 42 110 76 114 76 4 0 -8 -18 -27
-41 -89 -108 -114 -179 -64 -179 35 0 92 43 175 131 110 118 144 133 248 114
37 -7 43 -5 58 19 17 25 17 27 -1 47 -25 28 -58 44 -122 59 -28 6 -56 19 -61
28 -10 17 1 63 22 96 25 39 49 110 57 169 7 46 15 64 37 83 38 33 95 49 134
38 65 -19 55 -85 -25 -171 -59 -64 -76 -92 -76 -122 0 -40 52 -20 155 57 191
145 468 415 517 506 7 12 13 42 13 67 2 56 34 105 79 124 26 11 36 11 64 -1
30 -12 38 -12 70 4 43 21 85 45 92 52 3 3 24 18 48 34 63 43 188 150 262 225
57 58 62 66 43 69 -12 2 -48 -2 -80 -8 -145 -28 -166 -22 -138 41 36 78 121
119 292 140 97 12 218 48 279 84 23 14 68 46 100 73 82 67 157 111 204 118 22
4 47 12 56 19 15 11 14 14 -10 31 -94 66 -109 92 -70 123 19 15 32 17 66 11
35 -7 51 -4 93 17 64 33 123 73 210 143 115 93 223 159 332 201 29 11 45 15
98 25 83 14 255 121 505 313 110 84 680 537 742 590 21 17 425 347 522 425 21
17 43 36 50 41 6 6 47 40 91 75 43 36 91 75 105 86 14 12 194 160 400 330 206
169 407 335 445 367 39 33 79 67 90 76 80 65 538 450 615 516 52 45 106 90
119 101 13 10 28 24 35 29 6 6 94 83 196 170 102 88 190 164 196 170 6 5 41
37 79 70 178 158 232 212 277 278 55 82 27 74 -112 -31 -25 -19 -58 -43 -74
-55 -85 -64 -469 -370 -545 -436 -111 -96 -173 -123 -184 -82 -12 47 56 124
183 208 148 99 259 195 312 271 51 74 35 81 -67 27 -145 -76 -167 -87 -171
-82 -3 2 33 37 78 78 165 147 232 215 274 280 55 84 76 139 120 307 48 190
113 320 202 407 79 79 102 111 102 148 0 37 29 91 87 163 49 61 71 86 193 214
102 108 150 173 156 212 5 30 0 38 -47 86 l-52 52 6 58 c2 31 17 84 31 117 15
32 25 65 24 72 -3 12 -54 -28 -158 -121 -19 -17 -58 -49 -85 -71 -28 -21 -52
-42 -55 -45 -9 -10 -173 -125 -215 -151 -89 -54 -155 -74 -155 -46 0 49 137
194 394 417 16 14 52 47 80 73 l51 48 -75 -50 c-41 -28 -82 -55 -90 -61 -27
-19 -265 -175 -295 -194 -17 -10 47 60 141 155 274 279 290 306 235 404 -43
76 -44 131 -2 213 37 74 38 82 7 76 -78 -14 -176 -67 -312 -169 -112 -85 -144
-103 -192 -111 -37 -6 -42 -4 -42 13 0 38 72 122 195 228 101 87 166 148 219
204 22 24 47 50 54 57 17 18 52 95 52 116 0 31 -22 66 -49 78 -26 10 -82 11
-112 2z m-531 -829 c23 -39 -35 -133 -98 -160 -26 -11 -95 -11 -106 0 -22 22
31 94 106 145 50 35 84 40 98 15z m-434 -340 c-21 -34 -57 -67 -107 -99 -89
-58 -50 12 47 86 62 48 86 52 60 13z m-2245 -1947 c-67 -65 -147 -121 -195
-136 -34 -12 -38 -11 -55 11 -24 32 -9 55 57 88 70 35 238 101 243 95 3 -3
-19 -29 -50 -58z m2 -143 c-27 -49 -152 -145 -168 -129 -10 10 112 125 148
139 25 10 30 7 20 -10z m-311 -239 c0 -17 -94 -184 -119 -211 -34 -38 -51 -41
-76 -13 -24 27 -8 70 47 124 63 62 148 120 148 100z m2240 -229 c35 -37 18
-59 -49 -63 -41 -2 -53 0 -58 14 -8 21 7 45 38 61 34 18 42 16 69 -12z m-3552
-721 c25 -17 29 -60 9 -87 -19 -27 -63 -31 -87 -7 -55 55 14 139 78 94z m-622
-40 c25 -24 25 -26 8 -45 -25 -28 -124 -23 -124 7 0 20 48 64 71 64 11 0 31
-12 45 -26z m-120 -160 c34 -16 64 -58 64 -88 0 -35 -64 -40 -122 -10 -37 19
-40 74 -6 98 27 19 23 19 64 0z m375 -42 c34 -43 -11 -113 -63 -96 -49 15 -63
69 -27 103 26 24 67 21 90 -7z m259 -22 c11 -11 20 -26 20 -34 0 -25 -75 -41
-117 -25 -29 11 -29 20 2 53 29 31 67 34 95 6z m537 -264 c44 -14 44 -81 0
-106 -24 -13 -30 -13 -54 0 -37 21 -43 70 -13 98 22 20 29 21 67 8z m-1236
-203 c8 -102 -18 -143 -88 -143 -47 0 -83 14 -83 31 0 14 76 87 115 111 38 23
55 23 56 1z m624 -40 c9 -37 -18 -71 -61 -79 -86 -16 -126 41 -62 89 18 14 42
27 53 29 31 6 63 -12 70 -39z m-350 -4 c15 -47 -28 -129 -68 -129 -50 1 -72
42 -49 89 29 61 103 86 117 40z m2469 -91 c15 -20 15 -28 2 -65 -9 -29 -50
-40 -82 -23 -30 16 -37 40 -24 74 17 46 76 54 104 14z m-3146 -134 c22 -15 29
-57 14 -81 -13 -21 -56 -32 -78 -20 -26 14 -34 27 -34 59 0 28 31 58 60 58 9
0 26 -7 38 -16z m2722 -88 c0 -21 -49 -76 -77 -87 -59 -22 -47 24 19 71 46 33
58 37 58 16z m-3093 -192 c32 -50 -5 -144 -58 -144 -20 0 -49 25 -50 43 0 7
-2 23 -3 37 -4 31 10 71 29 86 22 17 64 5 82 -22z m1193 -24 c24 -24 26 -63 4
-84 -8 -9 -18 -16 -22 -17 -4 0 -15 -2 -24 -4 -52 -10 -81 72 -38 107 29 23
55 23 80 -2z m-392 -316 c15 -10 22 -25 22 -49 0 -28 -6 -37 -30 -50 -65 -34
-122 43 -70 95 24 24 48 25 78 4z m-1875 -141 c-16 -43 -68 -92 -100 -93 -18
0 -16 24 5 46 48 54 108 83 95 47z m597 -26 c0 -18 -49 -63 -150 -137 -103
-76 -199 -122 -260 -125 -79 -5 -88 13 -22 40 57 25 98 61 120 107 15 33 33
51 70 71 84 45 242 74 242 44z m2374 -80 c30 -31 24 -72 -13 -91 -62 -31 -116
34 -75 92 20 29 59 28 88 -1z m-4030 -140 c40 -29 -5 -76 -89 -95 -22 -5 -49
-6 -59 -2 -17 5 -16 9 10 39 31 38 81 71 105 71 8 0 23 -6 33 -13z m356 -37
c40 -40 17 -101 -39 -102 -59 -2 -86 74 -39 106 30 21 54 20 78 -4z m1828 -43
c20 -13 14 -62 -12 -90 -65 -70 -193 -77 -171 -8 9 29 55 72 100 92 41 18 60
20 83 6z m1833 3 c43 -24 12 -92 -50 -111 -52 -16 -87 1 -70 34 14 26 45 57
74 74 26 15 24 14 46 3z m-1521 -36 c0 -22 -73 -94 -95 -94 -30 0 -12 43 33
77 49 37 62 41 62 17z m286 -60 c7 -36 -8 -84 -25 -84 -20 0 -61 51 -61 75 0
14 9 34 20 45 28 28 57 12 66 -36z m228 -16 c-58 -69 -193 -181 -256 -214 -65
-34 -6 27 145 149 103 84 151 111 111 65z m-1634 -45 c0 -13 -41 -56 -100
-104 -85 -70 -114 -85 -156 -80 -12 1 -15 23 -8 67 5 38 55 68 164 101 82 24
100 27 100 16z m-430 -43 c28 -28 26 -75 -5 -105 -26 -27 -60 -32 -100 -13
-48 22 -27 89 40 123 38 19 41 19 65 -5z m-326 -260 c-28 -47 -134 -116 -134
-87 0 23 111 117 137 117 11 0 11 -6 -3 -30z m-1302 -98 c-78 -170 -189 -282
-208 -208 -7 30 15 79 59 128 38 43 149 128 159 122 4 -3 -1 -21 -10 -42z
m928 -189 c0 -5 -9 -22 -20 -40 -24 -40 -77 -70 -94 -53 -8 9 1 23 37 56 45
40 77 56 77 37z m786 -68 c29 -19 26 -44 -9 -62 -23 -11 -35 -12 -54 -4 -26
12 -48 52 -40 74 7 18 72 13 103 -8z m-686 -215 c24 -24 25 -48 5 -77 -35 -49
-108 -25 -108 36 0 55 63 81 103 41z m1879 -16 c38 -48 7 -148 -76 -245 -200
-236 -353 -344 -353 -250 0 36 45 99 135 187 87 84 110 124 97 163 -17 48 28
117 103 155 43 23 71 20 94 -10z m-592 -6 c19 -15 -5 -64 -48 -99 -42 -33 -76
-43 -98 -30 -19 12 -9 95 14 121 25 27 101 32 132 8z m-2869 -134 c23 -16 29
-48 12 -59 -37 -23 -120 -14 -120 13 1 50 64 77 108 46z m1172 -93 c0 -32
-133 -91 -218 -96 -68 -5 -85 1 -72 25 9 17 127 65 180 73 50 8 110 7 110 -2z
m388 -20 c21 -27 11 -73 -20 -91 -25 -13 -31 -13 -55 0 -30 17 -38 38 -29 74
11 44 75 54 104 17z m-1320 -177 c37 -26 22 -101 -21 -105 -50 -5 -77 17 -77
62 0 29 31 59 60 59 9 0 26 -7 38 -16z m1242 -126 c26 -29 25 -54 -4 -83 -30
-30 -75 -22 -94 18 -31 64 49 117 98 65z m-1670 -146 c26 -21 30 -67 9 -87
-26 -25 -55 -26 -82 -4 -32 25 -34 57 -7 87 25 27 50 28 80 4z m944 -14 c-9
-30 -33 -57 -66 -74 -57 -30 -66 -5 -15 43 56 53 93 67 81 31z m626 -46 c0 -4
-11 -23 -24 -43 -24 -35 -80 -68 -93 -55 -12 12 19 53 60 79 42 28 57 33 57
19z m1470 -9 c0 -18 -48 -74 -75 -87 -63 -31 -51 20 16 70 32 23 59 31 59 17z
m-3413 -166 c35 -34 14 -90 -37 -102 -19 -5 -31 0 -49 19 -55 59 29 140 86 83z
m358 -41 c32 -43 -48 -140 -108 -130 -58 9 -62 59 -8 113 31 31 46 39 71 37
18 -1 38 -10 45 -20z m1182 -22 c65 -29 74 -77 23 -114 -41 -29 -75 -25 -115
13 -30 29 -40 53 -36 95 3 30 67 33 128 6z m926 -11 c23 -50 -51 -115 -109
-96 -44 15 -26 62 38 103 38 23 58 21 71 -7z m-608 -9 c27 -29 30 -41 16 -77
-10 -25 -41 -40 -60 -27 -28 17 -24 130 5 130 8 0 26 -12 39 -26z m243 -31 c8
-16 9 -57 4 -100 -5 -37 -82 12 -82 52 0 50 59 86 78 48z m-2144 -139 c28 -27
25 -92 -5 -117 -51 -41 -93 50 -49 106 25 31 33 33 54 11z m-286 -40 c35 -24
45 -59 27 -93 -23 -46 -92 -55 -145 -18 -44 30 -48 61 -11 98 34 34 91 40 129
13z m1556 -16 c8 -14 6 -26 -9 -54 -56 -104 -215 -144 -190 -47 7 30 74 99
109 113 32 14 78 7 90 -12z m295 -5 l22 -18 -25 -36 c-45 -66 -138 -106 -170
-74 -30 30 -13 81 37 111 62 37 104 42 136 17z m307 -34 c13 -12 24 -34 24
-47 0 -32 -63 -92 -96 -92 -68 0 -123 68 -100 124 7 18 23 33 37 37 43 13 110
2 135 -22z m-2290 -178 c19 -2 35 -50 24 -71 -16 -30 -73 -42 -230 -47 -122
-4 -148 -3 -158 10 -11 12 -7 20 25 46 47 39 94 49 128 27 31 -20 64 -20 93 0
40 28 73 42 90 39 9 -2 22 -4 28 -4z m934 -49 c43 -35 15 -112 -39 -112 -26 0
-61 38 -61 65 0 24 41 65 65 65 7 0 23 -8 35 -18z m1280 -22 c11 -6 16 -17 14
-28 -15 -55 -256 -253 -280 -229 -8 7 66 139 104 186 58 71 115 96 162 71z
m518 -45 c54 -11 63 -57 15 -76 -35 -13 -66 -2 -84 30 -19 32 -8 65 19 57 9
-2 32 -7 50 -11z"/>
<path d="M10680 15869 c-14 -12 -42 -34 -62 -51 -20 -16 -46 -37 -56 -46 -11
-10 -43 -37 -72 -62 -61 -51 -54 -46 -375 -331 -277 -246 -536 -478 -550 -493
-5 -6 -48 -45 -95 -86 -46 -41 -94 -84 -106 -95 -11 -11 -53 -49 -93 -85 -41
-36 -79 -70 -85 -75 -6 -6 -67 -62 -136 -124 -69 -63 -145 -132 -170 -155 -25
-23 -90 -82 -145 -131 -54 -50 -111 -101 -125 -115 -14 -14 -48 -45 -75 -69
-56 -49 -198 -178 -249 -225 -18 -17 -75 -69 -126 -116 -120 -110 -195 -179
-406 -375 -346 -323 -651 -622 -642 -631 4 -3 13 -1 20 5 7 6 51 41 98 78 74
57 244 198 276 228 6 5 35 30 64 55 29 25 62 53 74 63 11 11 45 40 75 65 30
26 59 52 65 57 6 6 47 42 91 80 44 39 85 75 91 80 6 6 41 37 79 70 37 33 77
69 89 80 13 11 53 47 91 80 38 33 83 74 101 90 17 17 47 44 66 60 169 151 304
271 308 275 3 3 97 88 210 190 113 101 212 191 221 199 8 9 58 54 109 101 51
47 107 98 124 114 38 34 100 91 186 171 192 176 313 288 384 355 44 41 111
104 150 140 283 265 561 540 615 609 35 44 24 55 -19 20z"/>
<path d="M10740 15573 c-45 -31 -100 -86 -143 -142 -23 -31 -45 -58 -48 -61
-14 -12 -18 -40 -5 -40 17 0 121 73 170 118 47 45 96 110 96 129 0 18 -41 16
-70 -4z"/>
<path d="M15975 13100 c-38 -17 -88 -32 -110 -34 -39 -3 -53 1 -124 32 -62 27
-212 -6 -331 -72 -25 -14 -60 -33 -79 -43 -19 -9 -83 -54 -143 -98 -110 -82
-208 -137 -325 -181 -128 -48 -367 -180 -622 -343 -79 -50 -146 -91 -149 -91
-3 0 -13 -6 -21 -14 -23 -20 -110 -69 -227 -127 -81 -40 -114 -51 -162 -54
-53 -4 -94 -17 -112 -35 -3 -3 -18 -14 -33 -23 -128 -82 -682 -608 -856 -812
-90 -107 -154 -167 -230 -217 -82 -54 -99 -68 -160 -123 -116 -106 -189 -183
-406 -429 -88 -100 -188 -207 -290 -310 -105 -106 -144 -153 -214 -258 -52
-79 -121 -212 -121 -236 0 -23 -44 -74 -82 -93 -41 -21 -88 -25 -88 -8 0 7 18
41 41 76 22 36 38 67 35 70 -6 7 -120 -81 -165 -126 -48 -50 -63 -76 -86 -145
-22 -68 -37 -79 -124 -96 -121 -23 -201 -146 -201 -309 0 -36 -4 -72 -8 -79
-6 -8 -39 -14 -93 -17 -118 -5 -156 -22 -257 -114 -48 -44 -116 -103 -152
-131 -36 -29 -74 -59 -85 -68 -70 -57 -246 -180 -309 -215 -60 -34 -76 -34
-76 -2 0 18 9 29 32 41 33 17 148 132 148 148 0 27 -330 -231 -925 -723 -143
-119 -262 -218 -265 -221 -3 -3 -63 -55 -135 -115 -190 -160 -297 -255 -286
-255 6 0 12 4 15 9 10 16 174 121 222 142 50 22 53 22 59 -10 12 -63 -75 -175
-339 -436 -116 -115 -245 -248 -286 -295 -40 -47 -76 -87 -79 -90 -3 -3 -32
-37 -63 -76 -84 -105 -118 -163 -118 -200 0 -38 -4 -42 -56 -50 -84 -13 -241
-124 -412 -291 -121 -118 -179 -198 -161 -219 21 -25 72 -26 129 -4 88 35 93
35 86 -3 -12 -58 -45 -114 -76 -127 -30 -12 -100 -9 -199 10 -119 22 -194 5
-204 -47 -8 -43 6 -47 75 -23 76 28 111 23 133 -20 18 -35 48 -45 121 -37 112
12 218 82 262 175 59 126 129 76 87 -63 -8 -27 -13 -50 -12 -52 2 -1 20 9 40
22 55 38 103 107 173 253 35 72 68 132 74 132 6 0 22 -11 36 -25 33 -33 57
-45 82 -40 24 4 61 22 82 40 46 40 135 32 159 -14 15 -27 14 -66 -1 -78 -18
-14 -75 -32 -122 -38 -93 -11 -135 -41 -92 -65 19 -10 29 -9 52 2 32 16 43 17
62 5 16 -11 5 -31 -51 -87 -72 -73 -123 -118 -251 -223 -240 -197 -333 -294
-308 -319 15 -15 58 4 85 38 32 41 368 305 415 326 24 11 50 17 58 14 20 -8
18 -40 -5 -77 -15 -25 -17 -37 -9 -55 6 -13 16 -20 24 -17 15 6 74 97 74 115
0 6 18 48 39 93 39 80 106 164 132 166 8 0 22 2 31 4 17 3 32 -20 23 -35 -13
-22 -15 -78 -2 -88 31 -26 85 50 146 203 81 206 93 381 28 393 -24 5 -45 -43
-29 -69 28 -44 7 -79 -64 -110 -74 -33 -201 -29 -264 8 -38 22 -53 49 -40 73
13 24 30 29 115 31 94 3 119 16 136 76 33 114 179 181 193 88 6 -39 25 -23 79
68 88 147 175 233 198 196 26 -43 -84 -273 -170 -353 -39 -37 -39 -56 -1 -94
44 -45 39 -63 -42 -152 -27 -28 -48 -52 -48 -54 0 -1 28 -4 63 -6 34 -1 73 -4
87 -5 14 -1 53 -3 88 -4 34 0 62 -4 62 -8 0 -5 -22 -24 -47 -43 -26 -19 -51
-40 -57 -45 -6 -6 -36 -30 -66 -54 -138 -107 -219 -207 -205 -251 13 -42 -65
-140 -112 -140 -23 0 -30 9 -75 90 -15 27 -20 29 -38 20 -28 -15 -68 -78 -73
-115 -2 -16 2 -45 9 -63 18 -45 6 -68 -81 -152 -85 -82 -66 -66 -236 -207
-203 -169 -238 -212 -186 -229 98 -31 247 53 247 141 0 15 12 44 27 64 103
136 418 377 468 358 22 -9 18 -49 -10 -91 -13 -20 -22 -36 -18 -36 27 0 191
162 199 197 4 16 -2 32 -20 54 -26 30 -30 47 -27 104 3 61 99 217 143 230 27
9 63 -17 93 -69 21 -36 24 -48 15 -71 -9 -24 -15 -26 -43 -22 -17 3 -43 8 -55
12 -24 8 -24 7 -9 -22 9 -17 33 -45 53 -62 28 -25 42 -31 62 -26 66 16 116 93
100 153 -7 26 -6 37 4 43 22 15 95 10 112 -7 14 -14 14 -19 1 -51 -9 -20 -29
-58 -45 -85 -17 -27 -30 -52 -30 -57 0 -4 50 -7 111 -5 161 4 207 12 293 49
38 16 88 13 112 -6 39 -31 120 -5 147 48 14 27 14 42 3 89 -8 29 1 34 71 39
71 5 168 51 272 129 41 31 78 56 83 56 5 0 -9 -21 -31 -47 -46 -55 -67 -101
-52 -116 20 -20 68 7 141 81 102 105 114 111 188 107 44 -3 63 0 72 10 20 24
-12 62 -62 76 -102 27 -104 31 -59 130 16 35 31 82 34 104 2 22 8 48 12 57 8
20 82 58 112 58 21 0 50 -27 48 -45 -3 -32 -23 -66 -66 -113 -48 -52 -65 -102
-36 -102 41 0 236 157 391 315 103 105 152 175 142 201 -9 25 24 83 57 100 24
13 34 14 52 4 17 -9 29 -9 58 3 71 30 185 117 336 254 35 33 34 56 -2 49 -30
-6 -87 -15 -119 -20 -33 -5 -42 6 -34 39 15 57 112 105 246 120 109 12 215 56
292 123 50 44 110 79 159 93 64 18 66 24 20 53 -44 28 -64 71 -40 87 8 6 31 8
52 5 51 -6 117 29 250 133 136 105 242 161 330 175 72 12 174 73 378 228 93
70 324 251 409 321 9 6 47 37 85 68 81 65 1000 815 1030 841 11 9 135 112 275
228 140 117 275 228 299 248 24 21 57 48 74 62 168 139 715 608 826 709 123
111 154 143 190 194 60 88 27 67 -304 -192 -88 -69 -198 -157 -245 -196 -109
-91 -130 -105 -157 -105 -18 0 -23 6 -23 25 0 31 87 121 148 154 38 20 156
114 200 160 43 43 78 99 69 107 -3 3 -49 -18 -102 -46 -54 -28 -100 -48 -103
-46 -3 3 17 25 44 48 27 23 90 83 140 133 107 106 137 161 183 339 41 158 86
249 164 331 67 72 87 102 80 121 -10 27 63 128 192 264 141 148 169 189 154
227 -4 12 -17 27 -28 33 -12 6 -28 25 -37 42 -18 35 -14 67 17 146 12 29 19
55 16 58 -3 3 -52 -34 -109 -83 -207 -178 -389 -295 -416 -269 -22 23 110 169
296 326 55 47 101 88 101 92 1 3 -77 -45 -171 -109 -95 -63 -177 -117 -183
-120 -5 -3 29 34 77 83 207 212 248 263 248 315 0 11 -9 34 -20 49 -34 47 -36
107 -6 165 34 65 33 76 -1 66 -62 -18 -109 -44 -200 -108 -151 -107 -190 -127
-214 -112 -24 14 15 70 109 156 244 223 292 278 292 338 0 37 -33 65 -77 65
-21 0 -69 -14 -108 -30z m-368 -632 c33 -44 -45 -138 -113 -138 -47 0 -56 11
-38 45 16 31 38 53 89 86 35 22 49 24 62 7z m-381 -315 c-52 -49 -86 -66 -86
-44 0 5 19 25 43 45 66 55 81 65 91 58 5 -3 -16 -29 -48 -59z m-1741 -1504
c-22 -22 -67 -58 -99 -80 -71 -47 -109 -50 -114 -7 -3 23 4 29 55 54 80 38
165 72 183 73 8 1 -3 -17 -25 -40z m-5 -118 c0 -14 -97 -98 -120 -104 -11 -3
-20 -2 -20 2 0 15 114 110 133 111 4 0 7 -4 7 -9z m-255 -208 c-15 -41 -75
-140 -97 -160 -22 -21 -26 -21 -45 -8 -38 27 -13 71 80 146 53 42 73 49 62 22z
m1799 -175 c13 -22 1 -36 -39 -43 -18 -4 -37 -1 -48 7 -16 12 -16 15 -1 36 19
27 71 27 88 0z m-2828 -580 c6 -7 9 -19 8 -25 -1 -7 -2 -17 -3 -23 0 -5 -10
-14 -21 -20 -24 -13 -54 0 -70 30 -9 16 -6 25 15 45 26 27 48 24 71 -7z m-502
-20 c21 -30 4 -48 -46 -48 -48 0 -62 24 -29 52 31 24 56 23 75 -4z m-59 -162
c21 -32 10 -56 -26 -56 -31 0 -79 19 -79 31 0 4 -3 14 -6 22 -3 9 4 25 15 36
20 20 23 20 51 6 16 -8 37 -26 45 -39z m254 5 c25 -25 17 -59 -16 -74 -45 -20
-85 31 -57 72 19 26 48 27 73 2z m213 -23 c20 -20 20 -22 3 -35 -11 -7 -36
-13 -57 -13 -31 0 -38 4 -38 19 0 20 35 51 57 51 7 0 23 -10 35 -22z m442
-219 c29 -42 -12 -92 -58 -71 -20 9 -26 19 -26 41 0 49 56 69 84 30z m-1001
-189 c-2 -24 -9 -51 -17 -59 -24 -23 -116 -17 -116 8 0 24 96 103 119 99 12
-3 15 -14 14 -48z m494 14 c12 -18 11 -24 -4 -43 -20 -24 -55 -34 -89 -25 -36
9 -37 33 -4 65 35 35 75 36 97 3z m-276 -13 c3 -44 -15 -88 -41 -96 -46 -15
-75 36 -46 81 28 42 85 52 87 15z m1970 -74 c11 -20 -1 -66 -18 -68 -5 0 -16
-2 -26 -4 -19 -4 -47 30 -47 57 0 23 36 47 61 41 11 -3 24 -15 30 -26z m-2506
-103 c43 -43 -19 -110 -65 -69 -24 22 -25 42 -3 67 20 22 46 23 68 2z m2165
-68 c0 -21 -41 -63 -67 -71 -39 -11 -27 22 19 55 47 35 48 35 48 16z m-2467
-145 c29 -28 9 -108 -30 -117 -31 -8 -51 11 -53 51 -3 45 -1 52 16 70 15 15
48 13 67 -4z m948 -21 c22 -12 26 -59 7 -78 -16 -16 -53 -15 -67 2 -22 26 -21
55 2 71 25 18 32 18 58 5z m-304 -258 c23 -15 20 -63 -7 -80 -24 -15 -66 1
-73 29 -10 39 43 74 80 51z m-1523 -153 c-26 -28 -64 -39 -64 -20 0 5 19 26
43 46 34 29 43 33 45 20 2 -9 -9 -30 -24 -46z m506 23 c0 -5 -17 -24 -37 -43
-135 -122 -296 -200 -335 -161 -7 7 3 16 33 30 48 21 69 41 90 86 16 34 82 72
149 85 60 12 100 13 100 3z m1899 -85 c7 -16 4 -28 -10 -43 -39 -42 -100 0
-76 53 18 40 70 33 86 -10z m-3213 -102 c12 -31 -37 -64 -103 -69 -42 -4 -42
9 3 50 38 37 90 46 100 19z m276 -22 c22 -20 23 -41 1 -65 -20 -22 -46 -23
-67 -2 -30 29 -9 84 31 84 9 0 25 -7 35 -17z m1456 -36 c35 -23 -17 -98 -76
-110 -92 -19 -95 55 -4 102 38 20 57 22 80 8z m1470 -19 c4 -33 -32 -68 -70
-68 -45 0 -47 28 -6 66 42 38 72 39 76 2z m-1235 -28 c-19 -32 -54 -55 -75
-48 -9 4 1 19 30 47 48 46 72 46 45 1z m225 11 c12 -7 17 -37 13 -83 -2 -26
-26 -22 -50 8 -19 25 -19 45 2 72 11 14 17 15 35 3z m166 -82 c-56 -58 -194
-161 -194 -145 0 19 218 202 228 191 3 -3 -12 -24 -34 -46z m-1309 -47 c-65
-63 -124 -102 -152 -102 -19 0 -23 5 -23 33 0 20 8 41 18 51 22 19 147 64 182
65 23 1 21 -3 -25 -47z m-302 10 c17 -15 15 -65 -4 -88 -16 -20 -73 -17 -91 4
-20 22 -9 52 28 79 31 23 44 23 67 5z m-253 -189 c0 -22 -82 -93 -107 -93 -22
0 -2 30 45 66 44 34 62 41 62 27z m-1042 -90 c-7 -16 -31 -58 -54 -95 -63 -98
-114 -125 -114 -59 0 40 31 78 130 160 37 30 52 28 38 -6z m706 -204 c-15 -16
-36 -29 -46 -29 -32 0 -21 21 32 63 29 22 36 24 38 11 2 -9 -9 -29 -24 -45z
m665 -14 c13 -13 13 -17 1 -29 -27 -26 -61 -23 -83 6 -11 14 -16 31 -12 38 10
16 73 6 94 -15z m-555 -168 c29 -43 -11 -92 -59 -73 -33 12 -31 80 3 89 34 9
42 7 56 -16z m1487 3 c27 -15 25 -79 -5 -138 -47 -93 -255 -292 -305 -292 -48
0 -2 103 75 165 62 51 95 103 88 141 -8 41 7 67 58 104 44 32 59 36 89 20z
m-468 -9 c4 0 7 -11 7 -24 0 -45 -96 -111 -120 -83 -10 13 -6 68 6 88 12 19
60 27 107 19z m-2282 -111 c23 -13 25 -46 3 -54 -42 -16 -96 -2 -86 22 13 37
48 50 83 32z m928 -86 c-25 -30 -136 -73 -179 -68 -8 0 -23 2 -32 2 -28 3 -21
17 21 40 45 26 100 40 160 41 38 1 42 -1 30 -15z m304 4 c40 -29 22 -88 -27
-88 -29 0 -46 18 -46 50 0 18 8 31 23 38 29 14 30 14 50 0z m-1042 -148 c22
-12 26 -59 7 -78 -20 -20 -56 -14 -74 13 -15 23 -15 27 0 50 18 27 36 31 67
15z m1004 -120 c14 -45 -36 -80 -75 -53 -28 20 -23 63 9 80 29 14 57 3 66 -27z
m-1337 -102 c7 -7 12 -21 12 -32 -1 -63 -83 -70 -95 -9 -7 42 53 71 83 41z
m742 -19 c-15 -32 -57 -62 -77 -55 -14 6 -14 9 3 28 20 22 76 59 81 54 2 -2
-1 -14 -7 -27z m500 -31 c-1 -25 -58 -78 -84 -78 -18 0 -1 33 31 59 41 34 53
38 53 19z m1170 -10 c0 -19 -52 -68 -72 -68 -27 0 -22 14 17 49 38 33 55 39
55 19z m-2716 -124 c25 -24 20 -63 -8 -76 -31 -14 -53 -5 -68 27 -21 46 40 86
76 49z m277 -24 c27 -15 24 -52 -8 -82 -36 -32 -69 -41 -88 -21 -28 27 -13 73
33 97 33 18 38 19 63 6z m942 -23 c66 -28 73 -77 14 -102 -27 -11 -36 -11 -60
1 -34 18 -52 54 -43 88 7 30 37 34 89 13z m276 -40 c14 -36 -25 -85 -49 -61
-14 14 -18 57 -9 82 7 19 12 21 29 12 12 -6 25 -21 29 -33z m474 29 c14 -37
-47 -91 -91 -79 -30 7 -28 26 9 62 32 32 73 41 82 17z m-292 -35 c0 -3 2 -15
5 -26 6 -28 -4 -65 -18 -65 -20 0 -48 32 -48 56 0 28 26 55 45 48 8 -4 15 -9
16 -13z m-1697 -133 c19 -54 -31 -103 -64 -63 -13 16 -6 60 12 83 17 20 41 10
52 -20z m-231 -16 c36 -43 19 -87 -38 -96 -37 -7 -95 25 -95 51 1 27 25 53 57
62 34 9 57 4 76 -17z m1229 0 c18 -18 -10 -70 -55 -103 -88 -64 -145 -10 -70
66 47 47 99 63 125 37z m248 -23 c0 -36 -82 -99 -129 -99 -43 0 -40 67 4 96
50 33 125 34 125 3z m238 -16 c19 -26 14 -57 -13 -83 -34 -32 -83 -30 -112 5
-50 57 -14 111 67 101 25 -4 51 -14 58 -23z m-1818 -153 c30 -30 12 -55 -47
-69 -62 -15 -212 -20 -242 -9 l-24 8 22 24 c38 40 74 50 110 31 31 -15 34 -15
84 9 64 31 72 31 97 6z m742 -34 c12 -17 9 -51 -4 -64 -13 -13 -47 -16 -64 -4
-24 15 -26 50 -4 72 22 22 57 20 72 -4z m1019 -17 c14 -23 -32 -74 -142 -157
-50 -38 -79 -51 -79 -37 0 12 43 89 71 129 16 22 43 50 59 62 32 23 78 24 91
3z m422 -34 c41 -17 2 -70 -44 -58 -21 6 -44 47 -34 63 7 11 43 9 78 -5z"/>
<path d="M13845 12589 c-65 -55 -150 -128 -188 -162 -39 -34 -78 -69 -89 -78
-22 -20 -156 -139 -172 -154 -6 -6 -74 -66 -151 -135 -77 -69 -164 -147 -194
-175 -30 -27 -67 -61 -82 -75 -15 -14 -44 -40 -65 -59 -36 -32 -215 -193 -240
-216 -25 -23 -191 -175 -215 -196 -14 -13 -61 -56 -105 -95 -43 -40 -91 -82
-105 -95 -106 -97 -208 -191 -230 -210 -14 -13 -72 -67 -129 -119 -57 -52
-131 -120 -164 -151 -34 -31 -73 -67 -87 -80 -142 -129 -493 -469 -518 -501
-23 -30 2 -20 50 20 25 20 65 53 89 72 61 48 333 280 345 294 6 6 55 50 110
97 55 47 114 99 131 115 17 16 47 43 66 59 36 31 183 162 202 181 12 11 194
174 235 209 12 11 38 34 55 50 47 43 206 187 226 205 10 8 59 53 110 100 51
47 102 93 114 103 11 10 65 60 120 110 54 51 107 99 116 107 26 23 233 215
329 305 422 398 575 554 560 570 -3 2 -58 -41 -124 -96z"/>
<path d="M6897 12444 c-63 -46 -122 -107 -109 -112 30 -10 172 104 172 138 0
16 -12 11 -63 -26z"/>
<path d="M13974 12422 c-39 -29 -104 -101 -139 -156 l-19 -29 24 8 c29 9 122
79 162 121 32 35 47 84 26 84 -8 0 -33 -13 -54 -28z"/>
<path d="M6570 12175 c-46 -33 -133 -116 -127 -121 3 -3 17 -2 31 2 30 7 146
112 146 132 0 17 -10 14 -50 -13z"/>
<path d="M6189 11849 c-109 -79 -277 -225 -268 -234 7 -7 96 53 172 114 83 68
153 138 145 146 -2 3 -25 -9 -49 -26z"/>
<path d="M6196 11391 c-43 -44 -31 -61 44 -61 47 0 75 23 60 50 -22 42 -70 47
-104 11z"/>
<path d="M5658 11357 c-72 -55 -80 -145 -11 -121 48 17 109 154 69 154 -8 0
-34 -15 -58 -33z"/>
<path d="M5085 10849 c-22 -16 -47 -35 -55 -42 -9 -7 -45 -34 -80 -61 -72 -55
-602 -477 -610 -486 -3 -3 -32 -28 -65 -55 -240 -199 -474 -415 -475 -437 0
-10 47 8 90 35 88 54 267 203 450 374 86 80 209 180 281 228 61 41 72 45 140
48 59 3 85 9 121 31 69 40 97 81 95 142 -2 41 4 57 32 98 19 27 41 57 50 66 9
9 32 33 50 53 42 44 31 47 -24 6z"/>
<path d="M18820 10789 c-68 -31 -127 -34 -178 -11 -84 38 -234 -8 -390 -118
-142 -101 -207 -140 -279 -169 -150 -61 -349 -170 -573 -313 -232 -148 -353
-208 -421 -208 -38 0 -116 -46 -189 -111 -19 -17 -69 -61 -110 -97 -145 -130
-404 -385 -466 -462 -63 -75 -163 -168 -229 -212 -92 -62 -214 -182 -400 -393
-92 -104 -157 -174 -273 -293 -94 -97 -200 -249 -234 -337 -27 -73 -53 -102
-104 -120 -52 -18 -55 -4 -13 64 18 28 30 53 27 56 -7 8 -133 -100 -159 -136
-13 -18 -31 -53 -39 -78 -16 -49 -36 -64 -110 -82 -90 -22 -153 -127 -149
-247 1 -29 -1 -55 -4 -59 -4 -3 -42 -9 -84 -13 -85 -7 -127 -25 -176 -72 -29
-28 -183 -158 -239 -201 -64 -51 -247 -167 -261 -167 -32 0 -17 25 48 83 84
75 107 113 41 68 -54 -37 -356 -275 -471 -370 -540 -449 -778 -651 -769 -651
3 0 28 16 54 35 62 45 160 96 171 89 23 -14 -1 -76 -59 -154 -15 -19 -105
-114 -202 -210 -275 -275 -431 -461 -434 -520 -2 -36 -7 -42 -47 -46 -63 -8
-214 -117 -348 -254 -90 -91 -124 -146 -101 -160 23 -15 54 -12 109 10 28 11
52 16 55 11 7 -11 -13 -74 -33 -99 -21 -28 -62 -32 -159 -17 -131 21 -191 6
-192 -47 0 -22 36 -24 65 -5 39 25 73 21 104 -14 36 -39 84 -45 155 -18 75 28
112 59 147 121 35 62 60 74 79 38 10 -19 4 -63 -18 -118 -5 -15 -2 -15 23 2
48 32 104 112 158 229 19 41 40 78 47 82 7 4 23 -4 39 -19 34 -33 71 -33 119
-1 61 41 120 30 137 -26 11 -34 -22 -58 -104 -73 -80 -15 -103 -28 -83 -48 8
-8 21 -9 44 -1 37 11 58 7 58 -11 0 -14 -120 -132 -205 -202 -33 -27 -62 -51
-65 -54 -3 -3 -27 -23 -54 -45 -81 -64 -167 -156 -164 -173 5 -28 28 -24 59 9
54 58 312 258 347 270 49 16 62 0 38 -46 -18 -33 -17 -65 2 -65 17 0 20 6 102
174 39 80 82 126 118 126 23 0 24 -2 18 -45 -6 -36 -4 -46 9 -51 22 -9 37 7
73 78 92 180 123 398 56 398 -21 0 -28 -25 -16 -60 9 -26 8 -34 -11 -56 -64
-74 -287 -54 -287 26 0 23 21 31 99 36 74 4 93 17 110 74 8 27 23 48 49 65 48
32 79 32 94 0 6 -14 14 -25 18 -25 4 0 30 37 58 83 71 117 152 186 152 131 0
-28 -41 -136 -67 -177 -15 -23 -44 -61 -65 -85 -31 -34 -37 -46 -29 -61 6 -10
17 -21 26 -25 35 -13 13 -64 -62 -144 -18 -19 -18 -19 35 -20 59 -2 186 -13
189 -16 1 -1 -46 -40 -104 -86 -141 -114 -193 -171 -193 -217 0 -43 -24 -85
-60 -107 -37 -21 -54 -13 -75 35 -23 51 -47 51 -81 -1 -26 -39 -28 -59 -9
-115 8 -28 -47 -94 -146 -176 -30 -24 -56 -46 -59 -49 -3 -3 -34 -30 -70 -60
-168 -142 -180 -162 -104 -173 72 -11 158 47 169 115 5 30 22 54 73 107 109
111 272 231 315 231 24 0 21 -35 -5 -79 l-23 -36 40 32 c51 40 135 129 135
143 0 6 -10 24 -22 40 -29 39 -27 86 6 153 26 53 80 117 99 117 18 0 77 -72
77 -93 0 -42 -15 -52 -54 -40 -30 9 -36 9 -36 -4 0 -8 13 -28 29 -44 40 -40
81 -39 115 2 28 33 29 36 30 89 1 33 3 35 39 38 74 6 77 -16 18 -116 -19 -32
-26 -52 -18 -53 93 -6 227 7 282 28 60 22 83 23 128 7 37 -13 44 -13 76 4 39
21 52 51 40 95 -9 32 -8 32 66 42 54 7 129 45 211 106 59 46 79 51 42 12 -35
-38 -58 -86 -49 -102 13 -20 57 8 121 74 67 68 93 83 143 78 22 -3 45 1 53 8
13 10 12 15 -7 36 -13 12 -30 23 -40 23 -10 0 -30 5 -44 12 -30 14 -32 41 -5
86 11 17 23 51 26 75 4 23 13 52 20 64 21 33 111 52 115 24 0 -3 2 -14 4 -23
3 -16 -14 -43 -77 -121 -32 -39 -13 -52 37 -26 48 26 122 87 229 189 112 107
156 165 156 204 0 56 64 107 96 77 13 -13 75 19 158 83 79 61 180 155 173 162
-2 3 -36 -1 -76 -7 -39 -7 -74 -9 -78 -5 -4 4 1 22 11 41 22 40 84 70 166 80
111 13 182 41 255 100 58 47 107 75 132 75 36 0 35 16 -3 54 -31 31 -34 39
-23 52 9 11 22 14 42 10 35 -7 102 25 178 86 117 95 195 138 288 159 58 13
136 58 276 162 61 45 112 84 115 87 3 3 45 37 93 75 124 98 601 484 652 527
19 16 327 269 424 348 24 19 48 40 55 45 21 20 203 170 241 200 21 17 43 35
49 40 6 6 126 107 266 225 270 228 304 256 329 280 9 9 50 45 91 80 149 129
215 192 251 243 24 33 7 37 -31 8 -14 -11 -65 -50 -115 -87 -80 -60 -178 -139
-353 -281 -53 -43 -75 -52 -87 -33 -8 13 18 60 45 83 13 11 59 45 104 78 44
32 92 69 106 81 36 33 84 98 77 104 -3 4 -43 -13 -88 -36 -84 -43 -92 -39 -30
14 81 68 171 166 194 212 23 45 43 107 53 159 7 42 45 140 68 179 13 23 47 65
75 93 38 39 51 61 51 82 0 30 44 93 126 181 101 108 117 127 135 155 25 40 24
49 -12 83 -39 36 -42 83 -10 155 11 26 18 47 14 47 -3 0 -38 -28 -78 -62 -173
-150 -319 -247 -341 -225 -17 17 55 102 186 217 141 124 144 130 35 57 -211
-141 -211 -141 -93 -21 168 171 179 191 145 257 -25 48 -24 84 3 136 l20 41
-23 0 c-31 0 -106 -40 -188 -101 -179 -132 -210 -84 -43 68 133 120 158 145
189 186 69 93 2 149 -115 96z m-294 -531 c-4 -18 -17 -43 -29 -55 -28 -27 -82
-36 -98 -17 -10 12 -3 23 35 59 31 30 55 45 72 45 25 0 26 -2 20 -32z m-277
-195 c-31 -39 -99 -83 -99 -64 0 14 86 81 103 81 5 0 3 -8 -4 -17z m-1439
-1245 c-30 -27 -70 -57 -89 -65 -30 -13 -36 -13 -50 1 -14 15 -14 18 2 33 16
17 162 82 182 82 6 0 -15 -23 -45 -51z m10 -88 c-11 -21 -87 -76 -94 -69 -7 6
16 32 54 62 42 32 55 34 40 7z m-203 -172 c-27 -65 -66 -118 -87 -118 -52 0
-26 65 50 123 25 19 46 34 48 32 2 -2 -3 -18 -11 -37z m1427 -104 c19 -7 21
-40 4 -46 -24 -8 -61 -3 -65 8 -4 12 23 44 37 44 5 0 15 -3 24 -6z m-2238
-480 c12 -17 12 -23 1 -39 -20 -26 -67 -13 -67 18 0 47 41 60 66 21z m-395
-10 c11 -14 10 -18 -6 -30 -21 -16 -44 -18 -64 -5 -11 7 -9 13 8 30 25 25 44
27 62 5z m-54 -122 c7 -9 12 -26 10 -37 -2 -16 -8 -19 -32 -17 -16 2 -38 12
-49 22 -15 15 -16 21 -6 40 9 17 17 20 38 15 14 -3 32 -14 39 -23z m213 -11
c20 -38 -13 -71 -51 -51 -20 11 -23 27 -13 54 9 22 51 20 64 -3z m168 -29 c-4
-20 -55 -29 -72 -12 -18 19 30 53 56 39 10 -6 18 -18 16 -27z m336 -148 c24
-9 21 -61 -5 -69 -42 -13 -71 43 -35 67 13 9 20 10 40 2z m-784 -159 c0 -42
-29 -65 -73 -58 -18 3 -34 6 -35 8 -13 13 83 99 99 89 5 -3 9 -20 9 -39z m392
11 c11 -16 10 -23 -8 -40 -33 -34 -110 -9 -81 26 28 35 70 42 89 14z m-224 -3
c12 -25 1 -63 -25 -80 -18 -12 -23 -12 -37 2 -22 23 -20 38 10 69 31 31 40 32
52 9z m1575 -73 c7 -28 -15 -52 -44 -48 -17 2 -25 10 -27 27 -7 46 60 64 71
21z m-1988 -90 c8 -27 -5 -50 -29 -50 -35 0 -49 15 -42 43 9 39 59 44 71 7z
m1715 -40 c0 -14 -46 -60 -60 -60 -22 0 -9 29 23 49 38 24 37 24 37 11z
m-1964 -125 c14 -21 14 -30 4 -56 -10 -24 -18 -29 -39 -27 -22 3 -26 8 -29 41
-5 64 33 89 64 42z m771 -32 c2 -5 -4 -19 -14 -31 -14 -16 -23 -18 -40 -12
-27 11 -30 42 -7 65 14 14 19 14 37 2 12 -7 22 -18 24 -24z m-263 -179 c32
-12 13 -73 -21 -68 -7 1 -17 2 -22 3 -14 2 -19 36 -9 55 9 17 26 20 52 10z
m-1184 -93 c0 -5 -14 -21 -32 -36 -23 -19 -34 -23 -37 -14 -2 7 8 23 23 36 28
24 46 29 46 14z m379 -10 c11 -2 -49 -57 -104 -95 -75 -53 -124 -76 -164 -76
-35 0 -42 15 -11 25 29 9 80 54 80 70 0 30 131 88 180 79 8 -1 17 -3 19 -3z
m1499 -50 c18 -11 11 -51 -10 -65 -14 -8 -22 -6 -37 9 -35 37 4 84 47 56z
m-2538 -111 c0 -14 -42 -39 -79 -46 -29 -6 -33 -4 -29 12 5 29 66 66 89 53 11
-5 19 -14 19 -19z m225 -20 c3 -5 1 -19 -5 -30 -16 -31 -64 -24 -68 9 -7 45
49 61 73 21z m1150 -39 c0 -41 -76 -82 -109 -58 -22 16 -14 36 27 65 42 29 82
26 82 -7z m1169 13 c9 -24 -39 -67 -67 -58 -33 10 -33 12 -2 44 31 33 60 39
69 14z m-974 -14 c0 -13 -41 -50 -57 -50 -19 0 -16 10 9 37 22 23 48 31 48 13z
m178 -43 c3 -32 0 -37 -17 -37 -22 0 -38 38 -27 66 12 30 41 11 44 -29z m152
8 c0 -17 -154 -145 -175 -145 -14 0 10 23 87 85 78 64 88 70 88 60z m-1040
-40 c0 -3 -19 -22 -41 -43 -90 -81 -132 -94 -127 -40 2 25 10 37 33 48 57 28
135 49 135 35z m-264 -39 c9 -36 -12 -66 -45 -66 -38 0 -56 22 -42 49 24 44
77 54 87 17z m-238 -171 c-21 -19 -46 -35 -55 -35 -13 1 -8 10 21 35 53 47 84
46 34 0z m-803 -37 c-17 -57 -89 -148 -117 -148 -41 0 -16 58 55 122 58 53 72
59 62 26z m571 -153 c-25 -39 -65 -49 -51 -14 6 16 57 50 64 44 2 -3 -4 -16
-13 -30z m522 -32 c4 -29 -34 -37 -59 -12 -24 24 -24 36 -1 41 28 7 57 -8 60
-29z m-454 -113 c24 -9 28 -32 11 -60 -16 -25 -65 -2 -65 30 0 13 18 40 26 40
2 0 14 -4 28 -10z m1207 -21 c24 -46 -14 -116 -127 -230 -77 -79 -130 -112
-144 -90 -13 22 11 61 80 130 62 62 63 66 60 114 -1 21 8 37 35 63 42 39 79
44 96 13z m-382 2 c19 -12 -1 -47 -41 -71 -36 -22 -58 -16 -58 14 0 51 56 84
99 57z m-1815 -87 c9 -8 16 -20 16 -25 0 -14 -49 -22 -72 -12 l-22 9 22 22
c26 26 35 27 56 6z m741 -56 c20 -20 -142 -76 -172 -60 -23 13 3 31 72 50 70
19 89 21 100 10z m243 -10 c28 -28 1 -75 -37 -63 -25 8 -34 31 -21 56 12 21
40 25 58 7z m-834 -114 c25 -9 20 -53 -6 -63 -29 -11 -46 -4 -53 20 -11 35 20
58 59 43z m793 -90 c19 -30 -4 -59 -40 -50 -32 8 -38 49 -9 65 22 13 32 10 49
-15z m-1057 -89 c23 -28 -9 -72 -45 -59 -36 14 -24 74 15 74 10 0 23 -7 30
-15z m588 -14 c-14 -23 -55 -47 -64 -38 -9 9 42 57 61 57 13 0 13 -3 3 -19z
m386 -46 c-16 -24 -50 -42 -61 -31 -8 7 59 66 69 60 4 -3 1 -16 -8 -29z m946
17 c0 -18 -55 -61 -68 -53 -10 6 -5 15 18 35 32 26 50 33 50 18z m-2158 -106
c15 -21 8 -43 -16 -54 -20 -9 -27 -7 -40 7 -20 22 -20 30 0 52 16 18 42 15 56
-5z m226 -32 c4 -30 -28 -64 -63 -67 -26 -2 -30 2 -33 24 -6 52 89 94 96 43z
m768 -15 c32 -27 4 -69 -45 -69 -26 0 -34 6 -48 36 -17 34 -17 37 0 49 20 14
67 6 93 -16z m194 -29 c0 -21 -25 -44 -38 -36 -15 9 -20 40 -10 65 8 23 9 23
28 6 11 -10 20 -26 20 -35z m373 31 c9 -37 -69 -82 -87 -52 -9 14 43 71 64 71
10 0 20 -9 23 -19z m-235 -24 c9 -11 8 -65 -2 -74 -1 -1 -12 4 -24 13 -24 17
-29 43 -10 62 15 15 23 15 36 -1z m-1349 -99 c16 -45 -13 -84 -44 -58 -15 12
-15 30 0 63 10 24 34 21 44 -5z m-183 -23 c20 -20 23 -29 14 -45 -6 -11 -21
-22 -33 -25 -25 -7 -71 8 -82 24 -10 18 4 47 28 59 34 16 46 14 73 -13z m982
-8 c5 -24 -71 -97 -95 -92 -10 2 -21 4 -25 4 -20 2 -4 48 27 78 39 38 87 43
93 10z m189 -3 c13 -33 -82 -99 -111 -75 -20 16 -8 55 22 74 34 21 81 22 89 1z
m186 -9 c25 -18 18 -53 -15 -78 -25 -19 -30 -19 -54 -7 -37 20 -49 57 -28 81
20 22 71 24 97 4z m-1434 -137 c6 -18 4 -26 -11 -36 -20 -15 -195 -29 -222
-19 -31 12 9 53 59 61 6 1 21 -4 35 -11 21 -10 29 -9 55 6 42 27 74 26 84 -1z
m575 -11 c28 -20 18 -61 -16 -65 -36 -4 -53 26 -32 56 18 26 24 27 48 9z m823
-24 c2 -6 -10 -27 -26 -46 -33 -37 -138 -113 -146 -106 -9 10 39 92 76 131 29
31 44 39 65 36 15 -2 29 -8 31 -15z m334 -23 c24 -13 11 -45 -20 -47 -21 -2
-34 10 -44 40 -5 13 -1 17 19 17 14 0 34 -5 45 -10z"/>
<path d="M17164 10419 c-27 -23 -63 -53 -79 -67 -78 -69 -183 -161 -214 -188
-19 -16 -39 -34 -45 -40 -6 -5 -58 -52 -116 -104 -58 -52 -110 -99 -116 -104
-6 -6 -46 -42 -89 -81 -43 -38 -85 -77 -94 -85 -9 -9 -86 -79 -171 -155 -85
-77 -160 -144 -166 -150 -6 -5 -51 -46 -99 -90 -49 -44 -116 -105 -149 -136
-34 -31 -83 -76 -110 -100 -27 -24 -61 -55 -76 -69 -15 -14 -71 -65 -125 -115
-54 -49 -120 -110 -146 -135 -26 -25 -73 -69 -106 -99 -121 -112 -323 -314
-318 -319 6 -6 268 208 381 313 6 5 39 35 75 65 53 46 228 201 265 235 6 5 44
39 84 75 40 36 78 70 84 75 6 6 54 48 106 95 52 47 97 87 100 90 3 3 52 48
110 100 58 52 107 97 110 100 3 3 54 50 114 105 126 115 120 109 212 195 39
36 104 96 145 134 280 259 499 480 487 491 -2 3 -26 -14 -54 -36z"/>
<path d="M17219 10243 c-42 -33 -124 -131 -116 -140 14 -14 143 90 165 133 11
20 7 34 -8 34 -4 0 -22 -12 -41 -27z"/>
<path d="M10910 9927 c-68 -54 -89 -77 -68 -77 25 0 110 67 129 103 15 27 -2
20 -61 -26z"/>
<path d="M10653 9714 c-42 -32 -93 -81 -93 -90 0 -2 13 2 30 7 31 11 93 67
111 100 14 26 7 24 -48 -17z"/>
<path d="M10293 9411 c-97 -78 -153 -131 -139 -131 9 0 57 31 74 47 7 7 17 13
21 13 12 0 166 149 154 150 -7 0 -56 -36 -110 -79z"/>
<path d="M10367 9102 c-32 -35 -13 -55 46 -48 40 5 50 18 31 44 -18 27 -55 29
-77 4z"/>
<path d="M9929 9061 c-42 -41 -48 -61 -25 -80 22 -19 51 2 76 54 36 74 10 87
-51 26z"/>
<path d="M9385 8594 c-133 -102 -485 -382 -495 -393 -3 -3 -61 -53 -130 -111
-138 -116 -129 -108 -229 -204 -101 -98 -93 -111 23 -33 33 22 69 48 80 57 89
74 180 154 231 201 180 169 294 249 345 243 47 -6 112 18 153 57 35 34 39 42
33 72 -5 29 0 44 35 96 22 33 46 64 52 68 16 10 52 53 45 53 -3 0 -68 -48
-143 -106z"/>
<path d="M14770 8251 c-25 -22 -42 -42 -38 -46 8 -8 53 22 87 59 39 41 3 31
-49 -13z"/>
<path d="M14571 8086 c-24 -18 -48 -41 -53 -51 -16 -27 70 23 90 53 23 35 11
34 -37 -2z"/>
<path d="M14277 7838 c-54 -44 -96 -82 -93 -85 7 -8 124 78 165 121 61 63 29
47 -72 -36z"/>
<path d="M14352 7608 c-28 -28 -5 -49 46 -40 17 3 22 10 20 26 -4 25 -46 34
-66 14z"/>
<path d="M14019 7587 c-25 -17 -35 -31 -37 -55 -4 -37 15 -43 41 -14 18 20 42
80 35 88 -3 2 -20 -6 -39 -19z"/>
<path d="M13645 7259 c-22 -16 -53 -40 -69 -52 -62 -46 -377 -299 -402 -322
-6 -5 -30 -26 -54 -45 -101 -82 -237 -204 -262 -236 -42 -52 -7 -37 97 42 76
58 85 65 204 173 171 155 231 196 282 192 38 -3 101 26 123 56 11 15 19 40 18
56 -3 30 22 71 81 135 38 40 34 40 -18 1z"/>
<path d="M5166 6884 c-12 -30 -6 -101 9 -114 28 -24 61 3 71 57 3 15 -49 73
-64 73 -5 0 -13 -7 -16 -16z"/>
<path d="M1673 6770 c-51 -21 -15 -86 62 -113 77 -27 136 15 105 73 -22 41
-111 62 -167 40z"/>
<path d="M1375 6738 c-41 -15 -148 -86 -216 -145 -74 -64 -103 -105 -95 -138
7 -27 52 -55 90 -55 20 0 27 8 41 48 38 109 59 135 166 205 49 32 64 48 64 66
0 29 -10 33 -50 19z"/>
<path d="M4168 6695 c-2 -2 -20 -5 -40 -8 -62 -8 -129 -47 -195 -116 -80 -80
-175 -221 -204 -301 -25 -68 -37 -81 -81 -86 -41 -5 -214 -105 -303 -176 -5
-4 -73 -56 -150 -114 -77 -59 -154 -118 -171 -133 -17 -14 -52 -44 -79 -66
-192 -156 -281 -261 -285 -335 -5 -90 5 -108 46 -87 40 21 90 70 110 109 14
26 15 38 5 64 -13 37 -7 59 27 96 35 38 79 45 126 20 45 -24 67 -19 113 24 32
30 35 37 29 71 -12 68 -9 93 14 118 37 39 74 50 122 34 39 -12 43 -12 102 19
33 18 99 63 146 102 47 38 150 122 230 187 170 139 223 201 292 341 54 110 79
133 119 111 34 -18 57 -18 108 -3 58 17 159 100 142 117 -9 9 -214 20 -223 12z"/>
<path d="M1372 6524 c-50 -35 -8 -137 62 -148 55 -10 116 41 116 96 0 56 -122
92 -178 52z"/>
<path d="M2936 6424 c-13 -33 -6 -91 13 -108 17 -15 20 -15 41 2 31 25 31 75
0 102 -28 24 -46 26 -54 4z"/>
<path d="M800 6284 c-21 -9 -60 -46 -60 -57 0 -5 21 -6 49 -2 69 9 102 -10
137 -80 25 -52 26 -61 21 -148 -4 -51 -8 -110 -11 -132 -4 -41 7 -75 24 -75
44 0 148 225 152 329 2 62 -33 102 -127 144 -41 19 -158 32 -185 21z"/>
<path d="M1250 6258 c-11 -12 -20 -31 -20 -43 0 -27 35 -65 59 -65 31 0 64 33
64 65 0 32 -33 65 -64 65 -10 0 -27 -10 -39 -22z"/>
<path d="M4073 6225 c-27 -27 -34 -41 -31 -67 5 -57 72 -71 105 -22 21 32 28
91 13 109 -20 24 -50 17 -87 -20z"/>
<path d="M2010 6194 c-59 -36 -100 -145 -66 -173 29 -24 93 30 128 106 31 69
-2 104 -62 67z"/>
<path d="M490 6030 c0 -39 29 -70 65 -70 30 0 65 21 65 38 -1 18 -19 33 -51
42 -55 16 -79 13 -79 -10z"/>
<path d="M1785 5957 c-89 -54 -235 -178 -289 -247 -43 -54 -50 -106 -13 -94
64 20 261 211 310 302 29 53 27 60 -8 39z"/>
<path d="M639 5837 c-40 -31 -55 -115 -25 -145 45 -45 109 91 67 142 -16 19
-21 19 -42 3z"/>
<path d="M2454 5704 c-21 -14 -47 -36 -56 -47 -22 -27 -23 -70 -3 -87 13 -11
20 -10 43 7 44 33 94 153 63 153 -4 0 -26 -12 -47 -26z"/>
<path d="M235 5495 c-19 -18 -25 -35 -25 -68 0 -24 6 -51 13 -60 11 -15 19
-14 94 17 45 18 89 39 98 46 14 12 14 15 -2 33 -24 26 -91 57 -126 57 -17 0
-38 -10 -52 -25z"/>
<path d="M9544 5494 c-9 -34 7 -79 26 -79 38 -1 52 61 22 88 -26 24 -41 21
-48 -9z"/>
<path d="M6768 5423 c-25 -6 -31 -34 -11 -55 40 -45 103 -58 133 -28 24 24 25
34 3 55 -30 30 -77 41 -125 28z"/>
<path d="M6505 5387 c-92 -55 -198 -146 -221 -188 -12 -23 -11 -28 4 -42 9 -9
29 -20 44 -26 32 -12 49 4 67 66 11 40 81 123 104 123 20 0 67 42 67 61 0 22
-33 25 -65 6z"/>
<path d="M8715 5353 c-55 -13 -103 -40 -150 -88 -54 -53 -165 -221 -165 -249
0 -20 -41 -68 -54 -63 -18 6 -74 -21 -155 -75 -72 -49 -260 -186 -271 -198 -3
-3 -25 -21 -50 -40 -150 -116 -278 -240 -304 -295 -18 -38 -21 -111 -5 -121
17 -10 90 47 111 88 15 29 17 41 8 58 -16 29 6 71 49 92 32 16 35 16 69 -2 32
-17 38 -18 63 -4 46 23 64 59 52 99 -9 27 -7 39 7 63 22 36 83 62 96 41 17
-28 92 4 194 85 95 75 101 80 119 96 9 9 50 43 91 75 124 99 154 134 220 262
23 45 48 84 56 87 8 3 26 1 40 -4 55 -21 102 -7 168 51 42 36 34 49 -31 50
-32 0 -67 2 -78 3 -12 1 -47 -4 -80 -11z"/>
<path d="M2460 5304 c-101 -75 -160 -138 -160 -171 0 -22 45 -14 86 13 73 49
184 173 184 206 0 21 -42 3 -110 -48z"/>
<path d="M2030 5323 c-38 -25 -203 -156 -220 -173 -8 -9 -28 -26 -44 -38 -57
-44 -146 -125 -142 -129 15 -16 305 213 405 320 38 41 38 46 1 20z"/>
<path d="M6533 5228 c-56 -27 -9 -122 59 -120 36 1 78 39 78 72 0 45 -83 74
-137 48z"/>
<path d="M779 5117 c-85 -63 -174 -145 -166 -153 16 -16 201 127 228 177 15
29 -1 23 -62 -24z"/>
<path d="M7775 5151 c-11 -20 -12 -72 0 -88 16 -22 43 -11 55 23 9 23 7 31
-11 51 -24 25 -35 28 -44 14z"/>
<path d="M6070 5033 c-18 -7 -50 -34 -50 -42 0 -3 24 -6 53 -6 60 0 79 -13
102 -69 16 -38 18 -113 6 -187 -8 -48 1 -89 18 -89 33 0 121 199 121 272 0 73
-164 152 -250 121z"/>
<path d="M6427 5012 c-21 -23 -22 -46 -1 -66 32 -33 84 -10 84 36 -1 40 -56
60 -83 30z"/>
<path d="M8681 4991 c-36 -34 -41 -75 -12 -91 28 -14 38 -13 61 10 25 25 28
95 4 104 -21 8 -18 9 -53 -23z"/>
<path d="M7043 4966 c-56 -30 -92 -135 -50 -144 25 -5 65 33 87 82 26 56 8 87
-37 62z"/>
<path d="M5832 4841 c-10 -6 -11 -13 -1 -34 7 -15 18 -28 26 -28 7 -1 20 -2
29 -3 9 0 23 9 32 22 14 21 13 23 -21 37 -42 17 -47 18 -65 6z"/>
<path d="M1814 4768 c-73 -56 -86 -98 -24 -77 25 9 80 72 80 92 0 14 -28 6
-56 -15z"/>
<path d="M6815 4746 c-73 -49 -188 -158 -210 -200 -45 -83 33 -49 145 64 77
78 144 170 123 170 -5 0 -31 -15 -58 -34z"/>
<path d="M13701 4738 c-15 -42 7 -80 34 -58 21 18 18 53 -5 68 -18 11 -22 10
-29 -10z"/>
<path d="M272 4719 c-20 -8 -42 -44 -42 -70 0 -18 40 -49 65 -49 35 0 66 37
58 69 -11 48 -39 65 -81 50z"/>
<path d="M1490 4706 c-74 -21 -95 -33 -123 -66 -30 -35 -32 -43 -17 -71 14
-26 46 -24 107 6 50 25 153 116 153 136 0 13 -66 10 -120 -5z"/>
<path d="M5936 4667 c-43 -43 -31 -131 14 -107 17 9 40 59 40 85 0 6 -6 20
-14 30 -13 18 -14 18 -40 -8z"/>
<path d="M11492 4679 c-33 -12 -24 -40 19 -63 63 -34 120 3 71 47 -22 20 -61
27 -90 16z"/>
<path d="M11275 4647 c-76 -44 -175 -135 -175 -160 0 -17 17 -32 47 -41 19 -6
25 1 52 56 24 50 42 70 83 98 29 19 52 40 53 45 0 14 -37 15 -60 2z"/>
<path d="M13015 4618 c-16 -6 -42 -19 -57 -30 -43 -30 -126 -141 -158 -212
-25 -55 -46 -77 -62 -64 -10 7 -173 -102 -308 -206 -259 -200 -334 -287 -315
-364 6 -23 6 -23 36 -5 51 30 71 62 64 103 -5 27 -1 40 15 58 21 22 74 30 84
13 6 -10 18 -9 52 2 27 9 47 52 35 75 -11 22 2 56 29 75 22 15 32 16 62 2 26
-11 99 35 245 154 70 58 135 112 144 121 30 30 76 99 103 154 29 59 47 72 78
55 15 -8 31 -8 57 0 38 12 91 53 91 71 0 13 -155 12 -195 -2z"/>
<path d="M7379 4565 c-38 -25 -49 -43 -49 -76 0 -48 55 -26 86 33 15 29 19 68
6 68 -4 0 -24 -11 -43 -25z"/>
<path d="M11322 4532 c-52 -8 -46 -82 9 -101 38 -13 82 19 77 57 -3 29 -46 51
-86 44z"/>
<path d="M12289 4463 c0 -5 -2 -15 -3 -23 -2 -8 0 -25 5 -38 7 -19 12 -21 29
-12 11 6 20 19 20 29 0 26 -48 67 -51 44z"/>
<path d="M5633 4419 c-12 -4 -24 -20 -28 -37 -6 -28 -1 -79 9 -89 8 -9 156 59
156 72 0 16 -56 52 -90 58 -14 3 -35 1 -47 -4z"/>
<path d="M10940 4366 c-40 -13 -54 -38 -18 -33 40 7 75 -12 93 -50 14 -30 16
-52 11 -130 -7 -88 -6 -94 11 -91 27 5 86 129 91 193 4 53 4 53 -37 80 -51 34
-108 45 -151 31z"/>
<path d="M1093 4337 c-46 -35 -59 -55 -44 -70 13 -13 65 17 90 52 42 59 18 68
-46 18z"/>
<path d="M11232 4359 c-18 -7 -23 -15 -20 -36 4 -37 51 -45 68 -12 17 30 -14
61 -48 48z"/>
<path d="M794 4317 c-86 -63 -178 -151 -165 -155 27 -9 192 123 220 177 7 11
10 21 7 21 -2 0 -30 -19 -62 -43z"/>
<path d="M13015 4338 c-36 -28 -32 -72 7 -76 22 -3 30 2 38 23 23 61 0 89 -45
53z"/>
<path d="M11681 4293 c-27 -34 -37 -71 -22 -86 8 -8 16 -9 29 -1 24 15 62 73
62 95 0 29 -45 24 -69 -8z"/>
<path d="M7416 4270 c-102 -65 -193 -186 -123 -164 53 16 187 151 187 189 0
11 -18 4 -64 -25z"/>
<path d="M7014 4243 c-73 -55 -268 -219 -285 -239 -13 -16 -12 -16 6 -7 88 47
364 283 331 283 -2 0 -25 -17 -52 -37z"/>
<path d="M10740 4206 c0 -15 26 -46 39 -46 4 0 16 7 27 15 19 15 19 15 0 30
-25 19 -66 20 -66 1z"/>
<path d="M11535 4148 c-105 -75 -199 -177 -181 -195 21 -21 173 113 211 187
18 35 11 37 -30 8z"/>
<path d="M6061 4109 c-76 -54 -144 -119 -136 -127 12 -12 156 102 176 140 13
24 9 23 -40 -13z"/>
<path d="M10820 4070 c-15 -28 -9 -74 11 -78 18 -3 43 46 37 75 -5 26 -35 28
-48 3z"/>
<path d="M11995 4010 c-42 -16 -73 -71 -50 -90 11 -9 19 -6 39 14 21 24 42 74
34 81 -2 1 -12 -1 -23 -5z"/>
<path d="M349 3966 c-39 -29 -59 -53 -59 -72 0 -12 38 -1 66 18 30 21 54 55
54 78 0 16 -13 11 -61 -24z"/>
<path d="M10584 3875 c-20 -14 -26 -40 -19 -73 6 -26 13 -25 92 9 59 25 51 45
-29 69 -17 5 -33 4 -44 -5z"/>
<path d="M6872 3820 c-42 -30 -55 -60 -27 -60 18 0 75 58 75 76 0 19 -1 18
-48 -16z"/>
<path d="M5632 3778 c-13 -13 -16 -47 -4 -65 14 -22 57 -25 74 -6 41 45 -27
114 -70 71z"/>
<path d="M6590 3767 c-43 -16 -90 -56 -90 -76 1 -33 43 -45 85 -23 45 22 125
92 125 108 0 20 -55 16 -120 -9z"/>
<path d="M11963 3730 c-76 -61 -100 -114 -41 -91 27 10 112 91 129 122 19 35
-23 21 -88 -31z"/>
<path d="M11659 3719 c-35 -27 -86 -69 -113 -92 -27 -23 -58 -48 -68 -55 -10
-7 -18 -17 -18 -23 0 -14 137 89 210 158 36 34 62 62 59 63 -4 0 -35 -23 -70
-51z"/>
<path d="M59 3726 c-39 -29 -59 -53 -59 -72 0 -2 10 -4 21 -4 25 0 99 70 99
94 0 23 -9 20 -61 -18z"/>
<path d="M10881 3599 c-61 -51 -81 -80 -39 -58 13 7 28 17 34 24 7 6 25 22 41
36 16 13 32 30 37 37 16 26 -15 10 -73 -39z"/>
<path d="M6296 3474 c-27 -25 -35 -39 -28 -46 15 -15 57 14 77 52 22 43 0 40
-49 -6z"/>
<path d="M6031 3440 c-119 -96 -137 -140 -21 -52 60 45 123 112 104 112 -5 0
-42 -27 -83 -60z"/>
<path d="M11569 3401 c-35 -30 -36 -48 -1 -37 19 6 50 52 41 61 -3 2 -21 -8
-40 -24z"/>
<path d="M10580 3358 c-6 -18 -4 -27 12 -40 11 -10 24 -18 28 -18 4 0 14 8 22
18 23 25 7 62 -27 62 -17 0 -29 -7 -35 -22z"/>
<path d="M11357 3366 c-50 -18 -79 -45 -75 -70 3 -24 31 -28 64 -12 31 16 104
77 104 87 0 13 -50 10 -93 -5z"/>
<path d="M5717 3191 c-15 -10 -35 -28 -43 -40 -14 -20 -14 -21 10 -21 15 0 34
12 50 31 41 49 33 63 -17 30z"/>
<path d="M11122 3135 c-34 -28 -41 -45 -19 -45 18 0 60 46 55 60 -2 8 -16 2
-36 -15z"/>
<path d="M10903 3101 c-26 -21 -56 -47 -66 -59 -18 -20 -18 -20 2 -15 24 6
141 112 124 113 -6 0 -33 -17 -60 -39z"/>
<path d="M5487 3001 c-33 -21 -61 -58 -50 -64 15 -9 51 12 72 41 33 47 26 55
-22 23z"/>
<path d="M10640 2894 c-22 -19 -28 -30 -21 -37 8 -8 20 -2 41 18 50 48 34 64
-20 19z"/>
<path d="M10462 2745 c-34 -28 -41 -45 -19 -45 18 0 60 46 55 60 -2 8 -16 2
-36 -15z"/>
</g>
</svg>
