<?xml version="1.0" encoding="UTF-8" standalone="no"?>
<!-- Created with Inkscape (http://www.inkscape.org/) -->

<svg
   xmlns:dc="http://purl.org/dc/elements/1.1/"
   xmlns:cc="http://creativecommons.org/ns#"
   xmlns:rdf="http://www.w3.org/1999/02/22-rdf-syntax-ns#"
   xmlns:svg="http://www.w3.org/2000/svg"
   xmlns="http://www.w3.org/2000/svg"
   xmlns:sodipodi="http://sodipodi.sourceforge.net/DTD/sodipodi-0.dtd"
   xmlns:inkscape="http://www.inkscape.org/namespaces/inkscape"
   width="162.10429mm"
   height="116.4089mm"
   viewBox="0 0 162.10429 116.4089"
   version="1.1"
   id="svg8"
   inkscape:version="0.92.5 (2060ec1f9f, 2020-04-08)"
   sodipodi:docname="BeHopeIcon2.svg">
  <defs
     id="defs2" />
  <sodipodi:namedview
     id="base"
     pagecolor="#ffffff"
     bordercolor="#666666"
     borderopacity="1.0"
     inkscape:pageopacity="0.0"
     inkscape:pageshadow="2"
     inkscape:zoom="0.24661688"
     inkscape:cx="-327.18128"
     inkscape:cy="405.81075"
     inkscape:document-units="mm"
     inkscape:current-layer="layer1"
     showgrid="false"
     inkscape:window-width="1366"
     inkscape:window-height="704"
     inkscape:window-x="0"
     inkscape:window-y="27"
     inkscape:window-maximized="1"
     fit-margin-top="0"
     fit-margin-left="0"
     fit-margin-right="0"
     fit-margin-bottom="0" />
  <metadata
     id="metadata5">
    <rdf:RDF>
      <cc:Work
         rdf:about="">
        <dc:format>image/svg+xml</dc:format>
        <dc:type
           rdf:resource="http://purl.org/dc/dcmitype/StillImage" />
        <dc:title></dc:title>
      </cc:Work>
    </rdf:RDF>
  </metadata>
  <g
     inkscape:label="Camada 1"
     inkscape:groupmode="layer"
     id="layer1"
     transform="translate(-51.34928,-131.89455)">
    <path
       style="fill:#f20505;fill-opacity:1;stroke-width:0.33664051"
       d="m 196.94518,182.93857 c -1.62651,1.96247 -19.24895,17.87258 -19.19691,17.3316 0.0161,-0.16747 3.09216,-3.09156 6.83567,-6.49796 10.86941,-9.89061 13.46519,-12.16559 12.36124,-10.83364 z m 0.6405,1.30604 c 0.0974,0.11812 -0.17358,0.50386 -0.60217,0.85722 -0.42856,0.35335 -0.81643,0.59732 -0.86199,0.54207 -0.0455,-0.0553 0.22546,-0.44096 0.60216,-0.85722 0.37667,-0.41632 0.76466,-0.66013 0.862,-0.54207 z m -20.69228,16.85094 c -0.19839,0.27425 -0.55261,0.55904 -0.7873,0.63266 -0.23456,0.0738 -0.0721,-0.15055 0.36077,-0.49859 0.43239,-0.34872 0.62481,-0.40847 0.42639,-0.13425 z m -1.81818,1.49906 c -0.1984,0.27427 -0.5526,0.55904 -0.7873,0.63266 -0.23457,0.0738 -0.0722,-0.15054 0.36076,-0.49858 0.43238,-0.34871 0.62481,-0.40848 0.42639,-0.13425 z m -2.06791,1.71533 c -0.3438,0.38339 -0.98666,0.91341 -1.42857,1.17783 -0.44191,0.26443 -0.16066,-0.0493 0.62508,-0.69712 0.78571,-0.64781 1.14729,-0.86414 0.80349,-0.48071 z m 22.14908,-17.55709 c 0.32189,0.11577 1.61884,-0.54419 3.62917,-1.84671 1.72056,-1.11476 3.65627,-2.18948 4.30158,-2.38825 0.64531,-0.19878 1.59788,-0.71037 2.1168,-1.13688 1.51399,-1.24437 3.34218,-1.92242 3.96681,-1.47125 0.33173,0.23954 0.90706,0.21387 1.42478,-0.0637 0.94001,-0.50391 1.58376,-0.11128 1.1306,0.6896 -0.15449,0.27299 -0.85571,0.97036 -1.55832,1.54965 -0.70261,0.57929 -1.18109,1.17012 -1.06331,1.31297 0.11779,0.14287 0.61369,-0.0697 1.10201,-0.47227 0.48831,-0.4026 1.15848,-0.82256 1.48918,-0.93335 0.55755,-0.18668 0.57549,-0.15862 0.24647,0.3854 -0.19517,0.32268 -0.17222,0.80937 0.051,1.08151 0.33533,0.40829 0.17741,0.72528 -0.90405,1.81661 l -1.30986,1.32181 1.40909,-0.93688 1.40907,-0.93688 -1.58477,1.38528 c -0.87167,0.76184 -1.48842,1.50215 -1.37063,1.64501 0.18831,0.2284 1.76611,-0.83212 3.22843,-2.16996 0.45238,-0.41381 0.46635,-0.38409 0.15458,0.3285 -0.23159,0.52932 -0.17109,0.89464 0.18642,1.12582 0.4548,0.29406 0.32879,0.54953 -0.89553,1.81559 -0.78365,0.81034 -1.34089,1.57514 -1.23832,1.69955 0.10257,0.12441 -0.14809,0.50205 -0.55702,0.83921 -0.43506,0.3587 -0.88374,1.27164 -1.08158,2.20066 -0.26823,1.25966 -0.60658,1.8209 -1.6378,2.7167 -1.18137,1.02625 -1.20443,1.07598 -0.25284,0.54665 0.91271,-0.50772 0.98943,-0.49974 0.59847,0.0623 -0.24665,0.35459 -0.95136,0.95732 -1.56599,1.33948 -0.65859,0.40943 -1.09342,0.87105 -1.05886,1.12398 0.0384,0.28048 0.34749,0.17477 0.89183,-0.30496 0.45822,-0.40385 1.67392,-1.38142 2.70063,-2.17349 1.67153,-1.28834 1.7921,-1.3364 1.14872,-0.4589 -0.39533,0.53919 -5.69463,5.06595 -11.77622,10.05948 -9.64144,7.91656 -11.18425,9.09474 -12.04772,9.201 -0.57327,0.0706 -1.5047,0.55917 -2.21189,1.16035 -0.67193,0.5711 -1.37081,0.98773 -1.55307,0.92579 -0.58976,-0.20053 -0.82025,0.26768 -0.28174,0.57236 0.38937,0.22033 0.38343,0.31446 -0.0233,0.37008 -0.30004,0.0411 -0.85716,0.37411 -1.23803,0.74014 -0.38863,0.37356 -1.22958,0.70358 -1.91653,0.75225 -0.73868,0.0523 -1.34406,0.30084 -1.52679,0.62677 -0.26256,0.46836 -0.18054,0.51588 0.61761,0.35796 0.85772,-0.16971 0.82052,-0.0978 -0.54651,1.05703 -0.80672,0.68159 -1.55957,1.12671 -1.67295,0.98919 -0.28544,-0.3462 -0.97414,0.27337 -0.80168,0.72111 0.16903,0.43874 -3.39427,3.71508 -3.67291,3.37713 -0.106,-0.12856 0.0342,-0.4208 0.31143,-0.64941 0.2773,-0.22862 0.47986,-0.59336 0.45018,-0.81054 -0.0698,-0.51037 -1.20465,-0.1396 -1.15329,0.3768 0.0214,0.21479 -0.11247,0.65061 -0.29741,0.96842 -0.27734,0.47654 -0.22237,0.59957 0.31359,0.70185 0.35744,0.0682 0.63559,0.27263 0.61812,0.45427 -0.0175,0.18164 -0.26215,0.25191 -0.5437,0.15619 -0.34424,-0.11703 -0.72951,0.0929 -1.1762,0.64088 -0.36538,0.44817 -0.81586,0.76339 -1.00123,0.7003 -0.18534,-0.063 -0.0538,-0.43007 0.29222,-0.81572 0.47058,-0.52453 0.35597,-0.49245 -0.45491,0.12722 -0.5962,0.45566 -1.35938,0.80999 -1.69589,0.78748 -0.48948,-0.0327 -0.58213,0.0436 -0.4632,0.3819 0.20611,0.58634 -0.50373,1.09954 -1.0743,0.77674 -0.25894,-0.14647 -0.6178,-0.1451 -0.79754,0.003 -0.17973,0.14819 -0.86038,0.2817 -1.51254,0.29667 l -1.18573,0.0273 0.41587,-0.71473 c 0.33621,-0.57778 0.30143,-0.72231 -0.18149,-0.75428 -0.47031,-0.0311 -0.56578,0.0504 -0.44881,0.38326 0.0817,0.23258 -0.0754,0.60754 -0.34919,0.83328 -0.34919,0.2879 -0.6356,0.23091 -0.95918,-0.19087 -0.25375,-0.33071 -0.28196,-0.5038 -0.0626,-0.38467 0.63893,0.34722 0.91593,-0.12617 0.42337,-0.72359 -0.38523,-0.46724 -0.53438,-0.43527 -1.01594,0.21777 -0.59702,0.8096 -0.65583,1.57409 -0.14436,1.87695 0.16957,0.10051 -0.15995,0.59462 -0.73373,1.10009 -0.57298,0.50469 -0.82096,0.64615 -0.55121,0.31412 0.2698,-0.33196 0.33399,-0.65677 0.14265,-0.72183 -0.46916,-0.15951 -3.41744,2.29876 -3.34989,2.79304 0.0801,0.58576 -0.80229,1.18792 -1.53565,1.04797 -0.56396,-0.10762 -0.38071,-0.34056 1.46516,-1.86245 1.6231,-1.33822 2.04141,-1.8223 1.81347,-2.09877 -0.16294,-0.19762 -0.10912,-0.61841 0.1196,-0.93506 0.3369,-0.46644 0.46383,-0.45642 0.66836,0.0525 0.19096,0.47511 0.37816,0.52468 0.76786,0.20338 0.28344,-0.23369 0.4468,-0.60277 0.36304,-0.82019 -0.0941,-0.24411 0.37572,-0.8174 1.22857,-1.49922 l 1.38089,-1.10392 -1.05459,-0.0622 -1.0546,-0.0622 0.52953,-0.58039 c 0.34753,-0.38089 0.37631,-0.66708 0.0838,-0.83261 -0.28161,-0.15936 -0.27657,-0.39172 0.0138,-0.63111 0.60555,-0.49927 1.37201,-2.11976 1.13883,-2.4078 -0.19145,-0.23693 -0.91054,0.54972 -1.46953,1.60773 -0.2161,0.40902 -0.34541,0.47639 -0.38323,0.19971 -0.0833,-0.60927 -1.1456,-0.15135 -1.27978,0.55168 -0.0882,0.46223 -0.30815,0.58924 -0.96771,0.55882 -1.14468,-0.0528 -1.02025,0.71106 0.14914,0.91565 0.92428,0.1617 1.97969,-0.40776 1.60284,-0.86484 -0.11779,-0.14286 -0.0932,-0.35951 0.0547,-0.48143 0.18296,-0.15084 0.31417,0.004 0.41072,0.484 0.15825,0.78835 -0.92726,3.61966 -1.37138,3.57695 -0.15662,-0.0152 -0.21026,-0.24717 -0.11854,-0.51631 0.13104,-0.38545 0.0518,-0.45061 -0.37451,-0.30789 -0.2974,0.0996 -0.75094,0.76014 -1.00791,1.46785 -0.26113,0.71927 -0.57095,1.16093 -0.70248,1.0014 -0.12942,-0.15698 -0.11842,-0.38176 0.0244,-0.49954 0.14286,-0.11779 0.16558,-0.32836 0.0505,-0.46795 -0.11507,-0.13957 -0.64331,0.11274 -1.17383,0.56072 -0.53063,0.44787 -1.15127,0.94531 -1.3793,1.10533 -0.22802,0.16 -0.56111,0.4704 -0.74004,0.68998 -0.17892,0.21958 -0.42166,0.28234 -0.53946,0.13947 -0.12883,-0.15626 0.70375,-0.99117 2.08985,-2.09564 1.26725,-1.0097 2.21772,-1.94058 2.11213,-2.06865 -0.10554,-0.128 -0.30879,-0.13637 -0.45164,-0.0186 -0.14286,0.11778 -0.35833,0.0946 -0.47883,-0.0516 -0.12049,-0.14615 0.21429,-0.31338 0.74402,-0.37157 0.63919,-0.0702 0.94409,-0.24488 0.90656,-0.51924 -0.0827,-0.60482 -0.73117,-0.72979 -1.31005,-0.25252 -0.27729,0.22862 -0.64871,0.24035 -0.82538,0.0261 -0.39614,-0.48047 -0.42218,-0.45908 -0.94625,0.77628 -0.23325,0.55077 -0.66016,1.19131 -0.94873,1.42341 -0.48645,0.3907 -0.5071,0.37455 -0.28549,-0.22507 0.13157,-0.3559 0.0844,-0.6997 -0.10476,-0.76402 -0.20079,-0.0683 -0.43871,0.16602 -0.57169,0.56298 -0.29333,0.87616 -2.30292,1.52277 -2.53923,0.81702 -0.0942,-0.28144 -0.43296,-0.33772 -0.8552,-0.14217 -0.52673,0.24394 -0.65853,0.19892 -0.53437,-0.18252 0.1128,-0.34653 0.58831,-0.42491 1.50699,-0.24823 1.13484,0.21821 1.38168,0.14973 1.59794,-0.44324 0.2448,-0.67127 0.22437,-0.68745 -0.47704,-0.37779 -0.40302,0.17794 -0.79768,0.15657 -0.87697,-0.0475 -0.19297,-0.49653 3.07024,-3.42166 3.81447,-3.41926 0.41611,10e-4 0.53446,-0.10151 0.42969,-0.37345 -0.1375,-0.35677 2.16565,-3.03877 4.29976,-5.00707 1.19034,-1.0978 1.90669,-2.1855 1.64695,-2.50052 -0.10422,-0.12641 -0.94872,0.33766 -1.87665,1.03128 -0.9279,0.69363 1.28358,-1.20818 4.91446,-4.22621 3.63274,-3.0195 6.26999,-5.06246 5.86417,-4.54267 -0.4056,0.51955 -0.86195,0.96168 -1.01408,0.98252 -0.1522,0.0208 -0.25159,0.21781 -0.22217,0.43633 0.0487,0.35626 3.25929,-1.96953 4.59605,-3.32947 0.23961,-0.2437 0.8078,-0.426 1.26272,-0.40501 0.66873,0.0308 0.81468,-0.0622 0.76212,-0.48554 -0.13281,-1.06982 0.50306,-2.13294 1.34196,-2.24368 0.61324,-0.081 0.78892,-0.22502 0.83309,-0.68298 0.0307,-0.31927 0.48039,-0.91096 0.99927,-1.31484 0.85112,-0.66247 0.89587,-0.66256 0.4574,-8.8e-4 -0.42156,0.63618 -0.40399,0.70923 0.13234,0.55067 0.34011,-0.10054 0.66836,-0.41682 0.72954,-0.70272 0.16156,-0.75557 1.33031,-2.49636 2.20056,-3.2776 0.41369,-0.3714 1.63727,-1.69854 2.71904,-2.9492 1.08176,-1.25068 2.38627,-2.4988 2.89889,-2.77361 0.51258,-0.27486 1.26751,-0.95354 1.67757,-1.5082 0.41006,-0.55469 1.99462,-2.15884 3.52125,-3.56479 2.19968,-2.02577 2.87967,-2.51885 3.27661,-2.37613 z m -30.8298,28.0636 c 0.0463,0.0562 0.31496,0.0248 0.59704,-0.0696 0.28211,-0.0944 0.41957,-0.28489 0.30545,-0.4233 -0.11408,-0.13837 -0.38276,-0.10703 -0.59704,0.0696 -0.21429,0.17667 -0.35176,0.36713 -0.30545,0.4233 z m -3.94159,3.95092 c 0.064,0.46811 0.573,0.0485 1.03897,-0.85661 0.29951,-0.58177 0.25897,-0.59178 -0.37859,-0.0935 -0.39269,0.30692 -0.68988,0.73446 -0.66038,0.95011 z m -2.41869,2.62289 c 0.052,0.063 0.27087,0.0904 0.48652,0.0609 0.21562,-0.0295 0.29002,-0.17743 0.16531,-0.32869 -0.12474,-0.15129 -0.34368,-0.1787 -0.48654,-0.0609 -0.14285,0.11778 -0.21723,0.26568 -0.16529,0.32869 z m 8.64559,-6.44793 c 0.11778,0.14285 0.33103,0.16336 0.47389,0.0456 0.14286,-0.11779 0.16337,-0.33103 0.0456,-0.47389 -0.1178,-0.14287 -0.33104,-0.16338 -0.4739,-0.0456 -0.14286,0.11778 -0.16338,0.33102 -0.0456,0.4739 z m 14.54873,-10.93027 c 0.052,0.063 0.27088,0.0904 0.48654,0.0609 0.21563,-0.0295 0.29002,-0.17743 0.16531,-0.32869 -0.12474,-0.15129 -0.34367,-0.17871 -0.48654,-0.0609 -0.14285,0.11778 -0.21724,0.26569 -0.16531,0.32868 z m -26.11414,21.77462 c 0.11778,0.14285 0.33102,0.16337 0.47388,0.0456 0.14286,-0.11779 0.16337,-0.33103 0.0456,-0.47388 -0.11778,-0.14286 -0.33103,-0.16338 -0.47389,-0.0456 -0.14286,0.11779 -0.16337,0.33104 -0.0456,0.4739 z m -1.97826,1.71282 c 0.55761,0.34925 1.18262,-0.0319 0.80445,-0.49056 -0.18649,-0.22619 -0.52413,-0.25867 -0.75032,-0.0722 -0.2262,0.18649 -0.25057,0.43972 -0.0541,0.56274 z m -1.18426,1.33089 c 1.19378,-0.0307 1.57157,-0.21064 1.25313,-0.59687 -0.11778,-0.14286 -0.38949,-0.11519 -0.60377,0.0615 -0.21429,0.17668 -0.48597,0.20435 -0.60376,0.0615 -0.11778,-0.14286 -0.41655,-0.0885 -0.66394,0.1208 -0.36456,0.30835 -0.24731,0.37534 0.61834,0.3531 z M 180.7026,205.0441 c 0.11084,0.13444 0.37797,0.22028 0.59361,0.19078 0.21562,-0.0295 0.24187,-0.23583 0.0582,-0.45855 -0.18363,-0.22272 -0.45075,-0.30857 -0.59361,-0.19079 -0.14286,0.11778 -0.16907,0.32414 -0.0582,0.45856 z m -10.39142,8.42063 c 0.15744,0.0151 0.38909,-0.16034 0.51477,-0.38994 0.1388,-0.25378 0.0265,-0.26455 -0.28632,-0.0275 -0.28309,0.21448 -0.38587,0.40239 -0.22843,0.4175 z m -13.23238,11.08259 c 0.11778,0.14286 0.33102,0.16337 0.47388,0.0456 0.14286,-0.11779 0.16338,-0.33104 0.0456,-0.47389 -0.11778,-0.14286 -0.33104,-0.16338 -0.47391,-0.0456 -0.14285,0.11778 -0.16335,0.33103 -0.0456,0.47389 z m 2.29208,-1.45349 c 0.11779,0.14286 0.33103,0.16338 0.47389,0.0456 0.14285,-0.11779 0.16337,-0.33103 0.0456,-0.4739 -0.11778,-0.14285 -0.33103,-0.16336 -0.47388,-0.0456 -0.14286,0.11778 -0.16337,0.33102 -0.0456,0.47388 z m -4.42178,4.202 c 0.28816,0.2841 0.59486,-0.0698 0.4304,-0.49668 -0.0842,-0.21851 -0.25486,-0.23491 -0.37912,-0.0365 -0.12436,0.19845 -0.1474,0.43839 -0.0513,0.53315 z m 1.73319,-1.11268 c 0.11778,0.14286 0.38948,0.11519 0.60377,-0.0615 0.21428,-0.17667 0.29324,-0.43811 0.17545,-0.58096 -0.11778,-0.14286 -0.38948,-0.1152 -0.60376,0.0615 -0.21429,0.17667 -0.29324,0.43812 -0.17546,0.58097 z m 50.47409,-41.17877 c 0.20604,0.0701 0.5362,-0.006 0.73363,-0.16857 0.19742,-0.16277 0.33483,-0.47239 0.30534,-0.68804 -0.0306,-0.22325 -0.34643,-0.15068 -0.73364,0.16856 -0.38719,0.31924 -0.51867,0.61552 -0.30533,0.68805 z m -2.09159,1.57441 c 0.23457,-0.0738 0.58878,-0.35855 0.7873,-0.63266 0.1984,-0.27425 0.007,-0.21379 -0.42639,0.13426 -0.43239,0.34872 -0.59527,0.57244 -0.36076,0.49858 z M 192.481,197.104 c 0.11778,0.14285 0.58442,-0.0651 1.03696,-0.46215 0.77959,-0.68397 0.77971,-0.70468 0.002,-0.39447 -1.1586,0.46216 -1.28099,0.56307 -1.03897,0.85662 z m -9.87017,8.13779 c 0.11778,0.14286 0.33103,0.16337 0.47389,0.0456 0.14285,-0.11778 0.16337,-0.33102 0.0456,-0.47388 -0.11778,-0.14286 -0.33104,-0.16337 -0.47389,-0.0456 -0.14286,0.11778 -0.16337,0.33104 -0.0456,0.47389 z m -6.3492,5.9257 c 0.45161,0.0434 0.6173,-0.76664 0.18674,-0.91301 -0.25591,-0.087 -0.3975,0.0373 -0.43021,0.37764 -0.0268,0.279 0.0827,0.51994 0.2435,0.5354 z m -4.46783,3.11262 c -0.37552,0.13845 -0.39335,0.22011 -0.0574,0.26279 0.26804,0.0341 0.85635,-0.20494 1.30733,-0.53111 1.28999,-0.93299 1.35507,-1.0978 0.3535,-0.89422 -0.51383,0.10441 -0.96225,0.36351 -0.99647,0.57575 -0.0342,0.21224 -0.30736,0.4763 -0.60693,0.58685 z m 12.84936,-10.27765 c 0.1178,0.14287 0.33105,0.16338 0.4739,0.0456 0.14286,-0.11778 0.16339,-0.33104 0.0456,-0.47391 -0.11778,-0.14286 -0.33104,-0.16336 -0.47389,-0.0456 -0.14286,0.11778 -0.16338,0.33103 -0.0456,0.47388 z m -6.49353,5.35381 c 0.1178,0.14287 0.33105,0.16338 0.4739,0.0456 0.14286,-0.11778 0.16338,-0.33103 0.0456,-0.4739 -0.11778,-0.14286 -0.33103,-0.16337 -0.47388,-0.0456 -0.14286,0.11778 -0.16338,0.33103 -0.0456,0.47388 z m -8.50564,7.04543 c 0.17777,0.1114 0.43432,0.11094 0.57004,-9.5e-4 0.13571,-0.1119 0.18504,-0.36364 0.1096,-0.5594 -0.0754,-0.19582 -0.33193,-0.19535 -0.57003,9.6e-4 -0.23809,0.1963 -0.28743,0.44803 -0.10961,0.55939 z m -1.76155,1.27231 c 0.23799,-0.0752 0.5302,-0.31609 0.64935,-0.53538 0.11916,-0.2193 -0.0755,-0.1578 -0.4327,0.13667 -0.35714,0.29446 -0.45458,0.47394 -0.21665,0.39871 z m -1.95512,1.58656 c 0.15744,0.0151 0.38909,-0.16035 0.51476,-0.38994 0.1388,-0.25379 0.0266,-0.26456 -0.28632,-0.0275 -0.28309,0.21448 -0.38586,0.40238 -0.22843,0.41749 z m 14.24548,-11.04891 c 0.44231,0.0426 0.58084,-0.0717 0.62338,-0.51397 0.0426,-0.44229 -0.0838,-0.45446 -0.56868,-0.0547 -0.48485,0.39975 -0.49698,0.52614 -0.0547,0.56867 z m -16.38429,13.87466 c 0.31973,-0.0404 0.75672,-0.21786 0.97107,-0.39446 0.2148,-0.17697 -0.0283,-0.23438 -0.54177,-0.1279 -1.01638,0.21076 -1.37005,0.64113 -0.4293,0.52236 z m 29.19133,-24.23492 c 0.23451,-0.0738 0.58872,-0.35863 0.7873,-0.63265 0.19839,-0.27426 0.007,-0.21381 -0.42639,0.13424 -0.43239,0.34872 -0.59527,0.57244 -0.36077,0.49858 z m -1.93439,1.74494 c 0.25134,0.30485 0.45098,0.14026 0.90909,-0.74954 0.29723,-0.57734 0.25238,-0.58654 -0.39391,-0.0809 -0.40113,0.31388 -0.63297,0.68755 -0.51518,0.83041 z m -7.13273,5.63691 c 0.052,0.063 0.27087,0.0904 0.48652,0.0609 0.21562,-0.0295 0.29003,-0.17743 0.1653,-0.3287 -0.12473,-0.15129 -0.34367,-0.1787 -0.48653,-0.0609 -0.14286,0.11778 -0.21724,0.26569 -0.16529,0.32869 z m -12.78307,11.21965 c 0.0318,0.23301 0.39632,0.0971 0.89806,-0.33479 0.70363,-0.60567 0.72712,-0.69269 0.14089,-0.52181 -0.95431,0.27816 -1.10148,0.3995 -1.03895,0.8566 z m 10.47393,-8.19929 c 0.11778,0.14285 0.32414,0.16906 0.45856,0.0582 0.13443,-0.11083 0.22027,-0.37796 0.19079,-0.59361 -0.0295,-0.21562 -0.23583,-0.24186 -0.45857,-0.0582 -0.22271,0.18363 -0.30857,0.45074 -0.19078,0.5936 z m -15.065,12.42084 c 0.11778,0.14286 0.33104,0.16339 0.47389,0.0456 0.14287,-0.11779 0.16337,-0.33105 0.0456,-0.4739 -0.11778,-0.14286 -0.33102,-0.16337 -0.47388,-0.0456 -0.14286,0.11778 -0.16337,0.33102 -0.0456,0.47387 z m -4.47561,3.9537 c 0.15743,0.0151 0.3891,-0.16036 0.51476,-0.38994 0.13882,-0.2538 0.0266,-0.26457 -0.2863,-0.0275 -0.2831,0.21448 -0.38594,0.40231 -0.22845,0.41749 z m -4.44677,4.27529 c 0.11779,0.14285 0.33103,0.16337 0.4739,0.0456 0.14285,-0.11778 0.16336,-0.33103 0.0456,-0.47388 -0.11778,-0.14286 -0.33103,-0.16338 -0.47389,-0.0456 -0.14286,0.11779 -0.16337,0.33104 -0.0456,0.4739 z m 25.79867,-20.83429 c 0.20604,0.0701 0.48467,0.0367 0.6191,-0.0741 0.13442,-0.11083 0.14804,-0.3184 0.0302,-0.46126 -0.11778,-0.14286 -0.39638,-0.10949 -0.61909,0.0741 -0.22272,0.18363 -0.23634,0.39118 -0.0303,0.46125 z m -17.01305,14.02699 c 0.11778,0.14286 0.33103,0.16338 0.47389,0.0456 0.14285,-0.11779 0.16337,-0.33104 0.0456,-0.4739 -0.11779,-0.14286 -0.33104,-0.16337 -0.4739,-0.0456 -0.14285,0.11779 -0.16337,0.33103 -0.0456,0.47389 z m 3.85053,-2.73839 c 0.11778,0.14286 0.33793,0.15769 0.48922,0.0329 0.15129,-0.12474 0.10647,-0.28411 -0.0996,-0.35418 -0.20604,-0.0701 -0.42623,-0.0849 -0.48923,-0.0329 -0.063,0.052 -0.0182,0.21133 0.0996,0.35418 z m 5.753,-3.87064 c 0.20603,0.0701 0.54311,-0.0115 0.74897,-0.1812 0.20586,-0.16973 0.2779,-0.42548 0.16012,-0.56834 -0.11778,-0.14285 -0.45482,-0.0613 -0.74897,0.18121 -0.29414,0.24252 -0.3662,0.49827 -0.16012,0.56833 z m -10.00004,8.24487 c 0.11778,0.14285 0.33104,0.16338 0.4739,0.0456 0.14286,-0.11778 0.16336,-0.33104 0.0456,-0.4739 -0.11778,-0.14285 -0.33103,-0.16337 -0.47389,-0.0456 -0.14286,0.11779 -0.16338,0.33104 -0.0456,0.4739 z m -2.75008,2.48554 c 0.17668,0.21429 0.49289,0.24809 0.70269,0.0751 0.23236,-0.19157 0.19746,-0.4186 -0.0893,-0.58086 -0.25894,-0.14646 -0.57511,-0.18028 -0.70269,-0.0751 -0.12758,0.10519 -0.0874,0.36657 0.0893,0.58085 z m -2.18501,1.58336 c 0.11778,0.14285 0.44793,0.067 0.73365,-0.16857 0.28571,-0.23556 0.4231,-0.54519 0.30532,-0.68804 -0.11779,-0.14286 -0.44792,-0.067 -0.73363,0.16856 -0.28572,0.23557 -0.42312,0.54519 -0.30534,0.68805 z m 25.92855,-20.94135 c 0.11778,0.14285 0.33103,0.16336 0.47388,0.0456 0.14286,-0.11779 0.16339,-0.33104 0.0456,-0.47389 -0.11779,-0.14287 -0.33106,-0.16338 -0.47391,-0.0456 -0.14286,0.11778 -0.16337,0.33103 -0.0456,0.4739 z m -4.4612,4.11448 c 0.11778,0.14285 0.33104,0.16337 0.47389,0.0456 0.14286,-0.11778 0.16338,-0.33104 0.0456,-0.4739 -0.11778,-0.14285 -0.33104,-0.16335 -0.4739,-0.0456 -0.14285,0.11778 -0.16337,0.33103 -0.0456,0.47389 z m -2.07793,1.71321 c 0.11778,0.14286 0.33104,0.16337 0.47389,0.0456 0.14287,-0.11779 0.16338,-0.33104 0.0456,-0.47389 -0.11778,-0.14286 -0.33102,-0.16337 -0.47388,-0.0456 -0.14286,0.11778 -0.16338,0.33103 -0.0456,0.47388 z m -15.07942,12.26004 c 0.15744,0.0151 0.3891,-0.16035 0.51477,-0.38994 0.13881,-0.25378 0.0265,-0.26456 -0.28631,-0.0275 -0.2831,0.21448 -0.38593,0.40231 -0.22844,0.41749 z m -2.62858,2.77623 c 0.11778,0.14286 0.45484,0.0613 0.74898,-0.1812 0.29415,-0.24252 0.36619,-0.49827 0.16012,-0.56834 -0.20603,-0.0701 -0.54311,0.0115 -0.74897,0.18121 -0.20585,0.16973 -0.27791,0.42548 -0.16013,0.56833 z m 15.26473,-12.32191 c 0.15743,0.0151 0.3891,-0.16036 0.51476,-0.38993 0.13881,-0.2538 0.0266,-0.26457 -0.2863,-0.0276 -0.2831,0.21448 -0.38594,0.40231 -0.22844,0.4175 z m -12.84277,10.76137 c 0.0295,0.21561 0.17742,0.29001 0.32869,0.16529 0.15129,-0.12474 0.17871,-0.34367 0.0609,-0.48653 -0.11779,-0.14285 -0.2657,-0.21725 -0.3287,-0.16531 -0.063,0.052 -0.0904,0.27089 -0.0609,0.48655 z m -0.63345,1.61302 c 0.17668,0.21429 0.49655,0.24507 0.71083,0.0684 0.40562,-0.33443 0.26205,-0.73208 -0.28323,-0.78454 -0.54528,-0.0524 -0.76201,0.31054 -0.4276,0.71614 z M 179.71222,215.485 c 0.11779,0.14286 0.2657,0.21725 0.32869,0.16531 0.063,-0.052 0.0904,-0.27089 0.0609,-0.48654 -0.0295,-0.21562 -0.17743,-0.29003 -0.32869,-0.16531 -0.15129,0.12473 -0.1787,0.34368 -0.0609,0.48654 z m -6.6234,5.46089 c 0.0295,0.21562 0.30123,0.18794 0.60376,-0.0615 0.30258,-0.24947 0.38153,-0.51091 0.17547,-0.58098 -0.20604,-0.0701 -0.47779,-0.0424 -0.60378,0.0615 -0.12599,0.10387 -0.20495,0.36532 -0.17545,0.58097 z m -6.62341,5.46089 c 0.11779,0.14286 0.2657,0.21725 0.3287,0.1653 0.063,-0.052 0.0904,-0.27088 0.0609,-0.48653 -0.0295,-0.21562 -0.17743,-0.29003 -0.3287,-0.16531 -0.15129,0.12474 -0.1787,0.34369 -0.0609,0.48654 z m -2.81847,3.19638 c -0.26785,0.5203 -0.13309,0.4909 0.669,-0.14592 0.60646,-0.48148 0.85598,-0.84789 0.62972,-0.92484 -0.44253,-0.15045 -0.83775,0.1754 -1.29872,1.07076 z m 16.31608,-13.1452 c 0.37029,-0.20175 0.95599,-0.68205 1.30189,-1.06691 0.34558,-0.38524 0.0426,-0.22016 -0.67326,0.36681 -0.7162,0.58661 -0.99865,0.90218 -0.62837,0.70042 z m -11.93595,9.72617 c 0.22603,0.27415 0.81947,-0.0216 0.76995,-0.38379 -0.03,-0.21916 -0.2367,-0.24826 -0.45945,-0.0646 -0.2227,0.18362 -0.36244,0.3854 -0.3105,0.44839 z m 8.03493,-5.07185 c 0.11779,0.14287 -0.1296,0.54316 -0.54975,0.88957 -0.42013,0.34639 -0.73975,0.80627 -0.71025,1.02191 0.0609,0.44521 0.98317,-0.2396 1.99588,-1.48198 0.74411,-0.91286 0.40108,-1.80324 -0.43057,-1.11755 -0.28571,0.23556 -0.4231,0.54518 -0.30532,0.68804 z m -8.66263,8.01483 c 0.11778,0.14286 0.33793,0.15769 0.48922,0.0329 0.15129,-0.12474 0.10646,-0.28412 -0.0996,-0.35418 -0.20604,-0.0701 -0.42624,-0.0849 -0.48923,-0.0329 -0.063,0.052 -0.0182,0.21133 0.0996,0.35418 z m 18.91552,-15.15924 c 0.11778,0.14285 0.33102,0.16337 0.47388,0.0456 0.14286,-0.11779 0.16339,-0.33104 0.0456,-0.4739 -0.11779,-0.14286 -0.33104,-0.16336 -0.4739,-0.0456 -0.14285,0.11778 -0.16337,0.33102 -0.0456,0.47389 z m 17.23736,-14.01953 c 0.052,0.063 0.27088,0.0904 0.48653,0.0609 0.21561,-0.0295 0.29002,-0.17744 0.16531,-0.32869 -0.12473,-0.15129 -0.34368,-0.1787 -0.48654,-0.0609 -0.14285,0.11778 -0.21724,0.26569 -0.1653,0.32869 z m -30.2844,25.04029 c 0.15744,0.0151 0.3891,-0.16035 0.51476,-0.38994 0.13881,-0.25378 0.0265,-0.26456 -0.28632,-0.0275 -0.28309,0.21448 -0.38593,0.40231 -0.22843,0.4175 z m 19.38941,-15.11366 c 0.15744,0.0151 0.38909,-0.16035 0.51477,-0.38994 0.13881,-0.25379 0.0265,-0.26455 -0.28631,-0.0275 -0.28311,0.21449 -0.38594,0.40232 -0.22843,0.41751 z m -6.59886,5.36937 c 0.22603,0.27416 0.81946,-0.0216 0.76994,-0.38378 -0.03,-0.21917 -0.2367,-0.24827 -0.45944,-0.0646 -0.22271,0.18362 -0.36245,0.38541 -0.3105,0.4484 z m 8.90516,-6.66229 c 0.11779,0.14286 0.33105,0.16338 0.4739,0.0456 0.14286,-0.11778 0.16337,-0.33105 0.0456,-0.47391 -0.11778,-0.14286 -0.33104,-0.16336 -0.47389,-0.0456 -0.14286,0.11778 -0.16338,0.33103 -0.0456,0.47388 z m -24.60389,-1.79463 c 0.0463,0.0562 -0.0357,0.31391 -0.18219,0.57282 -0.14644,0.25894 -0.35965,0.35757 -0.47378,0.21914 -0.11408,-0.13837 -0.0321,-0.39614 0.18219,-0.57282 0.21428,-0.17667 0.42746,-0.27532 0.47378,-0.21914 z m -3.23902,2.8186 c -0.56204,0.55528 -0.9311,1.11973 -0.82008,1.25438 0.28495,0.34561 -0.71904,1.10586 -1.23071,0.93188 -0.28665,-0.0975 -1.08269,0.47143 -2.45469,1.7542 -1.11676,1.04414 -2.27397,1.9289 -2.57145,1.96627 -0.31562,0.0396 1.25842,-1.38672 3.77893,-3.42426 2.37592,-1.92067 3.85996,-3.03785 3.29794,-2.48254 z m 6.27064,-2.84592 c 0.12472,0.15127 0.0503,0.2992 -0.16532,0.32869 -0.21562,0.0295 -0.43458,0.002 -0.48652,-0.0609 -0.052,-0.063 0.0224,-0.2109 0.1653,-0.32868 0.14285,-0.11778 0.3618,-0.0904 0.48654,0.0609 z m -26.11211,24.95222 c 0.10676,0.12947 -0.0908,0.36737 -0.43907,0.52865 -0.34824,0.16127 -0.68447,0.55915 -0.74617,0.88533 -0.0869,0.45545 -0.2235,0.52959 -0.59174,0.32124 -0.37957,-0.21475 -0.26512,-0.44701 0.55206,-1.12076 0.56695,-0.46744 1.11817,-0.74395 1.22492,-0.61446 z m -2.32925,2.58181 c 0.69783,0.34034 0.76699,0.5164 0.51784,1.31828 -0.40228,1.29461 -1.00965,1.67221 -0.78702,0.48924 0.20071,-1.0664 -0.22155,-1.8281 -0.89543,-1.61523 -0.28131,0.0888 -0.29413,0.0104 -0.0368,-0.2242 0.21778,-0.19848 0.75838,-0.18414 1.20135,0.0319 z m -2.19617,1.19018 c 0.20604,0.0701 0.25087,0.22945 0.0996,0.35417 -0.15129,0.12473 -0.37144,0.10991 -0.48922,-0.0329 -0.11779,-0.14287 -0.16262,-0.30224 -0.0996,-0.35418 0.063,-0.052 0.28315,-0.0371 0.48923,0.033 z m 6.24209,-3.98303 c 0.45289,0.0436 0.7132,0.43002 0.4409,0.65453 -0.12758,0.10518 -0.44379,0.0714 -0.70268,-0.0751 -0.47836,-0.27066 -0.31384,-0.63482 0.26178,-0.57943 z m -1.55845,1.28492 c 0.54529,0.0525 0.68884,0.4501 0.28324,0.78451 -0.21429,0.17668 -0.53417,0.14591 -0.71084,-0.0684 -0.33442,-0.40562 -0.11769,-0.76861 0.4276,-0.71614 z m -4.08678,3.95121 c 0.0295,0.21562 -0.0632,0.48847 -0.20611,0.60625 -0.14286,0.11779 -0.28388,0.0377 -0.31337,-0.17794 -0.0295,-0.21562 0.0633,-0.48846 0.20613,-0.60624 0.14286,-0.11779 0.28387,-0.0377 0.31335,0.17793 z m -1.71211,1.67834 c 0.37012,0.20942 0.35967,0.335 -0.039,0.4685 -0.29963,0.10027 -0.6005,0.22837 -0.66868,0.28459 -0.0681,0.0562 -0.14807,-0.0743 -0.17751,-0.28996 -0.0796,-0.58194 0.31269,-0.78717 0.8853,-0.46318 z m 5.17303,-4.0955 c 0.11779,0.14285 0.0973,0.35611 -0.0456,0.4739 -0.14285,0.11778 -0.35612,0.0973 -0.4739,-0.0456 -0.11779,-0.14286 -0.0973,-0.35612 0.0456,-0.4739 0.14286,-0.11778 0.35611,-0.0973 0.47389,0.0456 z m 3.89478,0.24871 c 0.17371,0.059 0.13339,0.35979 -0.0895,0.66832 -0.22285,0.30855 -0.48221,0.46756 -0.57636,0.35337 -0.25161,-0.30517 0.29706,-1.14705 0.66584,-1.02166 z m -1.34531,1.30003 c -0.0836,0.52228 -1.7102,2.11513 -1.9111,1.87147 -0.12312,-0.14933 0.26317,-0.67305 0.85841,-1.16382 0.59523,-0.49076 1.06892,-0.80925 1.05269,-0.70765 z m -5.29825,4.51656 c -0.27189,0.3285 -0.74134,0.71167 -1.04278,0.85198 -0.3019,0.13979 -0.0795,-0.12901 0.49431,-0.59731 0.57397,-0.46804 0.82079,-0.58263 0.54897,-0.25406 z m -2.59659,2.26864 c 0.11778,0.14286 0.0973,0.3561 -0.0456,0.47389 -0.14287,0.11779 -0.35611,0.0973 -0.47389,-0.0456 -0.11778,-0.14286 -0.0973,-0.3561 0.0456,-0.47389 0.14286,-0.11779 0.35612,-0.0973 0.4739,0.0456 z m 14.27196,-9.14918 c 0.11778,0.14286 0.0904,0.36181 -0.0609,0.48653 -0.15129,0.12474 -0.29922,0.0504 -0.32871,-0.16531 -0.0295,-0.21562 -0.002,-0.43459 0.0609,-0.48653 0.063,-0.052 0.2109,0.0225 0.32869,0.16531 z m -2.65001,3.66529 c 0.0463,0.0562 -0.0357,0.3139 -0.18217,0.57281 -0.14647,0.25895 -0.35966,0.35758 -0.47379,0.21915 -0.11408,-0.13837 -0.0321,-0.39614 0.18219,-0.57283 0.21428,-0.17667 0.42745,-0.27531 0.47377,-0.21913 z m -2.59048,2.28224 c -0.48946,0.49777 -1.36609,1.22054 -1.94805,1.60613 -0.58191,0.38568 -0.18139,-0.0216 0.89002,-0.90495 1.07144,-0.88338 1.54753,-1.19893 1.05803,-0.70118 z m -6.37177,5.24305 c -0.27189,0.3285 -0.74133,0.71166 -1.04279,0.85199 -0.30189,0.13978 -0.0795,-0.12902 0.49431,-0.59731 0.57398,-0.46805 0.82079,-0.58264 0.54898,-0.25407 z m -2.35598,1.9321 c -0.12565,0.22958 -0.35732,0.40503 -0.51476,0.38993 -0.15743,-0.0151 -0.0547,-0.20304 0.22844,-0.4175 0.3129,-0.23698 0.42514,-0.22623 0.2863,0.0275 z m -1.55844,1.28491 c -0.12566,0.22958 -0.35733,0.40504 -0.51476,0.38994 -0.15743,-0.0151 -0.0546,-0.20305 0.22844,-0.4175 0.31289,-0.23698 0.42513,-0.22623 0.2863,0.0275 z m 7.72023,-5.35432 c 0.46537,-0.0541 0.44024,0.0614 -0.1138,0.52345 -0.39095,0.32622 -0.80739,0.47602 -0.92517,0.33317 -0.27078,-0.32842 0.26,-0.76604 1.03897,-0.85662 z m -2.14268,2.06465 c -0.12567,0.22959 -0.35726,0.40511 -0.51476,0.38993 -0.15744,-0.0151 -0.0546,-0.20304 0.22842,-0.41749 0.3129,-0.23699 0.42514,-0.22623 0.28632,0.0275 z m 16.54116,-12.67362 c 1.05661,0.005 1.06485,0.0124 0.51803,0.47755 -0.30572,0.25983 -0.72516,0.36699 -0.93234,0.23785 -0.3009,-0.18754 -0.44858,-0.0649 -0.7334,0.60985 -0.19638,0.46431 -0.65709,1.07564 -1.02379,1.3585 -0.36669,0.28289 -1.15883,0.92951 -1.76058,1.43666 -0.60141,0.50752 -1.18775,0.80844 -1.30284,0.66885 -0.11508,-0.13958 -0.38457,-0.10924 -0.59885,0.0674 -0.21429,0.17668 -0.29325,0.43812 -0.17546,0.58098 0.11778,0.14286 0.0388,0.40429 -0.17546,0.58097 -0.21428,0.17667 -0.48598,0.20435 -0.60377,0.0615 -0.11779,-0.14287 -0.38947,-0.11519 -0.60376,0.0615 -0.21428,0.17667 -0.29325,0.43811 -0.17546,0.58097 0.11779,0.14287 -0.0339,0.46428 -0.33713,0.71427 -0.46213,0.38101 -0.55095,0.34771 -0.54916,-0.20584 0.002,-0.51579 0.54738,-1.09108 2.49283,-2.6279 1.36988,-1.08213 2.63585,-1.91817 2.81326,-1.85785 0.1774,0.0603 0.36586,-0.11431 0.41871,-0.38812 0.0529,-0.27375 0.44703,-0.91718 0.87587,-1.42985 0.60704,-0.72569 1.01748,-0.93104 1.85339,-0.92719 z m -8.95298,7.15914 c 0.18173,0.22041 -1.04495,1.42353 -1.34679,1.3209 -0.17845,-0.0607 0.0331,-0.40509 0.47013,-0.7654 0.437,-0.3603 0.83144,-0.61034 0.87666,-0.5555 z m -3.78323,3.24999 c -0.12566,0.22958 -0.35733,0.40503 -0.51477,0.38993 -0.15743,-0.0151 -0.0546,-0.20303 0.22845,-0.41749 0.31289,-0.23697 0.42514,-0.22623 0.2863,0.0275 z m 12.38867,-7.89447 c 0.0295,0.21562 -0.0564,0.48277 -0.1908,0.5936 -0.13443,0.11083 -0.34077,0.0846 -0.45855,-0.0582 -0.11779,-0.14287 -0.0319,-0.40998 0.19079,-0.59361 0.22271,-0.18363 0.42905,-0.15742 0.45856,0.0582 z m 5.70741,-3.39675 c 0.11778,0.14285 0.0904,0.36179 -0.0609,0.48653 -0.15129,0.12473 -0.29919,0.0503 -0.32868,-0.16531 -0.0295,-0.21561 -0.002,-0.43458 0.0609,-0.48652 0.063,-0.052 0.21092,0.0224 0.3287,0.1653 z"
       id="path847"
       inkscape:connector-curvature="0"
       sodipodi:nodetypes="csccssscsccccccccccccsccscccccsssccccccccsccccssccccccccccccccccccccscssccccscccccsccscccccsccscccccccssccscccccccscsccccsscccccssscccscsssccssccccccccsccccccsccccccccccscccccccsccscsssccccscssssssssscsssssssscssccsssccscssscccccsssssssssscccccssssscscsccccccsccsssssscccccccccsccsssssssssscscsccssccccccccsccscccccccsccsscsssccccsscssssssscccccssssscssscssssssscsscssscssssssscsssssssssssssssssssssscccccsscssccccccssscsssssscsscscscsscsscccccccccscssssccssssscsssssssscsssccccccccccscsssssssscssscscccsccscsssscccssccccccccsssccscccsssscscscccscccsssssccscccsscccccccssssssscssscsssccsccccccccccccccccccsccccccccccccsssssssscccccccscssccccccssscsscss" />
    <path
       sodipodi:nodetypes="csccssscsccccccccccccsccscccccsssccccccccsccccssccccccccccccccccccccscssccccscccccsccscccccsccscccccccssccscccccccscsccccsscccccssscccscsssccssccccccccsccccccsccccccccccscccccccsccscsssccccscssssssssscsssssssscssccsssccscssscccccsssssssssscccccssssscscsccccccsccsssssscccccccccsccsssssssssscscsccssccccccccsccscccccccsccsscsssccccsscssssssscccccssssscssscssssssscsscssscssssssscsssssssssssssssssssssscccccsscssccccccssscsssssscsscscscsscsscccccccccscssssccssssscsssssssscsssccccccccccscsssssssscssscscccsccscsssscccssccccccccsssccscccsssscscscccscccsssssccscccsscccccccssssssscssscsssccsccccccccccccccccccsccccccccccccsssssssscccccccscssccccccssscsscss"
       inkscape:connector-curvature="0"
       id="path849"
       d="m 169.38739,164.15934 c -2.04432,2.46658 -24.19358,22.46366 -24.12818,21.78371 0.0203,-0.21049 3.88648,-3.88572 8.59161,-8.16715 13.66153,-12.43128 16.92411,-15.29066 15.53657,-13.61656 z m 0.80504,1.64154 c 0.12242,0.14845 -0.21817,0.63328 -0.75685,1.07741 -0.53866,0.44412 -1.02616,0.75076 -1.08342,0.68131 -0.0572,-0.0695 0.28338,-0.55423 0.75684,-1.07741 0.47343,-0.52326 0.96109,-0.82971 1.08343,-0.68131 z m -26.00768,21.17957 c -0.24936,0.3447 -0.69457,0.70266 -0.98954,0.79518 -0.29482,0.0928 -0.0906,-0.18922 0.45344,-0.62666 0.54346,-0.4383 0.78531,-0.5134 0.53592,-0.16874 z m -2.28523,1.88414 c -0.24937,0.34472 -0.69456,0.70265 -0.98954,0.79518 -0.29483,0.0927 -0.0907,-0.18921 0.45342,-0.62666 0.54346,-0.43828 0.78531,-0.51341 0.53593,-0.16873 z m -2.59912,2.15596 c -0.43211,0.48188 -1.24011,1.14805 -1.79554,1.48039 -0.55542,0.33236 -0.20193,-0.062 0.78565,-0.87619 0.98755,-0.81422 1.44201,-1.08612 1.00989,-0.6042 z m 27.8387,-22.06712 c 0.40458,0.14551 2.03469,-0.68398 4.56143,-2.3211 2.16253,-1.40111 4.59549,-2.7519 5.40656,-3.00174 0.81108,-0.24984 2.00834,-0.89285 2.66056,-1.42892 1.90291,-1.56401 4.20072,-2.41624 4.9858,-1.84918 0.41695,0.30108 1.14006,0.26881 1.79078,-0.08 1.18148,-0.63336 1.9906,-0.13986 1.42103,0.86675 -0.19418,0.34311 -1.07553,1.21962 -1.95862,1.94771 -0.8831,0.7281 -1.48449,1.4707 -1.33646,1.65025 0.14805,0.17957 0.77134,-0.0876 1.3851,-0.59359 0.61374,-0.50602 1.45607,-1.03385 1.87172,-1.1731 0.70077,-0.23464 0.72332,-0.19937 0.30978,0.4844 -0.24531,0.40556 -0.21646,1.01727 0.0641,1.35932 0.42147,0.51317 0.22299,0.91159 -1.13628,2.28326 l -1.64633,1.66136 1.77104,-1.17755 1.77104,-1.17755 -1.99186,1.74114 c -1.09559,0.95754 -1.87076,1.88801 -1.72272,2.06757 0.23668,0.28708 2.21978,-1.04587 4.05775,-2.72738 0.56858,-0.52011 0.58614,-0.48275 0.19429,0.41289 -0.29108,0.66529 -0.21505,1.12445 0.2343,1.41502 0.57163,0.3696 0.41325,0.69069 -1.12557,2.28197 -0.98495,1.0185 -1.68534,1.97977 -1.55642,2.13614 0.12892,0.15636 -0.18613,0.631 -0.70011,1.05478 -0.54682,0.45084 -1.11075,1.5983 -1.35941,2.76596 -0.33714,1.58324 -0.7624,2.28865 -2.05852,3.41457 -1.48484,1.28986 -1.51381,1.35237 -0.31779,0.68706 1.14717,-0.63813 1.2436,-0.62811 0.75221,0.0783 -0.31001,0.44568 -1.19574,1.20323 -1.96826,1.68357 -0.82777,0.51459 -1.37429,1.0948 -1.33086,1.4127 0.0483,0.35253 0.43675,0.21966 1.12093,-0.3833 0.57592,-0.50759 2.10391,-1.73627 3.39436,-2.73181 2.10091,-1.61929 2.25245,-1.67969 1.4438,-0.57679 -0.49688,0.6777 -7.15746,6.36729 -14.80128,12.64355 -12.11812,9.95015 -14.05724,11.43099 -15.14252,11.56454 -0.72053,0.0887 -1.89123,0.70281 -2.78007,1.45842 -0.84454,0.7178 -1.72295,1.24146 -1.95203,1.1636 -0.74125,-0.25204 -1.03095,0.33644 -0.35411,0.71939 0.48939,0.27693 0.48192,0.39523 -0.0292,0.46515 -0.37711,0.0516 -1.07734,0.47021 -1.55605,0.93026 -0.48846,0.46952 -1.54543,0.88432 -2.40885,0.94549 -0.92843,0.0657 -1.68931,0.37812 -1.91899,0.78777 -0.32999,0.58867 -0.22691,0.6484 0.77627,0.44992 1.07804,-0.2133 1.03129,-0.12293 -0.6869,1.32855 -1.01395,0.85668 -1.96019,1.41614 -2.1027,1.24329 -0.35876,-0.43512 -1.22437,0.3436 -1.00761,0.90635 0.21245,0.55144 -4.26618,4.66941 -4.6164,4.24464 -0.13323,-0.16158 0.0429,-0.52889 0.39143,-0.81623 0.34854,-0.28734 0.60313,-0.74578 0.56582,-1.01875 -0.0877,-0.64147 -1.5141,-0.17545 -1.44955,0.47359 0.0269,0.26997 -0.14135,0.81775 -0.3738,1.2172 -0.34858,0.59894 -0.2795,0.75358 0.39414,0.88214 0.44926,0.0857 0.79886,0.34266 0.7769,0.57095 -0.022,0.2283 -0.32948,0.31662 -0.68336,0.19632 -0.43267,-0.14709 -0.9169,0.11676 -1.47834,0.8055 -0.45924,0.5633 -1.02544,0.9595 -1.25843,0.8802 -0.23294,-0.0791 -0.0677,-0.54055 0.36729,-1.02526 0.59146,-0.65927 0.44741,-0.61895 -0.57177,0.1599 -0.74935,0.57271 -1.70857,1.01806 -2.13153,0.98977 -0.61522,-0.0411 -0.73166,0.0548 -0.58218,0.47999 0.25905,0.73697 -0.63313,1.38199 -1.35027,0.97627 -0.32546,-0.18409 -0.77649,-0.18237 -1.00241,0.004 -0.2259,0.18625 -1.08139,0.35406 -1.90107,0.37287 l -1.49033,0.0343 0.52271,-0.89832 c 0.42257,-0.7262 0.37886,-0.90786 -0.22812,-0.94804 -0.59112,-0.0391 -0.71111,0.0633 -0.5641,0.48171 0.10269,0.29233 -0.0948,0.7636 -0.43889,1.04733 -0.43888,0.36186 -0.79887,0.29023 -1.20557,-0.2399 -0.31893,-0.41566 -0.35439,-0.63322 -0.0786,-0.48348 0.80306,0.43641 1.15122,-0.15858 0.53212,-0.90947 -0.48418,-0.58726 -0.67165,-0.54708 -1.2769,0.27372 -0.75039,1.01757 -0.8243,1.97843 -0.18145,2.35909 0.21313,0.12633 -0.20104,0.74736 -0.92221,1.38268 -0.72016,0.63433 -1.03185,0.81214 -0.6928,0.39482 0.3391,-0.41724 0.41978,-0.82548 0.17929,-0.90726 -0.58968,-0.20048 -4.29531,2.88926 -4.21041,3.51051 0.10073,0.73623 -1.00838,1.49307 -1.93012,1.31718 -0.70883,-0.13527 -0.47851,-0.42805 1.84153,-2.34088 2.04004,-1.68198 2.5658,-2.29041 2.2793,-2.6379 -0.20479,-0.24839 -0.13715,-0.77726 0.15033,-1.17525 0.42344,-0.58627 0.58298,-0.57367 0.84005,0.0659 0.24001,0.59716 0.4753,0.65946 0.9651,0.25563 0.35625,-0.29373 0.56158,-0.75762 0.4563,-1.03088 -0.11827,-0.30682 0.47224,-1.02738 1.54416,-1.88435 l 1.73561,-1.38749 -1.32548,-0.0781 -1.32551,-0.0781 0.66555,-0.72948 c 0.43681,-0.47874 0.47298,-0.83844 0.10533,-1.04649 -0.35395,-0.20029 -0.34761,-0.49234 0.0174,-0.79323 0.7611,-0.62752 1.72444,-2.66428 1.43137,-3.02631 -0.24063,-0.2978 -1.14444,0.69093 -1.84702,2.02072 -0.27161,0.51409 -0.43414,0.59876 -0.48168,0.25101 -0.1047,-0.76578 -1.43987,-0.19023 -1.60852,0.6934 -0.11086,0.58097 -0.38731,0.7406 -1.21629,0.70236 -1.43874,-0.0663 -1.28234,0.89372 0.18744,1.15087 1.16171,0.20323 2.48823,-0.51251 2.01458,-1.08701 -0.14805,-0.17956 -0.11714,-0.45185 0.0688,-0.60509 0.22996,-0.18959 0.39487,0.005 0.51622,0.60833 0.19891,0.99086 -1.16545,4.54947 -1.72365,4.49579 -0.19686,-0.019 -0.26427,-0.31067 -0.149,-0.64894 0.16471,-0.48446 0.0651,-0.56636 -0.47071,-0.38698 -0.37379,0.12519 -0.94383,0.9554 -1.26681,1.84491 -0.32822,0.90404 -0.71762,1.45914 -0.88294,1.25864 -0.16266,-0.19731 -0.14884,-0.47983 0.0306,-0.62787 0.17956,-0.14804 0.20811,-0.4127 0.0635,-0.58816 -0.14462,-0.17541 -0.80856,0.14171 -1.47536,0.70477 -0.66694,0.56292 -1.44701,1.18814 -1.73362,1.38926 -0.28659,0.20111 -0.70524,0.59124 -0.93013,0.86722 -0.22489,0.27599 -0.52998,0.35487 -0.67804,0.1753 -0.16193,-0.1964 0.88453,-1.24578 2.62669,-2.63397 1.59277,-1.26906 2.7874,-2.43907 2.65469,-2.60003 -0.13265,-0.16089 -0.38811,-0.1714 -0.56766,-0.0234 -0.17956,0.14803 -0.45038,0.1189 -0.60183,-0.0648 -0.15145,-0.1837 0.26933,-0.39388 0.93515,-0.46702 0.80338,-0.0882 1.1866,-0.30778 1.13943,-0.65262 -0.10395,-0.76018 -0.91899,-0.91726 -1.64658,-0.31738 -0.34852,0.28734 -0.81534,0.30209 -1.0374,0.0328 -0.4979,-0.60389 -0.53063,-0.57701 -1.18932,0.97568 -0.29317,0.69226 -0.82974,1.49734 -1.19244,1.78906 -0.61141,0.49106 -0.63736,0.47077 -0.35882,-0.28288 0.16537,-0.44733 0.10607,-0.87944 -0.13167,-0.96028 -0.25237,-0.0858 -0.55141,0.20866 -0.71854,0.70759 -0.36869,1.10123 -2.8945,1.91394 -3.19152,1.0269 -0.11839,-0.35374 -0.54417,-0.42447 -1.07487,-0.1787 -0.66203,0.30661 -0.8277,0.25003 -0.67164,-0.2294 0.14178,-0.43554 0.73943,-0.53406 1.8941,-0.31199 1.42636,0.27426 1.73661,0.18819 2.00842,-0.55711 0.30769,-0.84369 0.28201,-0.86403 -0.59958,-0.47483 -0.50655,0.22365 -1.00259,0.19679 -1.10225,-0.0597 -0.24254,-0.62408 3.85892,-4.30061 4.79432,-4.2976 0.52301,0.001 0.67175,-0.12758 0.54008,-0.46938 -0.17283,-0.44841 2.72195,-3.81936 5.40427,-6.29327 1.49612,-1.3798 2.39648,-2.74691 2.07002,-3.14286 -0.13099,-0.15888 -1.19243,0.4244 -2.35872,1.2962 -1.16626,0.87181 1.6133,-1.51854 6.17687,-5.31184 4.56592,-3.79514 7.88062,-6.36289 7.37055,-5.70957 -0.50979,0.65301 -1.08336,1.20871 -1.27457,1.2349 -0.19129,0.0261 -0.31622,0.27376 -0.27924,0.54842 0.0612,0.44777 4.09653,-2.47546 5.77667,-4.18474 0.30116,-0.30631 1.01531,-0.53543 1.58709,-0.50906 0.84052,0.0387 1.02396,-0.0781 0.9579,-0.61026 -0.16694,-1.34463 0.63228,-2.68084 1.68668,-2.82003 0.77076,-0.10181 0.99157,-0.28282 1.04709,-0.85843 0.0386,-0.40128 0.60379,-1.14496 1.25595,-1.65259 1.06976,-0.83264 1.12601,-0.83276 0.5749,-10e-4 -0.52985,0.79961 -0.50777,0.89142 0.16634,0.69213 0.42748,-0.12636 0.84005,-0.52389 0.91694,-0.88323 0.20306,-0.94966 1.67204,-3.13762 2.76584,-4.11955 0.51996,-0.4668 2.05784,-2.13486 3.4175,-3.70678 1.35964,-1.57196 2.99925,-3.14069 3.64356,-3.4861 0.64424,-0.34546 1.5931,-1.19848 2.10849,-1.89562 0.5154,-0.69717 2.507,-2.7134 4.42578,-4.4805 2.76474,-2.54615 3.6194,-3.1659 4.11831,-2.98651 z m -38.74931,35.27253 c 0.0582,0.0707 0.39587,0.0312 0.75041,-0.0875 0.35458,-0.11865 0.52735,-0.35807 0.38392,-0.53204 -0.1434,-0.17391 -0.48109,-0.13452 -0.75042,0.0875 -0.26933,0.22204 -0.44211,0.46143 -0.38391,0.53203 z m -4.9541,4.96582 c 0.0805,0.58836 0.72019,0.061 1.30586,-1.07665 0.37645,-0.73122 0.3255,-0.74379 -0.47584,-0.11752 -0.49357,0.38576 -0.8671,0.92313 -0.83002,1.19417 z m -3.04,3.29666 c 0.0653,0.0791 0.34045,0.11362 0.6115,0.0765 0.27101,-0.0371 0.36452,-0.22302 0.20778,-0.41313 -0.15679,-0.19015 -0.43197,-0.22461 -0.61153,-0.0765 -0.17954,0.14805 -0.27303,0.33393 -0.20775,0.41313 z m 10.86646,-8.10426 c 0.14804,0.17954 0.41607,0.20532 0.59562,0.0573 0.17956,-0.14805 0.20533,-0.41606 0.0573,-0.59562 -0.14806,-0.17957 -0.41607,-0.20535 -0.59563,-0.0573 -0.17955,0.14804 -0.20535,0.41605 -0.0573,0.59564 z m 18.28599,-13.73802 c 0.0653,0.0791 0.34046,0.11362 0.61151,0.0765 0.27103,-0.0371 0.36452,-0.223 0.20778,-0.41311 -0.15678,-0.19016 -0.43195,-0.22462 -0.61152,-0.0765 -0.17954,0.14803 -0.27305,0.33394 -0.20777,0.41311 z m -32.8223,27.36805 c 0.14803,0.17954 0.41605,0.20533 0.59561,0.0573 0.17956,-0.14804 0.20533,-0.41606 0.0573,-0.5956 -0.14803,-0.17956 -0.41606,-0.20535 -0.59562,-0.0573 -0.17956,0.14805 -0.20534,0.41607 -0.0573,0.59563 z m -2.48644,2.15281 c 0.70085,0.43895 1.48641,-0.0401 1.0111,-0.61658 -0.2344,-0.2843 -0.65877,-0.32512 -0.94306,-0.0908 -0.28431,0.2344 -0.31494,0.55267 -0.068,0.7073 z m -1.48847,1.67276 c 1.50044,-0.0386 1.97527,-0.26475 1.57503,-0.75019 -0.14803,-0.17956 -0.48954,-0.14479 -0.75886,0.0773 -0.26934,0.22207 -0.61081,0.25685 -0.75886,0.0773 -0.14803,-0.17956 -0.52355,-0.11123 -0.83449,0.15183 -0.45821,0.38756 -0.31084,0.47176 0.77718,0.44381 z m 36.22152,-29.89648 c 0.13931,0.16897 0.47506,0.27687 0.74609,0.23979 0.27101,-0.0371 0.304,-0.29641 0.0732,-0.57634 -0.23081,-0.27994 -0.56654,-0.38784 -0.7461,-0.2398 -0.17956,0.14803 -0.2125,0.4074 -0.0731,0.57635 z m -13.06075,10.58372 c 0.19787,0.019 0.48903,-0.20154 0.647,-0.49012 0.17445,-0.31897 0.0333,-0.3325 -0.35987,-0.0346 -0.35582,0.26957 -0.48499,0.50575 -0.28711,0.52475 z m -16.6315,13.92946 c 0.14803,0.17956 0.41605,0.20534 0.59561,0.0573 0.17956,-0.14804 0.20535,-0.41607 0.0573,-0.59562 -0.14804,-0.17956 -0.41608,-0.20535 -0.59565,-0.0573 -0.17955,0.14803 -0.20532,0.41606 -0.0573,0.59562 z m 2.88086,-1.82686 c 0.14805,0.17955 0.41607,0.20535 0.59563,0.0573 0.17954,-0.14805 0.20533,-0.41606 0.0573,-0.59563 -0.14803,-0.17954 -0.41606,-0.20532 -0.59561,-0.0573 -0.17956,0.14803 -0.20534,0.41605 -0.0573,0.59561 z m -5.55763,5.2814 c 0.36218,0.35708 0.74766,-0.0877 0.54096,-0.62426 -0.10583,-0.27465 -0.32033,-0.29525 -0.47651,-0.0459 -0.1563,0.24943 -0.18527,0.55101 -0.0644,0.6701 z m 2.17841,-1.3985 c 0.14803,0.17956 0.48953,0.14478 0.75886,-0.0773 0.26932,-0.22205 0.36856,-0.55064 0.22052,-0.73019 -0.14804,-0.17956 -0.48953,-0.1448 -0.75885,0.0773 -0.26934,0.22206 -0.36857,0.55067 -0.22053,0.73021 z m 63.4398,-51.75671 c 0.25896,0.0881 0.67394,-0.007 0.92208,-0.21187 0.24813,-0.20458 0.42084,-0.59374 0.38377,-0.86479 -0.0384,-0.28059 -0.43542,-0.18938 -0.92209,0.21186 -0.48666,0.40125 -0.65191,0.77364 -0.38376,0.8648 z m -2.62888,1.97884 c 0.29482,-0.0928 0.74002,-0.45065 0.98954,-0.79517 0.24936,-0.34471 0.009,-0.26872 -0.53592,0.16874 -0.54346,0.4383 -0.74818,0.71949 -0.45343,0.62666 z m -15.8163,13.22891 c 0.14804,0.17955 0.73455,-0.0818 1.30334,-0.58086 0.97985,-0.85967 0.98,-0.8857 0.002,-0.4958 -1.45622,0.58087 -1.61005,0.7077 -1.30586,1.07666 z m -12.4056,10.22821 c 0.14804,0.17956 0.41607,0.20534 0.59563,0.0573 0.17953,-0.14804 0.20532,-0.41605 0.0573,-0.59561 -0.14803,-0.17955 -0.41607,-0.20534 -0.59562,-0.0573 -0.17955,0.14804 -0.20533,0.41608 -0.0573,0.59561 z m -7.98017,7.44789 c 0.56762,0.0546 0.77587,-0.96358 0.23471,-1.14754 -0.32165,-0.10935 -0.49961,0.0469 -0.54072,0.47464 -0.0337,0.35068 0.10394,0.6535 0.30605,0.67294 z m -5.61552,3.91218 c -0.47199,0.17402 -0.49439,0.27666 -0.0722,0.3303 0.33689,0.0429 1.07633,-0.25758 1.64316,-0.66754 1.62136,-1.17266 1.70316,-1.3798 0.44431,-1.12393 -0.64582,0.13123 -1.20943,0.45689 -1.25244,0.72366 -0.043,0.26676 -0.38632,0.59864 -0.76284,0.7376 z m 16.15008,-12.91775 c 0.14806,0.17957 0.41609,0.20535 0.59564,0.0573 0.17956,-0.14803 0.20536,-0.41607 0.0573,-0.59564 -0.14803,-0.17956 -0.41607,-0.20533 -0.59562,-0.0573 -0.17956,0.14803 -0.20535,0.41606 -0.0573,0.59561 z m -8.16157,6.72909 c 0.14806,0.17957 0.41609,0.20535 0.59563,0.0573 0.17955,-0.14803 0.20535,-0.41606 0.0573,-0.59563 -0.14804,-0.17956 -0.41607,-0.20534 -0.5956,-0.0573 -0.17956,0.14803 -0.20535,0.41606 -0.0573,0.59561 z m -10.69056,8.85524 c 0.22344,0.14002 0.54588,0.13944 0.71647,-0.001 0.17057,-0.14065 0.23257,-0.45706 0.13775,-0.7031 -0.0948,-0.24612 -0.4172,-0.24554 -0.71645,0.001 -0.29926,0.24672 -0.36127,0.56312 -0.13777,0.70308 z m -2.21406,1.59915 c 0.29913,-0.0945 0.6664,-0.39729 0.81616,-0.67291 0.14977,-0.27564 -0.0949,-0.19834 -0.54385,0.17177 -0.44888,0.37011 -0.57135,0.59569 -0.27231,0.50114 z m -2.45735,1.99411 c 0.19789,0.019 0.48905,-0.20154 0.647,-0.49011 0.17445,-0.31898 0.0335,-0.33252 -0.35987,-0.0346 -0.35581,0.26957 -0.48499,0.50574 -0.28711,0.52473 z m 17.90485,-13.88714 c 0.55592,0.0535 0.73003,-0.0901 0.78351,-0.646 0.0535,-0.55591 -0.10533,-0.5712 -0.71476,-0.0688 -0.6094,0.50243 -0.62465,0.66129 -0.0688,0.71475 z m -20.59307,17.43876 c 0.40186,-0.0508 0.95111,-0.27382 1.22052,-0.49579 0.26998,-0.22243 -0.0356,-0.29459 -0.68094,-0.16075 -1.27747,0.2649 -1.72199,0.80582 -0.53958,0.65654 z m 36.68996,-30.46034 c 0.29475,-0.0928 0.73995,-0.45076 0.98954,-0.79517 0.24935,-0.34471 0.009,-0.26873 -0.53592,0.16873 -0.54346,0.43829 -0.74819,0.71948 -0.45345,0.62665 z m -2.4313,2.19317 c 0.31591,0.38316 0.56683,0.17629 1.14261,-0.94208 0.37359,-0.72565 0.31722,-0.73721 -0.49508,-0.10169 -0.50417,0.39452 -0.79558,0.86418 -0.64753,1.04374 z m -8.96498,7.08491 c 0.0653,0.0791 0.34046,0.11363 0.6115,0.0765 0.27101,-0.0371 0.36453,-0.223 0.20777,-0.41314 -0.15677,-0.19014 -0.43195,-0.22459 -0.61151,-0.0765 -0.17956,0.14803 -0.27305,0.33394 -0.20776,0.41312 z m -16.06675,14.10174 c 0.0399,0.29286 0.49812,0.12204 1.12874,-0.42079 0.88438,-0.76125 0.9139,-0.87063 0.17709,-0.65585 -1.19945,0.34961 -1.38443,0.50212 -1.30583,1.07664 z m 13.16445,-10.30551 c 0.14804,0.17954 0.40741,0.21249 0.57636,0.0731 0.16896,-0.1393 0.27684,-0.47505 0.23979,-0.7461 -0.0371,-0.27101 -0.2964,-0.30399 -0.57636,-0.0732 -0.27992,0.2308 -0.38783,0.56652 -0.23979,0.74608 z m -18.93488,15.61149 c 0.14804,0.17956 0.41608,0.20536 0.59563,0.0573 0.17957,-0.14805 0.20533,-0.4161 0.0573,-0.59563 -0.14803,-0.17956 -0.41605,-0.20534 -0.59561,-0.0573 -0.17956,0.14804 -0.20534,0.41605 -0.0573,0.5956 z m -5.6253,4.96931 c 0.19788,0.019 0.48906,-0.20155 0.64699,-0.4901 0.17449,-0.319 0.0335,-0.33253 -0.35984,-0.0346 -0.35582,0.26958 -0.48507,0.50566 -0.28713,0.52473 z m -5.58905,5.37352 c 0.14805,0.17955 0.41607,0.20534 0.59564,0.0573 0.17955,-0.14804 0.20532,-0.41606 0.0573,-0.59561 -0.14803,-0.17956 -0.41606,-0.20535 -0.59562,-0.0573 -0.17956,0.14805 -0.20534,0.41608 -0.0573,0.59564 z m 32.4258,-26.18616 c 0.25897,0.0881 0.60917,0.0461 0.77814,-0.0932 0.16894,-0.13929 0.18606,-0.40018 0.0379,-0.57973 -0.14803,-0.17956 -0.4982,-0.13763 -0.77812,0.0932 -0.27993,0.23079 -0.29705,0.49167 -0.0381,0.57973 z m -21.38333,17.63022 c 0.14803,0.17955 0.41606,0.20534 0.59562,0.0573 0.17954,-0.14805 0.20533,-0.41608 0.0574,-0.59564 -0.14806,-0.17955 -0.41609,-0.20533 -0.59564,-0.0573 -0.17955,0.14805 -0.20534,0.41607 -0.0573,0.59563 z m 4.83964,-3.44183 c 0.14804,0.17956 0.42474,0.1982 0.61489,0.0413 0.19015,-0.15679 0.13382,-0.3571 -0.12518,-0.44516 -0.25897,-0.0881 -0.53572,-0.10672 -0.6149,-0.0413 -0.0791,0.0653 -0.0229,0.26562 0.12518,0.44516 z m 7.23082,-4.86492 c 0.25896,0.0881 0.68263,-0.0144 0.94137,-0.22775 0.25874,-0.21333 0.34929,-0.53478 0.20126,-0.71433 -0.14804,-0.17955 -0.57166,-0.077 -0.94137,0.22776 -0.3697,0.30482 -0.46027,0.62626 -0.20126,0.71432 z m -12.56883,10.36279 c 0.14803,0.17955 0.41607,0.20535 0.59563,0.0573 0.17956,-0.14804 0.20533,-0.41608 0.0573,-0.59564 -0.14804,-0.17954 -0.41607,-0.20533 -0.59563,-0.0573 -0.17956,0.14805 -0.20535,0.41608 -0.0573,0.59563 z m -3.45651,3.12403 c 0.22206,0.26933 0.6195,0.31182 0.88319,0.0944 0.29204,-0.24078 0.24818,-0.52613 -0.11224,-0.73007 -0.32545,-0.18408 -0.72284,-0.22659 -0.88319,-0.0944 -0.16036,0.13222 -0.10986,0.46074 0.11224,0.73006 z m -2.7463,1.99009 c 0.14803,0.17955 0.563,0.0842 0.92211,-0.21187 0.3591,-0.29607 0.53179,-0.68524 0.38375,-0.86478 -0.14805,-0.17956 -0.56298,-0.0842 -0.92208,0.21185 -0.35911,0.29609 -0.53182,0.68524 -0.38378,0.8648 z m 32.58904,-26.32073 c 0.14803,0.17954 0.41606,0.20533 0.59561,0.0573 0.17956,-0.14806 0.20536,-0.41609 0.0573,-0.59563 -0.14805,-0.17957 -0.4161,-0.20535 -0.59565,-0.0573 -0.17956,0.14803 -0.20533,0.41606 -0.0573,0.59563 z m -5.60719,5.1714 c 0.14803,0.17954 0.41608,0.20533 0.59562,0.0573 0.17956,-0.14803 0.20535,-0.41608 0.0574,-0.59563 -0.14804,-0.17955 -0.41608,-0.20532 -0.59564,-0.0573 -0.17954,0.14804 -0.20534,0.41607 -0.0573,0.59562 z m -2.61171,2.1533 c 0.14804,0.17956 0.41608,0.20534 0.59563,0.0573 0.17957,-0.14804 0.20535,-0.41608 0.0573,-0.59562 -0.14803,-0.17956 -0.41605,-0.20534 -0.59561,-0.0573 -0.17956,0.14803 -0.20535,0.41606 -0.0573,0.59561 z m -18.95299,15.40938 c 0.19788,0.019 0.48905,-0.20155 0.647,-0.49011 0.17447,-0.31897 0.0333,-0.33252 -0.35985,-0.0346 -0.35583,0.26959 -0.48507,0.50566 -0.28713,0.52474 z m -3.30381,3.48938 c 0.14804,0.17956 0.57168,0.077 0.94138,-0.22774 0.36971,-0.30483 0.46026,-0.62627 0.20125,-0.71434 -0.25896,-0.0881 -0.68262,0.0144 -0.94136,0.22776 -0.25873,0.21333 -0.3493,0.53478 -0.20127,0.71432 z m 19.18591,-15.48714 c 0.19788,0.0189 0.48906,-0.20156 0.647,-0.4901 0.17446,-0.319 0.0335,-0.33253 -0.35985,-0.0347 -0.35582,0.26958 -0.48508,0.50566 -0.28712,0.52475 z m -16.1418,13.52573 c 0.0371,0.271 0.223,0.36451 0.41312,0.20775 0.19016,-0.15678 0.22462,-0.43195 0.0765,-0.61151 -0.14805,-0.17955 -0.33395,-0.27305 -0.41314,-0.20778 -0.0791,0.0653 -0.11362,0.34049 -0.0765,0.61154 z m -0.79617,2.02738 c 0.22206,0.26933 0.6241,0.30801 0.89343,0.086 0.50981,-0.42034 0.32936,-0.92013 -0.35599,-0.98607 -0.68535,-0.0658 -0.95775,0.39031 -0.53744,0.90011 z m 19.06945,-15.44827 c 0.14804,0.17956 0.33395,0.27307 0.41312,0.20778 0.0791,-0.0653 0.11363,-0.34048 0.0765,-0.61153 -0.0371,-0.271 -0.22301,-0.36453 -0.41312,-0.20776 -0.19016,0.15677 -0.22461,0.43196 -0.0765,0.61151 z m -8.32481,6.86368 c 0.0371,0.27101 0.37861,0.23622 0.75885,-0.0773 0.38031,-0.31355 0.47954,-0.64215 0.22055,-0.73022 -0.25896,-0.0881 -0.60053,-0.0533 -0.75888,0.0773 -0.15836,0.13055 -0.2576,0.45916 -0.22052,0.73021 z m -8.32482,6.86368 c 0.14805,0.17956 0.33395,0.27305 0.41314,0.20776 0.0791,-0.0653 0.11362,-0.34047 0.0765,-0.61151 -0.0371,-0.27101 -0.22301,-0.36453 -0.41313,-0.20777 -0.19016,0.15678 -0.22461,0.43197 -0.0765,0.61152 z m -3.54247,4.01746 c -0.33666,0.65395 -0.16729,0.617 0.84084,-0.18341 0.76226,-0.60516 1.07587,-1.06569 0.79148,-1.16241 -0.5562,-0.1891 -1.05294,0.22046 -1.63232,1.34582 z m 20.50733,-16.52192 c 0.4654,-0.25358 1.20156,-0.85726 1.63632,-1.34098 0.43435,-0.4842 0.0535,-0.27671 -0.84621,0.46104 -0.90018,0.7373 -1.25518,1.13393 -0.78979,0.88034 z m -15.00204,12.22461 c 0.28409,0.34458 1.02997,-0.0271 0.96773,-0.48237 -0.0377,-0.27547 -0.2975,-0.31203 -0.57747,-0.0812 -0.27991,0.23079 -0.45555,0.4844 -0.39026,0.56357 z m 10.09893,-6.37469 c 0.14805,0.17956 -0.1629,0.68268 -0.69097,1.11808 -0.52805,0.43537 -0.92977,1.01338 -0.8927,1.28441 0.0765,0.55957 1.23572,-0.30115 2.50858,-1.86267 0.93525,-1.14735 0.50411,-2.26645 -0.54118,-1.40462 -0.3591,0.29607 -0.53178,0.68522 -0.38374,0.86478 z m -10.88787,10.07366 c 0.14803,0.17956 0.42473,0.1982 0.61488,0.0413 0.19016,-0.15678 0.13381,-0.3571 -0.12518,-0.44516 -0.25897,-0.0881 -0.53573,-0.1067 -0.61491,-0.0413 -0.0791,0.0653 -0.0229,0.26561 0.12519,0.44516 z m 23.77451,-19.05332 c 0.14803,0.17954 0.41605,0.20533 0.59561,0.0574 0.17955,-0.14806 0.20535,-0.41609 0.0573,-0.59564 -0.14804,-0.17956 -0.41607,-0.20532 -0.59563,-0.0573 -0.17954,0.14803 -0.20533,0.41605 -0.0573,0.59562 z m 21.66526,-17.62085 c 0.0653,0.0792 0.34047,0.11362 0.61151,0.0765 0.271,-0.0371 0.36452,-0.22302 0.20778,-0.41313 -0.15677,-0.19015 -0.43197,-0.2246 -0.61153,-0.0765 -0.17954,0.14804 -0.27304,0.33394 -0.20776,0.41312 z m -38.06381,31.47261 c 0.19788,0.019 0.48905,-0.20154 0.647,-0.49011 0.17446,-0.31898 0.0333,-0.33252 -0.35988,-0.0346 -0.35581,0.26957 -0.48506,0.50565 -0.2871,0.52474 z m 24.37014,-18.99604 c 0.19787,0.019 0.48903,-0.20154 0.64699,-0.49011 0.17447,-0.31898 0.0333,-0.3325 -0.35985,-0.0346 -0.35584,0.26959 -0.48508,0.50567 -0.2871,0.52476 z m -8.29397,6.74864 c 0.28409,0.34459 1.02996,-0.0271 0.96772,-0.48236 -0.0377,-0.27547 -0.2975,-0.31204 -0.57746,-0.0812 -0.27992,0.23078 -0.45555,0.48441 -0.39026,0.56358 z m 11.1927,-8.37368 c 0.14805,0.17955 0.41609,0.20534 0.59563,0.0573 0.17956,-0.14804 0.20534,-0.41609 0.0573,-0.59565 -0.14804,-0.17955 -0.41608,-0.20532 -0.59562,-0.0573 -0.17956,0.14804 -0.20535,0.41607 -0.0574,0.59561 z m -30.9241,-2.25563 c 0.0582,0.0707 -0.0449,0.39454 -0.22899,0.71996 -0.18405,0.32545 -0.45203,0.44943 -0.59549,0.27543 -0.14338,-0.17391 -0.0403,-0.4979 0.229,-0.71996 0.26932,-0.22206 0.53726,-0.34605 0.59548,-0.27543 z m -4.07106,3.54263 c -0.70641,0.69792 -1.17027,1.40736 -1.03073,1.57661 0.35814,0.43439 -0.90375,1.38993 -1.54686,1.17125 -0.36028,-0.12254 -1.3608,0.59254 -3.08524,2.20483 -1.40364,1.31235 -2.85811,2.42439 -3.232,2.47135 -0.3967,0.0498 1.58168,-1.74294 4.74966,-4.30387 2.98624,-2.41405 4.85149,-3.81821 4.1451,-3.12025 z m 7.88143,-3.57697 c 0.15677,0.19012 0.0632,0.37605 -0.20777,0.41312 -0.27102,0.0371 -0.54622,0.002 -0.6115,-0.0765 -0.0653,-0.0791 0.0281,-0.26508 0.20776,-0.41311 0.17954,-0.14804 0.45473,-0.11363 0.61151,0.0765 z m -32.81974,31.3619 c 0.13419,0.16273 -0.11412,0.46175 -0.55186,0.66445 -0.43769,0.2027 -0.8603,0.70279 -0.93784,1.11275 -0.10922,0.57245 -0.28092,0.66563 -0.74375,0.40376 -0.47707,-0.2699 -0.33322,-0.56183 0.69387,-1.40865 0.71259,-0.58752 1.40541,-0.93506 1.53958,-0.77231 z m -2.92758,3.24503 c 0.87709,0.42776 0.96401,0.64905 0.65086,1.65692 -0.50562,1.62716 -1.26901,2.10176 -0.98919,0.61491 0.25226,-1.34033 -0.27847,-2.2977 -1.12545,-2.03015 -0.35357,0.11161 -0.36968,0.0131 -0.0463,-0.28179 0.27372,-0.24947 0.95319,-0.23144 1.50994,0.0401 z m -2.76032,1.49591 c 0.25897,0.0881 0.31531,0.28839 0.12518,0.44515 -0.19015,0.15677 -0.46685,0.13814 -0.61489,-0.0413 -0.14804,-0.17957 -0.20439,-0.37987 -0.12519,-0.44516 0.0791,-0.0653 0.35589,-0.0466 0.61491,0.0414 z m 7.84555,-5.00619 c 0.56922,0.0547 0.8964,0.54048 0.55415,0.82267 -0.16035,0.1322 -0.55779,0.0897 -0.88318,-0.0944 -0.60124,-0.34019 -0.39446,-0.79789 0.32903,-0.72828 z m -1.95879,1.615 c 0.68537,0.0659 0.86579,0.56571 0.35601,0.98603 -0.26935,0.22206 -0.67139,0.18339 -0.89345,-0.086 -0.42032,-0.50982 -0.14792,-0.96605 0.53744,-0.9001 z m -5.13659,4.96619 c 0.0371,0.271 -0.0795,0.61395 -0.25905,0.76198 -0.17955,0.14805 -0.3568,0.0474 -0.39387,-0.22365 -0.0371,-0.27101 0.0796,-0.61394 0.25908,-0.76197 0.17956,-0.14805 0.35679,-0.0474 0.39384,0.22364 z m -2.15191,2.10946 c 0.46519,0.26321 0.45207,0.42105 -0.049,0.58885 -0.376594,0.12603 -0.754751,0.28703 -0.840445,0.3577 -0.08559,0.0707 -0.186106,-0.0934 -0.223109,-0.36445 -0.100048,-0.73143 0.393014,-0.98938 1.112716,-0.58216 z m 6.50187,-5.14754 c 0.14805,0.17954 0.12229,0.44758 -0.0573,0.59563 -0.17954,0.14804 -0.4476,0.1223 -0.59563,-0.0573 -0.14805,-0.17956 -0.1223,-0.4476 0.0573,-0.59564 0.17956,-0.14803 0.44759,-0.12229 0.59563,0.0573 z m 4.89526,0.3126 c 0.21834,0.0741 0.16766,0.45221 -0.11249,0.83999 -0.28009,0.38781 -0.60607,0.58767 -0.72441,0.44414 -0.31624,-0.38355 0.37337,-1.44169 0.83688,-1.28409 z m -1.69088,1.63397 c -0.10508,0.65645 -2.14951,2.65847 -2.40203,2.35221 -0.15474,-0.18768 0.33078,-0.84593 1.07892,-1.46278 0.74814,-0.61682 1.34351,-1.01712 1.32311,-0.88943 z m -6.65926,5.67677 c -0.34173,0.41289 -0.93178,0.89448 -1.31064,1.07084 -0.37946,0.17569 -0.0999,-0.16215 0.62128,-0.75075 0.72141,-0.58827 1.03164,-0.7323 0.68999,-0.31932 z m -3.2636,2.8514 c 0.14804,0.17956 0.122299,0.44758 -0.05731,0.59563 -0.17957,0.14804 -0.447587,0.12229 -0.595622,-0.0573 -0.148034,-0.17955 -0.122294,-0.44757 0.05732,-0.59562 0.179557,-0.14805 0.4476,-0.1223 0.595633,0.0573 z m 17.93813,-11.4994 c 0.14803,0.17956 0.11361,0.45475 -0.0765,0.61151 -0.19015,0.15678 -0.37608,0.0633 -0.41315,-0.20778 -0.0371,-0.271 -0.002,-0.54622 0.0765,-0.61151 0.0791,-0.0653 0.26508,0.0282 0.41313,0.20778 z m -3.33075,4.60682 c 0.0582,0.0707 -0.0449,0.39454 -0.22896,0.71996 -0.1841,0.32546 -0.45205,0.44943 -0.5955,0.27544 -0.14339,-0.17391 -0.0403,-0.4979 0.22899,-0.71997 0.26932,-0.22206 0.53725,-0.34604 0.59547,-0.27543 z m -3.25592,2.8685 c -0.61519,0.62564 -1.71701,1.53408 -2.44846,2.01871 -0.73139,0.48475 -0.22798,-0.0271 1.11865,-1.13741 1.34667,-1.1103 1.94506,-1.50691 1.32981,-0.8813 z m -8.00854,6.58988 c -0.34174,0.41288 -0.93176,0.89447 -1.31066,1.07084 -0.37944,0.17569 -0.0999,-0.16215 0.62129,-0.75074 0.72142,-0.58828 1.03164,-0.73231 0.69,-0.31934 z m -2.96118,2.42841 c -0.157921,0.28856 -0.449106,0.50907 -0.64699,0.4901 -0.197869,-0.019 -0.06875,-0.2552 0.287118,-0.52475 0.393282,-0.29786 0.534352,-0.28434 0.359852,0.0346 z m -1.958769,1.61498 c -0.157939,0.28855 -0.449119,0.50908 -0.64699,0.49011 -0.197871,-0.019 -0.06863,-0.25522 0.287121,-0.52475 0.393265,-0.29786 0.534337,-0.28434 0.359844,0.0346 z m 9.703389,-6.72973 c 0.58492,-0.068 0.55333,0.0771 -0.14303,0.65792 -0.49137,0.41001 -1.01479,0.5983 -1.16282,0.41875 -0.34034,-0.41279 0.32678,-0.96282 1.30585,-1.07667 z m -2.69308,2.59501 c -0.15795,0.28857 -0.44903,0.50917 -0.64699,0.4901 -0.19789,-0.019 -0.0687,-0.2552 0.28709,-0.52473 0.39328,-0.29788 0.53435,-0.28435 0.35987,0.0346 z m 20.79022,-15.92919 c 1.32804,0.006 1.33839,0.0155 0.6511,0.60021 -0.38425,0.32658 -0.91144,0.46127 -1.17184,0.29896 -0.37819,-0.23572 -0.56381,-0.0816 -0.92179,0.76651 -0.24682,0.58358 -0.82588,1.35194 -1.28678,1.70746 -0.46088,0.35556 -1.45651,1.16828 -2.21283,1.80571 -0.7559,0.63789 -1.49286,1.01611 -1.63752,0.84066 -0.14464,-0.17544 -0.48335,-0.1373 -0.75267,0.0847 -0.26934,0.22207 -0.36859,0.55067 -0.22054,0.73023 0.14803,0.17956 0.0488,0.50813 -0.22053,0.7302 -0.26932,0.22206 -0.61082,0.25685 -0.75886,0.0773 -0.14805,-0.17957 -0.48952,-0.14478 -0.75886,0.0773 -0.26933,0.22205 -0.36858,0.55066 -0.22053,0.73021 0.14804,0.17957 -0.0426,0.58354 -0.42373,0.89775 -0.58084,0.47889 -0.69248,0.43703 -0.69023,-0.25871 0.002,-0.64829 0.68799,-1.37136 3.13319,-3.30295 1.72176,-1.36011 3.31294,-2.41091 3.53592,-2.33509 0.22297,0.0758 0.45984,-0.14368 0.52627,-0.48783 0.0665,-0.34406 0.56186,-1.15279 1.10086,-1.79714 0.76297,-0.91211 1.27885,-1.17021 2.32948,-1.16537 z m -11.2528,8.99816 c 0.2284,0.27703 -1.31338,1.78921 -1.69276,1.66021 -0.22429,-0.0763 0.0416,-0.50915 0.5909,-0.96201 0.54926,-0.45286 1.04502,-0.76712 1.10186,-0.6982 z m -4.75507,4.08484 c -0.15794,0.28856 -0.44912,0.50908 -0.647,0.4901 -0.19787,-0.019 -0.0687,-0.25519 0.28713,-0.52473 0.39327,-0.29784 0.53435,-0.28434 0.35985,0.0346 z m 15.57106,-9.92238 c 0.0371,0.271 -0.0709,0.60678 -0.23981,0.74608 -0.16896,0.13929 -0.42831,0.10634 -0.57634,-0.0731 -0.14805,-0.17957 -0.0401,-0.51529 0.2398,-0.7461 0.27992,-0.2308 0.53926,-0.19786 0.57635,0.0732 z m 7.17351,-4.26931 c 0.14804,0.17955 0.11363,0.45473 -0.0765,0.61151 -0.19016,0.15678 -0.37605,0.0632 -0.41312,-0.20777 -0.0371,-0.271 -0.002,-0.54622 0.0765,-0.61149 0.0791,-0.0653 0.26509,0.0281 0.41313,0.20775 z"
       style="fill:#f2e635;fill-opacity:1;stroke-width:0.42311624" />
    <path
       style="fill:#3726a6;fill-opacity:1;stroke-width:0.53120697"
       d="m 141.80186,137.12903 c -2.56657,3.09671 -30.37416,28.20231 -30.29205,27.34866 0.0254,-0.26426 4.87932,-4.87837 10.78645,-10.25355 17.15154,-15.60703 21.2476,-19.19687 19.5056,-17.09511 z m 1.01069,2.0609 c 0.15369,0.18637 -0.2739,0.79507 -0.9502,1.35266 -0.67626,0.55757 -1.2883,0.94254 -1.36019,0.85536 -0.0718,-0.0872 0.35577,-0.69582 0.95018,-1.35266 0.59438,-0.65693 1.20661,-1.04167 1.36021,-0.85536 z m -32.65169,26.59018 c -0.31306,0.43276 -0.87201,0.88216 -1.24233,0.99832 -0.37014,0.11645 -0.1138,-0.23757 0.56927,-0.78675 0.6823,-0.55028 0.98593,-0.64455 0.67283,-0.21185 z m -2.86903,2.36547 c -0.31307,0.43278 -0.87199,0.88215 -1.24233,0.99831 -0.37015,0.11646 -0.11392,-0.23754 0.56926,-0.78674 0.68229,-0.55025 0.98593,-0.64456 0.67283,-0.21183 z m -3.26309,2.70673 c -0.5425,0.60498 -1.55691,1.44132 -2.25424,1.85857 -0.69731,0.41727 -0.25352,-0.0778 0.98636,-1.10002 1.23983,-1.02222 1.81039,-1.36359 1.26788,-0.75855 z m 34.95047,-27.70447 c 0.50794,0.18268 2.55447,-0.85871 5.72671,-2.91405 2.71498,-1.75905 5.76947,-3.45492 6.78774,-3.76857 1.01828,-0.31367 2.5214,-1.12094 3.34024,-1.79396 2.38903,-1.96357 5.27384,-3.03351 6.25949,-2.32158 0.52346,0.37799 1.4313,0.33748 2.24825,-0.1005 1.48331,-0.79516 2.49912,-0.1756 1.78405,1.08817 -0.24378,0.43076 -1.35029,1.53118 -2.45898,2.44528 -1.1087,0.9141 -1.86371,1.84641 -1.67787,2.07183 0.18587,0.22544 0.96839,-0.11 1.73894,-0.74524 0.77053,-0.63528 1.82804,-1.29796 2.34987,-1.47278 0.87979,-0.29458 0.90811,-0.2503 0.38892,0.60815 -0.30797,0.50917 -0.27175,1.27715 0.0805,1.70658 0.52913,0.64427 0.27995,1.14447 -1.42657,2.86654 l -2.06691,2.08578 2.22349,-1.47837 2.22348,-1.47836 -2.50072,2.18593 c -1.37547,1.20215 -2.34867,2.37033 -2.16281,2.59576 0.29715,0.36041 2.78686,-1.31305 5.09436,-3.42412 0.71383,-0.65299 0.73588,-0.60609 0.24392,0.51836 -0.36544,0.83524 -0.26999,1.41171 0.29416,1.7765 0.71765,0.46402 0.51882,0.86715 -1.41311,2.86494 -1.23657,1.27868 -2.11588,2.48552 -1.95404,2.68184 0.16186,0.19631 -0.23368,0.7922 -0.87895,1.32424 -0.68651,0.56602 -1.39451,2.0066 -1.70669,3.47256 -0.42327,1.98771 -0.95717,2.87332 -2.5844,4.28686 -1.86416,1.61938 -1.90054,1.69786 -0.39897,0.86259 1.44023,-0.80116 1.56129,-0.78858 0.94437,0.0983 -0.38921,0.55953 -1.50121,1.51061 -2.47108,2.11366 -1.03923,0.64605 -1.72538,1.37448 -1.67084,1.77359 0.0606,0.44259 0.54832,0.27578 1.40727,-0.48121 0.72306,-0.63726 2.64139,-2.17983 4.2615,-3.42969 2.63762,-2.03296 2.82787,-2.1088 1.81264,-0.72414 -0.62382,0.85083 -8.98593,7.99389 -18.58247,15.87351 -15.21385,12.49205 -17.64835,14.35119 -19.01087,14.51886 -0.9046,0.11139 -2.37437,0.88236 -3.49028,1.83099 -1.06029,0.90117 -2.1631,1.55861 -2.4507,1.46086 -0.93062,-0.31642 -1.29432,0.42239 -0.44457,0.90317 0.61441,0.34767 0.60503,0.4962 -0.0367,0.58397 -0.47345,0.0648 -1.35257,0.59034 -1.95356,1.16792 -0.61325,0.58946 -1.94024,1.11023 -3.02423,1.18702 -1.16561,0.0825 -2.12087,0.47472 -2.40922,0.98902 -0.4143,0.73906 -0.28488,0.81404 0.97457,0.56486 1.35345,-0.2678 1.29475,-0.15433 -0.86237,1.66794 -1.27297,1.07554 -2.46095,1.77791 -2.63986,1.56091 -0.45042,-0.54628 -1.53715,0.43138 -1.26503,1.13789 0.26673,0.69231 -5.35602,5.86227 -5.79572,5.32899 -0.16727,-0.20285 0.0539,-0.664 0.49143,-1.02475 0.43758,-0.36074 0.75721,-0.93629 0.71037,-1.279 -0.11012,-0.80535 -1.9009,-0.22027 -1.81986,0.59458 0.0338,0.33893 -0.17747,1.02665 -0.4693,1.52814 -0.43763,0.75195 -0.35089,0.94609 0.49483,1.10749 0.56404,0.1076 1.00294,0.4302 0.97537,0.71682 -0.0276,0.28662 -0.41365,0.3975 -0.85793,0.24647 -0.54321,-0.18467 -1.15114,0.14659 -1.856005,1.01128 -0.576551,0.7072 -1.287393,1.20461 -1.57991,1.10505 -0.292453,-0.0994 -0.08494,-0.67864 0.461123,-1.28718 0.74255,-0.82768 0.561704,-0.77706 -0.717842,0.20075 -0.940776,0.71902 -2.145044,1.27814 -2.676052,1.24262 -0.772386,-0.0516 -0.918575,0.0687 -0.730905,0.60262 0.325225,0.92523 -0.794879,1.73503 -1.695213,1.22567 -0.408604,-0.23113 -0.974865,-0.22896 -1.258495,0.005 -0.283606,0.23384 -1.357647,0.44452 -2.386726,0.46814 l -1.871047,0.043 0.656235,-1.12781 c 0.530527,-0.91171 0.475641,-1.13979 -0.28639,-1.19023 -0.742133,-0.0491 -0.892777,0.0795 -0.708209,0.60477 0.128923,0.36701 -0.118986,0.95867 -0.551008,1.31489 -0.551008,0.4543 -1.002953,0.36437 -1.513556,-0.30119 -0.400402,-0.52184 -0.44492,-0.79498 -0.09873,-0.607 1.008207,0.54791 1.445304,-0.19908 0.668058,-1.1418 -0.607881,-0.73728 -0.843233,-0.68684 -1.603113,0.34365 -0.94208,1.27752 -1.034877,2.48385 -0.227795,2.96176 0.267567,0.15859 -0.252403,0.93828 -1.1578,1.73589 -0.904144,0.79639 -1.295457,1.01961 -0.86979,0.49568 0.425731,-0.52383 0.527021,-1.03636 0.225087,-1.13903 -0.74031,-0.25169 -5.392598,3.62736 -5.286004,4.40732 0.126454,0.92431 -1.265989,1.8745 -2.423207,1.65367 -0.889903,-0.16982 -0.600741,-0.5374 2.31198,-2.93889 2.561193,-2.11166 3.221263,-2.87552 2.861582,-3.31178 -0.257111,-0.31184 -0.172188,-0.97583 0.188733,-1.47549 0.531615,-0.73603 0.731905,-0.72022 1.054649,0.0828 0.301326,0.74972 0.596716,0.82793 1.211647,0.32094 0.447262,-0.36876 0.705045,-0.95116 0.572869,-1.29423 -0.14848,-0.3852 0.592881,-1.28984 1.938641,-2.36573 l 2.178993,-1.74195 -1.664099,-0.0981 -1.664125,-0.0981 0.835575,-0.91584 c 0.548401,-0.60103 0.593805,-1.05262 0.13224,-1.31382 -0.444376,-0.25147 -0.436414,-0.61812 0.02177,-0.99588 0.955536,-0.78783 2.164981,-3.34491 1.797034,-3.79942 -0.302098,-0.37387 -1.436797,0.86743 -2.318865,2.53694 -0.340997,0.64542 -0.545046,0.75173 -0.604729,0.31514 -0.131442,-0.96141 -1.807706,-0.23883 -2.019438,0.87053 -0.139176,0.72939 -0.486249,0.9298 -1.527012,0.88179 -1.806275,-0.0833 -1.609922,1.12203 0.235327,1.44488 1.458481,0.25514 3.123884,-0.64344 2.529231,-1.3647 -0.185872,-0.22543 -0.147062,-0.56729 0.08633,-0.75968 0.288707,-0.23802 0.495743,0.006 0.648096,0.76374 0.249719,1.24399 -1.463177,5.7117 -2.163981,5.64431 -0.24715,-0.0239 -0.331782,-0.39004 -0.187062,-0.81473 0.206783,-0.60822 0.08177,-0.71105 -0.590956,-0.48583 -0.469287,0.15716 -1.184952,1.19947 -1.590442,2.31621 -0.41206,1.13499 -0.900941,1.8319 -1.108497,1.58017 -0.204213,-0.24771 -0.186859,-0.6024 0.03848,-0.78826 0.225428,-0.18586 0.261276,-0.51813 0.07975,-0.73841 -0.181568,-0.22022 -1.015117,0.17791 -1.852262,0.8848 -0.837309,0.70673 -1.816667,1.49167 -2.176487,1.74418 -0.359807,0.25248 -0.88541,0.74227 -1.167749,1.08876 -0.28234,0.34649 -0.665374,0.44553 -0.851259,0.22007 -0.203289,-0.24656 1.110497,-1.56402 3.297718,-3.30684 1.999666,-1.59326 3.499476,-3.06216 3.33287,-3.26425 -0.166543,-0.20198 -0.487262,-0.21519 -0.712678,-0.0294 -0.225428,0.18585 -0.565438,0.14928 -0.755575,-0.0814 -0.190138,-0.23062 0.338136,-0.4945 1.17404,-0.58632 1.008611,-0.11076 1.489734,-0.3864 1.430519,-0.81934 -0.130505,-0.95438 -1.153762,-1.15158 -2.067222,-0.39846 -0.437553,0.36074 -1.023637,0.37926 -1.302419,0.0411 -0.625096,-0.75816 -0.666184,-0.72441 -1.493152,1.22494 -0.36806,0.8691 -1.041699,1.87985 -1.497062,2.24609 -0.767601,0.61651 -0.800183,0.59103 -0.45049,-0.35515 0.207618,-0.5616 0.133176,-1.1041 -0.165302,-1.2056 -0.316846,-0.10772 -0.692273,0.26198 -0.902106,0.88836 -0.46287,1.38256 -3.63393,2.40288 -4.006826,1.28923 -0.148644,-0.44409 -0.683196,-0.5329 -1.349469,-0.22434 -0.831157,0.38494 -1.039143,0.3139 -0.84322,-0.28801 0.177998,-0.5468 0.928333,-0.67048 2.377979,-0.39169 1.790743,0.34433 2.180246,0.23626 2.521496,-0.69942 0.386288,-1.05923 0.354048,-1.08477 -0.752752,-0.59614 -0.635957,0.28078 -1.258711,0.24706 -1.383836,-0.0749 -0.304491,-0.78352 4.844742,-5.39927 6.019099,-5.39549 0.656614,0.001 0.843359,-0.16017 0.678044,-0.58928 -0.216973,-0.56297 3.417312,-4.79508 6.784864,-7.90098 1.878326,-1.73229 3.008695,-3.44865 2.598838,-3.94574 -0.164454,-0.19947 -1.49705,0.53282 -2.96129,1.62733 -1.46419,1.09452 2.025438,-1.90647 7.754843,-6.66882 5.732342,-4.76467 9.893824,-7.98838 9.25345,-7.16816 -0.64002,0.81982 -1.360115,1.51749 -1.600176,1.55037 -0.240162,0.0328 -0.396996,0.3437 -0.350579,0.68852 0.07684,0.56216 5.143044,-3.10785 7.252414,-5.25379 0.37809,-0.38456 1.27468,-0.67221 1.99252,-0.6391 1.05525,0.0486 1.28555,-0.0981 1.20261,-0.76615 -0.20958,-1.68814 0.79381,-3.36571 2.11757,-3.54045 0.96766,-0.12783 1.24488,-0.35508 1.31458,-1.07773 0.0485,-0.50379 0.75804,-1.43746 1.57681,-2.07477 1.34304,-1.04535 1.41366,-1.04549 0.72176,-0.001 -0.66521,1.00388 -0.63748,1.11914 0.20884,0.86894 0.53668,-0.15864 1.05465,-0.65773 1.15118,-1.10886 0.25493,-1.19227 2.09918,-3.93917 3.47241,-5.17195 0.65279,-0.58605 2.58355,-2.68024 4.29054,-4.65373 1.70699,-1.97354 3.76545,-3.94303 4.57436,-4.37667 0.80882,-0.43371 2.00008,-1.50464 2.64714,-2.37987 0.64705,-0.87529 3.14744,-3.40658 5.5564,-5.62512 3.47102,-3.19659 4.54403,-3.97466 5.17039,-3.74945 z m -48.648342,44.28337 c 0.07304,0.0887 0.496995,0.0391 0.942105,-0.10987 0.445161,-0.14896 0.66207,-0.44954 0.481996,-0.66796 -0.180024,-0.21834 -0.603982,-0.16888 -0.942118,0.10987 -0.338136,0.27877 -0.555059,0.57932 -0.481983,0.66795 z m -6.219692,6.23441 c 0.101011,0.73867 0.904169,0.0766 1.639454,-1.35169 0.472616,-0.91802 0.408654,-0.93381 -0.5974,-0.14755 -0.619653,0.48432 -1.088611,1.15896 -1.042054,1.49924 z m -3.816612,4.13884 c 0.08202,0.0994 0.427426,0.14264 0.767714,0.0961 0.340238,-0.0466 0.457642,-0.27999 0.260859,-0.51867 -0.196846,-0.23873 -0.542324,-0.28199 -0.767753,-0.0961 -0.225403,0.18586 -0.342782,0.41924 -0.26082,0.51867 z M 93.937,187.62985 c 0.18586,0.22541 0.522363,0.25777 0.747791,0.0719 0.225429,-0.18587 0.257783,-0.52235 0.0719,-0.74778 -0.185884,-0.22544 -0.522362,-0.2578 -0.74779,-0.0719 -0.225429,0.18585 -0.257808,0.52233 -0.0719,0.7478 z m 22.9574,-17.24758 c 0.082,0.0994 0.42743,0.14265 0.76774,0.0961 0.34026,-0.0466 0.45764,-0.27998 0.26085,-0.51866 -0.19683,-0.23873 -0.5423,-0.28199 -0.76774,-0.0961 -0.22541,0.18584 -0.3428,0.41925 -0.26085,0.51864 z m -41.207201,34.35959 c 0.185847,0.22541 0.522337,0.25779 0.747766,0.0719 0.225428,-0.18586 0.257782,-0.52235 0.0719,-0.74776 -0.185847,-0.22543 -0.52235,-0.25781 -0.747778,-0.0719 -0.225429,0.18587 -0.257795,0.52236 -0.0719,0.74779 z m -3.12163,2.70277 c 0.879891,0.5511 1.866135,-0.0504 1.269393,-0.7741 -0.294275,-0.35692 -0.827056,-0.40817 -1.183976,-0.11392 -0.356934,0.29428 -0.395389,0.69386 -0.08532,0.88798 z m -1.868718,2.10009 c 1.883743,-0.0485 2.479877,-0.33239 1.977388,-0.94184 -0.185847,-0.22542 -0.614603,-0.18177 -0.952726,0.0971 -0.338137,0.2788 -0.766842,0.32247 -0.952713,0.0971 -0.185847,-0.22543 -0.657298,-0.13964 -1.047675,0.19062 -0.57526,0.48656 -0.390249,0.59227 0.975726,0.55718 z m 45.474789,-37.53393 c 0.1749,0.21214 0.59643,0.34759 0.93669,0.30105 0.34025,-0.0466 0.38167,-0.37214 0.0919,-0.72358 -0.28977,-0.35145 -0.71127,-0.48692 -0.9367,-0.30106 -0.22543,0.18585 -0.26679,0.51148 -0.0918,0.72359 z m -16.397299,13.28746 c 0.248429,0.0238 0.613969,-0.25302 0.812289,-0.61532 0.21902,-0.40045 0.0418,-0.41744 -0.4518,-0.0434 -0.446716,0.33844 -0.608891,0.63496 -0.360463,0.65881 z m -20.880233,17.48794 c 0.185846,0.22543 0.522337,0.25779 0.747765,0.0719 0.225429,-0.18586 0.257808,-0.52237 0.0719,-0.74778 -0.185859,-0.22543 -0.522375,-0.25781 -0.747816,-0.0719 -0.225416,0.18585 -0.25777,0.52235 -0.0719,0.74778 z m 3.616816,-2.29356 c 0.185872,0.22543 0.522362,0.2578 0.747791,0.0719 0.225403,-0.18587 0.257782,-0.52234 0.0719,-0.7478 -0.185847,-0.2254 -0.52235,-0.25777 -0.747766,-0.0719 -0.225428,0.18585 -0.257795,0.52234 -0.0719,0.74777 z m -6.977407,6.63061 c 0.454705,0.4483 0.938663,-0.11013 0.679159,-0.78374 -0.132873,-0.34481 -0.402161,-0.37068 -0.598248,-0.0576 -0.196226,0.31315 -0.232593,0.69177 -0.08089,0.84129 z m 2.734913,-1.75577 c 0.185846,0.22543 0.614589,0.18177 0.952725,-0.0971 0.338124,-0.27877 0.462718,-0.69131 0.276859,-0.91672 -0.185859,-0.22543 -0.61459,-0.18179 -0.952713,0.0971 -0.338149,0.27879 -0.46273,0.69135 -0.276871,0.91676 z m 79.64635,-64.97866 c 0.32512,0.11064 0.84611,-0.009 1.15765,-0.26599 0.31151,-0.25685 0.52835,-0.74543 0.4818,-1.08571 -0.0482,-0.35228 -0.54665,-0.23776 -1.15764,0.26598 -0.61099,0.50376 -0.81845,0.97127 -0.48181,1.08572 z m -3.30045,2.48436 c 0.37013,-0.11645 0.92907,-0.56578 1.24233,-0.99831 0.31306,-0.43276 0.0114,-0.33736 -0.67283,0.21185 -0.6823,0.55027 -0.93932,0.9033 -0.56927,0.78675 z m -19.85679,16.60841 c 0.18586,0.22542 0.9222,-0.10265 1.63629,-0.72924 1.23017,-1.07929 1.23036,-1.11197 0.003,-0.62247 -1.82822,0.72928 -2.02135,0.8885 -1.63945,1.35171 z m -15.57479,12.84116 c 0.18586,0.22542 0.52237,0.25779 0.7478,0.0719 0.2254,-0.18586 0.25778,-0.52233 0.0719,-0.74776 -0.18584,-0.22543 -0.52236,-0.2578 -0.74777,-0.0719 -0.22543,0.18586 -0.2578,0.52238 -0.0719,0.74778 z m -10.01881,9.35055 c 0.71263,0.0685 0.97408,-1.20974 0.29467,-1.4407 -0.40382,-0.13729 -0.62723,0.0589 -0.67885,0.59589 -0.0423,0.44027 0.13049,0.82045 0.38423,0.84486 z m -7.05007,4.9116 c -0.59257,0.21846 -0.6207,0.34732 -0.0906,0.41468 0.42296,0.0538 1.35129,-0.32339 2.06293,-0.83808 2.03555,-1.47223 2.13824,-1.73229 0.5578,-1.41105 -0.8108,0.16475 -1.51838,0.57361 -1.57238,0.90852 -0.0539,0.33491 -0.48501,0.75158 -0.95772,0.92603 z m 20.27583,-16.21777 c 0.18589,0.22544 0.52239,0.25781 0.7478,0.0719 0.22543,-0.18585 0.25783,-0.52236 0.0719,-0.74781 -0.18584,-0.22542 -0.52236,-0.25778 -0.74778,-0.0719 -0.22542,0.18584 -0.2578,0.52235 -0.0719,0.74776 z m -10.24655,8.44813 c 0.18588,0.22544 0.52238,0.25781 0.74779,0.0719 0.22543,-0.18585 0.2578,-0.52235 0.0719,-0.74779 -0.18585,-0.22543 -0.52236,-0.2578 -0.74776,-0.0719 -0.22543,0.18584 -0.25781,0.52235 -0.0719,0.74776 z m -13.421609,11.11743 c 0.280516,0.17579 0.685335,0.17506 0.899498,-0.001 0.21415,-0.17658 0.291985,-0.57382 0.172948,-0.88272 -0.118986,-0.30899 -0.52378,-0.30826 -0.899486,0.001 -0.375705,0.30975 -0.453553,0.70698 -0.17296,0.8827 z m -2.779672,2.00767 c 0.375541,-0.11861 0.836638,-0.49878 1.024662,-0.84482 0.188023,-0.34605 -0.119113,-0.249 -0.682792,0.21566 -0.563552,0.46465 -0.71731,0.74787 -0.34187,0.62916 z m -3.085112,2.50353 c 0.248441,0.0238 0.613982,-0.25302 0.812284,-0.61531 0.219011,-0.40048 0.04202,-0.41746 -0.451806,-0.0434 -0.446705,0.33844 -0.608881,0.63495 -0.360453,0.65878 z m 22.478883,-17.43479 c 0.69794,0.0672 0.91653,-0.11317 0.98367,-0.81103 0.0672,-0.69792 -0.13224,-0.71712 -0.89736,-0.0863 -0.76508,0.63079 -0.78422,0.83023 -0.0863,0.89734 z m -25.853841,21.89373 c 0.504515,-0.0638 1.194078,-0.34378 1.532316,-0.62245 0.338946,-0.27925 -0.04468,-0.36985 -0.854904,-0.20182 -1.603809,0.33258 -2.161892,1.01168 -0.677412,0.82427 z M 135.5447,160.66097 c 0.37005,-0.11646 0.92898,-0.56591 1.24233,-0.99831 0.31305,-0.43277 0.0114,-0.33738 -0.67283,0.21183 -0.6823,0.55026 -0.93932,0.90328 -0.56929,0.78674 z m -3.0524,2.75344 c 0.3966,0.48105 0.71162,0.22133 1.4345,-1.18275 0.46902,-0.91102 0.39825,-0.92554 -0.62156,-0.12766 -0.63297,0.4953 -0.99882,1.08494 -0.81294,1.31037 z m -11.25521,8.89484 c 0.082,0.0994 0.42743,0.14266 0.76772,0.0961 0.34023,-0.0466 0.45765,-0.27997 0.26084,-0.51868 -0.19682,-0.23872 -0.5423,-0.28197 -0.76773,-0.0961 -0.22542,0.18584 -0.3428,0.41925 -0.26083,0.51865 z m -20.17123,17.70423 c 0.0501,0.36768 0.62538,0.15321 1.41711,-0.52829 1.11031,-0.95572 1.14737,-1.09304 0.22233,-0.8234 -1.50588,0.43892 -1.73811,0.6304 -1.63944,1.35169 z m 16.52749,-12.93819 c 0.18586,0.2254 0.51149,0.26677 0.7236,0.0918 0.21213,-0.17488 0.34757,-0.59641 0.30105,-0.9367 -0.0466,-0.34024 -0.37212,-0.38164 -0.7236,-0.0919 -0.35143,0.28976 -0.48691,0.71125 -0.30105,0.93668 z m -23.772045,19.59965 c 0.185859,0.22543 0.522375,0.25782 0.747791,0.0719 0.225441,-0.18587 0.257783,-0.52239 0.0719,-0.74779 -0.185846,-0.22543 -0.522337,-0.2578 -0.747765,-0.0719 -0.225429,0.18586 -0.257795,0.52234 -0.0719,0.74775 z m -7.062355,6.23879 c 0.248428,0.0238 0.613994,-0.25303 0.812271,-0.61531 0.219061,-0.40049 0.04202,-0.41748 -0.451768,-0.0434 -0.446718,0.33844 -0.608995,0.63483 -0.360478,0.65878 z m -7.01685,6.74626 c 0.185872,0.22541 0.522363,0.25779 0.747804,0.0719 0.225416,-0.18586 0.25777,-0.52235 0.0719,-0.74777 -0.185847,-0.22543 -0.52235,-0.25781 -0.747778,-0.0719 -0.225429,0.18588 -0.257796,0.52238 -0.0719,0.74781 z m 40.7094,-32.87577 c 0.32513,0.11063 0.76479,0.0578 0.97693,-0.11697 0.2121,-0.17488 0.23359,-0.50241 0.0476,-0.72784 -0.18585,-0.22543 -0.62548,-0.17278 -0.97691,0.11696 -0.35144,0.28976 -0.37293,0.61728 -0.0478,0.72783 z m -26.84599,22.13409 c 0.185846,0.22543 0.52235,0.25781 0.747778,0.0719 0.225416,-0.18587 0.257795,-0.52238 0.07202,-0.7478 -0.185872,-0.22543 -0.522376,-0.2578 -0.747804,-0.0719 -0.225416,0.18587 -0.257795,0.52236 -0.0719,0.74779 z m 6.075997,-4.32109 c 0.185859,0.22543 0.533253,0.24884 0.771973,0.0519 0.23873,-0.19683 0.16801,-0.44832 -0.15717,-0.55888 -0.325122,-0.11063 -0.672575,-0.13397 -0.771979,-0.0519 -0.09937,0.082 -0.02873,0.33348 0.157163,0.55888 z m 9.078033,-6.10773 c 0.32511,0.11063 0.85701,-0.0181 1.18185,-0.28592 0.32484,-0.26783 0.43852,-0.6714 0.25267,-0.89683 -0.18586,-0.22541 -0.71769,-0.0967 -1.18185,0.28595 -0.46415,0.38269 -0.57785,0.78625 -0.25267,0.8968 z m -15.779708,13.01012 c 0.185846,0.22541 0.522362,0.2578 0.747791,0.0719 0.225428,-0.18586 0.257782,-0.52237 0.0719,-0.7478 -0.185859,-0.2254 -0.522363,-0.25778 -0.747791,-0.0719 -0.225429,0.18587 -0.257808,0.52236 -0.0719,0.74779 z m -4.339532,3.9221 c 0.278795,0.33814 0.777766,0.39148 1.108813,0.11848 0.366655,-0.3023 0.311593,-0.66054 -0.14091,-0.91659 -0.408591,-0.2311 -0.907498,-0.28446 -1.108813,-0.11848 -0.201327,0.16599 -0.137923,0.57844 0.14091,0.91656 z m -3.447868,2.49848 c 0.185846,0.22542 0.706817,0.1057 1.157673,-0.26599 0.450832,-0.37171 0.66764,-0.8603 0.481781,-1.0857 -0.185872,-0.22543 -0.706804,-0.1057 -1.157635,0.26597 -0.450857,0.37173 -0.667678,0.8603 -0.481819,1.08572 z m 40.914348,-33.04472 c 0.18585,0.22542 0.52235,0.25779 0.74777,0.0719 0.22543,-0.18587 0.25782,-0.52237 0.0719,-0.74779 -0.18588,-0.22544 -0.5224,-0.25781 -0.74782,-0.0719 -0.22543,0.18585 -0.25778,0.52235 -0.0719,0.74779 z m -7.03962,6.49252 c 0.18585,0.2254 0.52236,0.25778 0.74778,0.0719 0.22543,-0.18584 0.25781,-0.52237 0.072,-0.74779 -0.18586,-0.22541 -0.52237,-0.25777 -0.7478,-0.0719 -0.22542,0.18586 -0.2578,0.52235 -0.0719,0.74778 z m -3.27891,2.70338 c 0.18586,0.22542 0.52238,0.25779 0.74779,0.0719 0.22544,-0.18585 0.25781,-0.52236 0.0719,-0.74777 -0.18584,-0.22543 -0.52234,-0.2578 -0.74776,-0.0719 -0.22543,0.18584 -0.25781,0.52235 -0.0719,0.74776 z m -23.794789,19.34591 c 0.248428,0.0238 0.613982,-0.25303 0.812284,-0.61531 0.219036,-0.40046 0.04177,-0.41747 -0.451781,-0.0434 -0.44673,0.33845 -0.608982,0.63483 -0.360478,0.65879 z m -4.147812,4.38079 c 0.185859,0.22543 0.717728,0.0967 1.181863,-0.28592 0.464161,-0.3827 0.577843,-0.78626 0.252669,-0.89683 -0.325111,-0.11063 -0.857005,0.0181 -1.181851,0.28595 -0.32482,0.26783 -0.438527,0.6714 -0.252681,0.8968 z m 24.087211,-19.44354 c 0.24842,0.0238 0.61399,-0.25305 0.81228,-0.6153 0.21904,-0.40049 0.042,-0.41747 -0.45178,-0.0435 -0.44672,0.33845 -0.60899,0.63484 -0.36047,0.6588 z M 91.667413,205.3356 c 0.04658,0.34022 0.279972,0.45763 0.518666,0.26082 0.238732,-0.19684 0.281998,-0.5423 0.09607,-0.76773 -0.185871,-0.22542 -0.419262,-0.34281 -0.518679,-0.26086 -0.09937,0.082 -0.142644,0.42747 -0.09607,0.76777 z m -0.999561,2.54529 c 0.278795,0.33814 0.783537,0.38671 1.121674,0.10797 0.640045,-0.52771 0.413502,-1.15519 -0.446933,-1.23797 -0.860435,-0.0827 -1.20242,0.49002 -0.674741,1.13005 z m 23.941008,-19.39473 c 0.18586,0.22543 0.41926,0.34282 0.51865,0.26086 0.0994,-0.082 0.14266,-0.42746 0.0961,-0.76775 -0.0466,-0.34024 -0.27998,-0.45766 -0.51866,-0.26085 -0.23873,0.19682 -0.28198,0.54231 -0.0961,0.76774 z m -10.4515,8.61709 c 0.0466,0.34025 0.47533,0.29657 0.95271,-0.0971 0.47746,-0.39365 0.60204,-0.80619 0.27689,-0.91676 -0.32512,-0.11063 -0.75394,-0.067 -0.95275,0.0971 -0.1988,0.16391 -0.3234,0.57646 -0.27685,0.91675 z m -10.451509,8.6171 c 0.185871,0.22543 0.419262,0.34281 0.518679,0.26084 0.09937,-0.082 0.142644,-0.42744 0.09607,-0.76773 -0.04658,-0.34024 -0.279985,-0.45766 -0.518679,-0.26085 -0.238732,0.19684 -0.281985,0.54233 -0.09608,0.76774 z m -4.447442,5.04378 c -0.422667,0.82101 -0.210024,0.77461 1.055649,-0.23026 0.956979,-0.75976 1.350709,-1.33794 0.993675,-1.45937 -0.698298,-0.2374 -1.321938,0.27678 -2.049324,1.68963 z m 25.746201,-20.74266 c 0.5843,-0.31837 1.50852,-1.07626 2.05434,-1.68356 0.54531,-0.60789 0.0672,-0.3474 -1.06238,0.57882 -1.13014,0.92565 -1.57584,1.42361 -0.99155,1.10523 z m -18.834515,15.34754 c 0.356667,0.43261 1.29309,-0.0341 1.214951,-0.6056 -0.04734,-0.34583 -0.373503,-0.39174 -0.724994,-0.1019 -0.351414,0.28975 -0.571919,0.60815 -0.489957,0.70754 z m 12.678835,-8.00319 c 0.18588,0.22544 -0.2045,0.85708 -0.86748,1.40371 -0.66295,0.54659 -1.1673,1.27227 -1.12075,1.61253 0.0961,0.70252 1.5514,-0.37807 3.14943,-2.33851 1.17418,-1.44046 0.63289,-2.84545 -0.67943,-1.76346 -0.45084,0.37171 -0.66764,0.86028 -0.48178,1.0857 z m -13.66932,12.64712 c 0.185846,0.22542 0.533236,0.24883 0.771968,0.0519 0.238732,-0.19683 0.167986,-0.44832 -0.157164,-0.55888 -0.325123,-0.11063 -0.672589,-0.13396 -0.771993,-0.0519 -0.09937,0.082 -0.02873,0.33347 0.157163,0.55889 z m 29.84803,-23.92076 c 0.18585,0.22542 0.52234,0.2578 0.74777,0.072 0.22542,-0.18587 0.25782,-0.52238 0.0719,-0.7478 -0.18586,-0.22543 -0.52236,-0.25777 -0.74779,-0.0719 -0.22541,0.18584 -0.25779,0.52233 -0.0719,0.74778 z m 27.19995,-22.12232 c 0.082,0.0994 0.42744,0.14264 0.76773,0.0961 0.34022,-0.0466 0.45764,-0.28 0.26086,-0.51867 -0.19683,-0.23873 -0.54233,-0.28199 -0.76776,-0.0961 -0.2254,0.18586 -0.34279,0.41925 -0.26083,0.51867 z m -47.78773,39.5127 c 0.24844,0.0238 0.61399,-0.25302 0.81228,-0.61531 0.21904,-0.40046 0.0418,-0.41746 -0.4518,-0.0434 -0.44671,0.33844 -0.60898,0.63483 -0.36046,0.6588 z m 30.59582,-23.84883 c 0.24843,0.0238 0.61397,-0.25302 0.81228,-0.61531 0.21904,-0.40047 0.0418,-0.41745 -0.45178,-0.0434 -0.44674,0.33845 -0.60901,0.63484 -0.36045,0.65881 z m -10.41277,8.47268 c 0.35667,0.43261 1.29308,-0.034 1.21494,-0.60559 -0.0473,-0.34585 -0.37351,-0.39176 -0.72498,-0.1019 -0.35143,0.28974 -0.57193,0.60816 -0.48996,0.70756 z m 14.05203,-10.51286 c 0.18587,0.22543 0.52239,0.25781 0.74779,0.0719 0.22543,-0.18586 0.25779,-0.52239 0.0719,-0.74782 -0.18586,-0.22543 -0.52238,-0.25778 -0.74778,-0.0719 -0.22543,0.18586 -0.25781,0.52237 -0.072,0.74777 z m -38.82408,-2.83186 c 0.07304,0.0887 -0.05633,0.49534 -0.287491,0.90389 -0.231074,0.40859 -0.567514,0.56424 -0.747614,0.34579 -0.180011,-0.21834 -0.05063,-0.62509 0.287491,-0.90389 0.338124,-0.27878 0.674513,-0.43445 0.747614,-0.34579 z m -5.111069,4.44764 c -0.886878,0.87622 -1.46924,1.7669 -1.294052,1.97938 0.449642,0.54536 -1.134623,1.74501 -1.942021,1.47047 -0.452325,-0.15385 -1.708441,0.7439 -3.873409,2.76807 -1.762212,1.64761 -3.588247,3.04374 -4.05766,3.1027 -0.498034,0.0625 1.985742,-2.1882 5.963023,-5.40336 3.749119,-3.03075 6.090871,-4.79362 5.20403,-3.91736 z m 9.894849,-4.49075 c 0.19681,0.23869 0.0794,0.47212 -0.26086,0.51866 -0.34025,0.0466 -0.68575,0.003 -0.76771,-0.0961 -0.082,-0.0994 0.0353,-0.3328 0.26083,-0.51864 0.22542,-0.18586 0.57091,-0.14266 0.76774,0.0961 z M 63.430649,214.0923 c 0.168467,0.20431 -0.143277,0.57971 -0.692842,0.8342 -0.549501,0.25448 -1.080066,0.88232 -1.17742,1.39701 -0.137125,0.71869 -0.35268,0.83568 -0.933751,0.50691 -0.598944,-0.33886 -0.418351,-0.70536 0.871131,-1.76852 0.894625,-0.7376 1.764441,-1.17392 1.932882,-0.9696 z m -3.675474,4.07402 c 1.101155,0.53703 1.210281,0.81485 0.817132,2.0802 -0.634779,2.04284 -1.593188,2.63868 -1.241888,0.772 0.316706,-1.68274 -0.349604,-2.88468 -1.412962,-2.54879 -0.443895,0.14013 -0.464122,0.0165 -0.0581,-0.35376 0.343643,-0.3132 1.196699,-0.29057 1.89568,0.0504 z m -3.465476,1.87806 c 0.325124,0.11063 0.395858,0.36206 0.157164,0.55887 -0.238733,0.19682 -0.586122,0.17343 -0.771981,-0.0519 -0.185859,-0.22544 -0.256605,-0.47692 -0.157163,-0.55888 0.09937,-0.082 0.446806,-0.0585 0.771993,0.052 z m 9.8498,-6.28509 c 0.714639,0.0687 1.125395,0.67856 0.695715,1.03283 -0.201315,0.16597 -0.700285,0.11266 -1.1088,-0.11848 -0.754829,-0.4271 -0.495224,-1.00172 0.413085,-0.91432 z m -2.459181,2.02757 c 0.860448,0.0828 1.086965,0.71023 0.446945,1.23792 -0.338149,0.2788 -0.842904,0.23024 -1.121686,-0.10797 -0.527704,-0.64006 -0.185707,-1.21284 0.674741,-1.13004 z m -6.448804,6.23487 c 0.04658,0.34024 -0.09975,0.77079 -0.325225,0.95664 -0.225429,0.18587 -0.447958,0.0595 -0.494489,-0.28079 -0.04658,-0.34023 0.09987,-0.77078 0.325263,-0.95662 0.225428,-0.18587 0.447932,-0.0595 0.494451,0.28077 z m -2.701647,2.64835 c 0.584033,0.33046 0.567552,0.52862 -0.06152,0.73928 -0.472799,0.15822 -0.947562,0.36036 -1.055147,0.44908 -0.107455,0.0887 -0.23365,-0.11721 -0.280105,-0.45755 -0.125607,-0.91828 0.493414,-1.24213 1.396973,-0.73088 z m 8.162865,-6.46255 c 0.185871,0.22541 0.15353,0.56192 -0.0719,0.74779 -0.225403,0.18586 -0.561944,0.15355 -0.74779,-0.0719 -0.185872,-0.22543 -0.153543,-0.56195 0.0719,-0.74781 0.225428,-0.18584 0.561931,-0.15353 0.747791,0.0719 z m 6.145819,0.39246 c 0.274111,0.093 0.210492,0.56774 -0.141227,1.05458 -0.351642,0.48688 -0.760905,0.73779 -0.909473,0.5576 -0.397034,-0.48154 0.468756,-1.80999 1.050674,-1.61213 z m -2.122842,2.0514 c -0.131923,0.82414 -2.698635,3.3376 -3.015657,2.95311 -0.194277,-0.23563 0.415275,-1.06204 1.354545,-1.83647 0.939257,-0.77439 1.686719,-1.27696 1.661112,-1.11664 z m -8.360458,7.12697 c -0.429034,0.51836 -1.169813,1.12299 -1.645467,1.34439 -0.476388,0.22058 -0.125442,-0.20356 0.780006,-0.94253 0.905701,-0.73855 1.295179,-0.91937 0.866246,-0.4009 z m -4.097331,3.57983 c 0.185859,0.22543 0.153543,0.56192 -0.07195,0.74779 -0.225444,0.18586 -0.561929,0.15353 -0.747782,-0.0719 -0.185851,-0.22543 -0.153535,-0.5619 0.07196,-0.74778 0.225428,-0.18587 0.561945,-0.15354 0.747795,0.0719 z m 22.520662,-14.43708 c 0.185847,0.22543 0.142644,0.57092 -0.09607,0.76773 -0.238732,0.19684 -0.47216,0.0795 -0.518692,-0.26086 -0.04658,-0.34023 -0.0025,-0.68576 0.09607,-0.76772 0.09937,-0.082 0.332795,0.0354 0.518667,0.26085 z m -4.181634,5.7837 c 0.07304,0.0887 -0.05633,0.49533 -0.287453,0.90388 -0.231125,0.4086 -0.567527,0.56425 -0.747626,0.34581 -0.180012,-0.21834 -0.05063,-0.6251 0.287491,-0.90391 0.338123,-0.27878 0.6745,-0.43444 0.747588,-0.34578 z m -4.087685,3.6013 c -0.772348,0.78546 -2.15564,1.92597 -3.073948,2.53441 -0.918232,0.60859 -0.286225,-0.0341 1.404418,-1.42798 1.690694,-1.39394 2.441953,-1.89187 1.66953,-1.10643 z m -10.054431,8.27334 c -0.429034,0.51837 -1.169787,1.12298 -1.645479,1.34441 -0.476376,0.22057 -0.125442,-0.20358 0.780006,-0.94252 0.905713,-0.73858 1.295178,-0.9194 0.866271,-0.40093 z m -3.717651,3.04879 c -0.198264,0.36227 -0.563836,0.63912 -0.812272,0.61529 -0.248418,-0.0238 -0.08632,-0.32039 0.360466,-0.6588 0.493755,-0.37395 0.670855,-0.35697 0.451781,0.0434 z m -2.459163,2.02755 c -0.198287,0.36226 -0.563853,0.63913 -0.812272,0.61531 -0.24842,-0.0238 -0.08616,-0.32042 0.36047,-0.65881 0.49373,-0.37394 0.67084,-0.35698 0.451771,0.0434 z m 12.182255,-8.44894 c 0.734335,-0.0853 0.694677,0.0968 -0.179568,0.82599 -0.616906,0.51476 -1.27404,0.75115 -1.459886,0.52573 -0.427287,-0.51823 0.410262,-1.20878 1.639454,-1.35172 z m -3.381072,3.25795 c -0.198302,0.36228 -0.563741,0.63924 -0.812271,0.61529 -0.248441,-0.0238 -0.0862,-0.32039 0.360427,-0.65877 0.493755,-0.37398 0.670868,-0.35699 0.451806,0.0434 z m 26.101365,-19.99852 c 1.667302,0.008 1.680302,0.0195 0.817436,0.75355 -0.482413,0.41001 -1.144281,0.57909 -1.471202,0.37532 -0.474806,-0.29593 -0.707842,-0.1024 -1.157281,0.96232 -0.309871,0.73267 -1.036864,1.69732 -1.615505,2.14367 -0.578615,0.44639 -1.828591,1.46673 -2.778127,2.26699 -0.949004,0.80085 -1.874224,1.2757 -2.055843,1.05542 -0.181593,-0.22025 -0.60683,-0.17238 -0.944953,0.10633 -0.338149,0.27879 -0.462743,0.69135 -0.276871,0.91678 0.185846,0.22542 0.06126,0.63794 -0.276871,0.91673 -0.338124,0.27879 -0.766867,0.32247 -0.952726,0.0971 -0.185872,-0.22544 -0.614577,-0.18177 -0.952713,0.0971 -0.338137,0.27877 -0.462743,0.69132 -0.276871,0.91675 0.185859,0.22544 -0.05354,0.73262 -0.531983,1.12709 -0.729221,0.60123 -0.869385,0.54867 -0.866549,-0.3248 0.0025,-0.81391 0.863739,-1.7217 3.933598,-4.14674 2.161614,-1.70757 4.15928,-3.02681 4.439214,-2.93162 0.279934,0.0952 0.577324,-0.18038 0.660716,-0.61245 0.08354,-0.43196 0.705399,-1.44728 1.382089,-2.25625 0.95789,-1.14511 1.605555,-1.46915 2.924582,-1.46307 z m -14.127483,11.29686 c 0.286757,0.34781 -1.648897,2.24628 -2.125196,2.08433 -0.28158,-0.0958 0.05228,-0.63922 0.741854,-1.20777 0.689576,-0.56854 1.311988,-0.96309 1.383342,-0.87656 z m -5.969808,5.12837 c -0.198289,0.36228 -0.563856,0.63912 -0.812284,0.6153 -0.248428,-0.0238 -0.0862,-0.32038 0.360478,-0.65878 0.49373,-0.37393 0.670855,-0.35698 0.451781,0.0434 z m 19.548891,-12.45719 c 0.04658,0.34023 -0.08899,0.76179 -0.301073,0.93667 -0.212125,0.17489 -0.53773,0.13351 -0.723576,-0.0918 -0.185872,-0.22544 -0.05038,-0.64693 0.301061,-0.9367 0.351427,-0.28976 0.677019,-0.2484 0.723588,0.0919 z m 9.006085,-5.35996 c 0.185859,0.22542 0.142657,0.5709 -0.09607,0.76773 -0.238732,0.19682 -0.47211,0.0794 -0.518653,-0.26086 -0.04658,-0.34022 -0.0025,-0.68575 0.09607,-0.7677 0.09937,-0.082 0.332819,0.0353 0.518679,0.26083 z"
       id="path851"
       inkscape:connector-curvature="0"
       sodipodi:nodetypes="csccssscsccccccccccccsccscccccsssccccccccsccccssccccccccccccccccccccscssccccscccccsccscccccsccscccccccssccscccccccscsccccsscccccssscccscsssccssccccccccsccccccsccccccccccscccccccsccscsssccccscssssssssscsssssssscssccsssccscssscccccsssssssssscccccssssscscsccccccsccsssssscccccccccsccsssssssssscscsccssccccccccsccscccccccsccsscsssccccsscssssssscccccssssscssscssssssscsscssscssssssscsssssssssssssssssssssscccccsscssccccccssscsssssscsscscscsscsscccccccccscssssccssssscsssssssscsssccccccccccscsssssssscssscscccsccscsssscccssccccccccsssccscccsssscscscccscccsssssccscccsscccccccssssssscssscsssccsccccccccccccccccccsccccccccccccsssssssscccccccscssccccccssscsscss" />
  </g>
</svg>
